<?xml version="1.0" encoding="utf-8"?>
<!-- Generator: Adobe Illustrator 22.1.0, SVG Export Plug-In . SVG Version: 6.00 Build 0)  -->
<svg version="1.1" id="Layer_1" xmlns="http://www.w3.org/2000/svg" xmlns:xlink="http://www.w3.org/1999/xlink" x="0px" y="0px"
	 viewBox="0 0 114.3 114.3" style="enable-background:new 0 0 114.3 114.3;" xml:space="preserve">
<g>
	<defs>
		<rect id="SVGID_1_" x="-1.1" y="-0.1" width="113.4" height="113.4"/>
	</defs>
	<clipPath id="SVGID_2_">
		<use xlink:href="#SVGID_1_"  style="overflow:visible;"/>
	</clipPath>
</g>
<g>
	<path d="M57.2,10.3c15.3,0,17.1,0.1,23.1,0.3c5.6,0.3,8.6,1.2,10.6,2c2.7,1,4.6,2.3,6.6,4.3c2,2,3.2,3.9,4.3,6.6
		c0.8,2,1.7,5,2,10.6c0.3,6,0.3,7.8,0.3,23.1s-0.1,17.1-0.3,23.1c-0.3,5.6-1.2,8.6-2,10.6c-1,2.7-2.3,4.6-4.3,6.6
		c-2,2-3.9,3.2-6.6,4.3c-2,0.8-5,1.7-10.6,2c-6,0.3-7.8,0.3-23.1,0.3s-17.1-0.1-23.1-0.3c-5.6-0.3-8.6-1.2-10.6-2
		c-2.7-1-4.6-2.3-6.6-4.3c-2-2-3.2-3.9-4.3-6.6c-0.8-2-1.7-5-2-10.6c-0.3-6-0.3-7.8-0.3-23.1s0.1-17.1,0.3-23.1
		c0.3-5.6,1.2-8.6,2-10.6c1-2.7,2.3-4.6,4.3-6.6c2-2,3.9-3.2,6.6-4.3c2-0.8,5-1.7,10.6-2C40.1,10.4,41.9,10.3,57.2,10.3 M57.2,0
		C41.6,0,39.7,0.1,33.6,0.3C27.5,0.6,23.4,1.6,19.7,3C16,4.5,12.8,6.4,9.6,9.6C6.4,12.8,4.5,16,3,19.7c-1.4,3.6-2.4,7.8-2.7,13.9
		C0.1,39.7,0,41.6,0,57.2c0,15.5,0.1,17.5,0.3,23.6C0.6,86.8,1.6,91,3,94.6c1.5,3.8,3.4,6.9,6.6,10.1c3.2,3.2,6.4,5.1,10.1,6.6
		c3.6,1.4,7.8,2.4,13.9,2.7c6.1,0.3,8,0.3,23.6,0.3s17.5-0.1,23.6-0.3c6.1-0.3,10.2-1.2,13.9-2.7c3.8-1.5,6.9-3.4,10.1-6.6
		c3.2-3.2,5.1-6.4,6.6-10.1c1.4-3.6,2.4-7.8,2.7-13.9c0.3-6.1,0.3-8,0.3-23.6s-0.1-17.5-0.3-23.6c-0.3-6.1-1.2-10.2-2.7-13.9
		c-1.5-3.8-3.4-6.9-6.6-10.1c-3.2-3.2-6.4-5.1-10.1-6.6C91,1.6,86.8,0.6,80.7,0.3C74.6,0.1,72.7,0,57.2,0L57.2,0z"/>
	<path d="M57.2,27.8c-16.2,0-29.3,13.1-29.3,29.3s13.1,29.3,29.3,29.3s29.3-13.1,29.3-29.3S73.4,27.8,57.2,27.8z M57.2,76.2
		c-10.5,0-19.1-8.5-19.1-19.1s8.5-19.1,19.1-19.1c10.5,0,19.1,8.5,19.1,19.1S67.7,76.2,57.2,76.2z"/>
	<circle cx="87.7" cy="26.6" r="6.9"/>
</g>
</svg>
