<?xml version="1.0" encoding="utf-8"?>
<!-- Generator: Adobe Illustrator 16.0.0, SVG Export Plug-In . SVG Version: 6.00 Build 0)  -->
<!DOCTYPE svg PUBLIC "-//W3C//DTD SVG 1.1//EN" "http://www.w3.org/Graphics/SVG/1.1/DTD/svg11.dtd">
<svg version="1.1" id="Layer_1" xmlns="http://www.w3.org/2000/svg" xmlns:xlink="http://www.w3.org/1999/xlink" x="0px" y="0px"
	 width="345.729px" height="139.194px" viewBox="0 0 345.729 139.194" enable-background="new 0 0 345.729 139.194"
	 xml:space="preserve">
<g>
	<path d="M52.419,37.537c0.095,2.419-0.149,4.743-0.73,6.975c-0.299,1.086-0.552,2.146-0.763,3.181
		c-0.212,1.037-0.397,2.117-0.559,3.238l-0.43,3.644c-0.15,0.863-0.19,1.706-0.123,2.526c0.067,0.82,0.118,1.644,0.154,2.469
		c0.036,0.507,0.088,1.01,0.155,1.509c0.067,0.5,0.156,1.026,0.267,1.582c0.061,0.308,0.122,0.616,0.183,0.925
		c0.062,0.309,0.153,0.61,0.277,0.907c0.221,0.469,0.458,0.935,0.71,1.398s0.569,0.849,0.952,1.158
		c0.222,0.148,0.447,0.31,0.675,0.491c0.228,0.178,0.459,0.373,0.693,0.584c0.172,0.221,0.215,0.438,0.128,0.647
		c-0.148,0.222-0.352,0.326-0.61,0.314l-0.5-0.093c-0.531-0.087-1.002-0.202-1.415-0.345c-0.413-0.142-0.867-0.325-1.359-0.546
		c-0.334-0.064-0.636-0.21-0.906-0.446c-0.272-0.234-0.562-0.482-0.869-0.741c-0.629-0.582-1.105-1.208-1.431-1.88
		c-0.327-0.673-0.632-1.398-0.914-2.175l-0.036-0.185c-0.172-1.183-0.39-2.359-0.652-3.525c-0.266-1.165-0.378-2.296-0.339-3.396
		c0.076-1.554,0.184-3.019,0.329-4.394c0.143-1.375,0.32-2.82,0.533-4.338l1.229-6.4l-0.129-0.647
		c-0.024-0.123-0.075-0.21-0.148-0.26l-0.092,0.018l-0.593,0.407L43.92,43.17c-0.545,0.814-1.076,1.607-1.595,2.385
		c-0.519,0.776-0.983,1.59-1.391,2.44c-0.159,0.161-0.297,0.364-0.408,0.61c-0.111,0.248-0.24,0.481-0.389,0.703
		c-0.384,0.653-0.767,1.387-1.15,2.2c-0.383,0.814-0.773,1.678-1.169,2.589c-0.395,0.913-0.751,1.785-1.066,2.616
		c-0.316,0.833-0.597,1.595-0.845,2.285c-0.322,0.963-0.507,1.8-0.558,2.516c-0.149,0.543-0.329,0.93-0.538,1.164
		c-0.482,0.48-0.871,0.623-1.166,0.425c-0.802-0.162-1.418-0.36-1.85-0.595c-0.148-0.098-0.253-0.142-0.314-0.13
		c-0.604-0.135-1.055-0.383-1.35-0.742c-0.296-0.358-0.635-0.691-1.016-1c-0.468-0.42-0.659-0.895-0.572-1.425l-0.052-2.684
		c0.012-0.257,0.044-0.504,0.093-0.739c0.05-0.234,0.081-0.48,0.093-0.74l0.467-2.979c0.235-1.393,0.477-2.836,0.727-4.328
		c0.247-1.492,0.558-2.915,0.93-4.273c0.248-1.331,0.574-2.678,0.976-4.041c0.403-1.363,0.82-2.728,1.254-4.097l1.561-5.697
		c-0.037-0.186-0.141-0.228-0.315-0.13l-2.465,3.568l-0.314,0.351c-0.533,0.876-1.094,1.757-1.687,2.644
		c-0.594,0.887-1.15,1.8-1.669,2.737l-1.78,2.661c-0.42,0.79-0.843,1.563-1.27,2.321c-0.426,0.758-0.849,1.532-1.27,2.32
		c-0.223,0.495-0.427,0.919-0.611,1.276c-0.186,0.358-0.335,0.74-0.446,1.147c-0.161,0.481-0.323,0.881-0.483,1.202
		c-0.161,0.321-0.365,0.666-0.611,1.036c-0.136,0.283-0.279,0.535-0.427,0.757c-0.149,0.222-0.254,0.5-0.316,0.832
		c-0.346,1.161-0.804,2.246-1.373,3.255l-0.259,0.629l-0.707,2.256c-0.247,0.371-0.421,0.709-0.519,1.018
		c-0.099,0.307-0.21,0.634-0.334,0.979c-0.124,0.347-0.217,0.686-0.278,1.018c0.109,0.235,0.004,0.673-0.317,1.313
		c-0.26,0.629-0.498,1.286-0.714,1.97c-0.217,0.685-0.406,1.427-0.568,2.228c-0.187,0.679-0.402,1.364-0.649,2.053
		c-0.248,0.691-0.429,1.399-0.539,2.128l-1.599,5.992c-0.099,0.468-0.191,0.905-0.27,1.304c-0.081,0.401-0.203,0.843-0.362,1.323
		c-0.348,0.838-0.953,1.184-1.814,1.033l-0.907-0.204c-0.284-0.135-0.533-0.263-0.749-0.38c-0.216-0.119-0.288-0.312-0.213-0.584
		c-0.134-0.679-0.387-1.141-0.756-1.388c-0.174-0.224-0.265-0.365-0.277-0.427c-0.235-0.53-0.462-0.87-0.683-1.018
		c-0.223-0.148-0.352-0.476-0.388-0.981c-0.159-1.444-0.231-3.018-0.216-4.719c0.013-1.7,0.109-3.243,0.283-4.625l0.186-1.48
		c0.238-1.714,0.483-3.381,0.738-5.004c0.255-1.621,0.573-3.239,0.958-4.856c0.211-0.553,0.328-1.089,0.354-1.608
		c0.025-0.518,0.142-1.054,0.353-1.609c0.099-0.789,0.264-1.576,0.494-2.359c0.229-0.782,0.43-1.544,0.604-2.284
		c0.272-0.888,0.517-1.753,0.734-2.599c0.217-0.844,0.43-1.704,0.641-2.581l0.781-2.848c0.186-0.677,0.168-1.25-0.054-1.721
		c-0.086-0.109-0.099-0.332-0.036-0.666c0.297-0.443,0.518-1.096,0.669-1.96c-0.049-0.246,0.111-0.407,0.481-0.48l1.221-0.147
		l0.703,0.149l1.128,0.353c0.605,0.137,1.073,0.556,1.405,1.26c0.185,0.285,0.246,0.593,0.184,0.925l-0.317,1.795l-0.651,3.014
		c-0.099,0.47-0.207,0.893-0.325,1.268c-0.117,0.376-0.238,0.737-0.363,1.082c-0.47,1.183-0.808,2.388-1.012,3.615
		c-0.205,1.229-0.512,2.428-0.92,3.598c-0.347,1.16-0.617,2.303-0.809,3.43c-0.194,1.13-0.462,2.274-0.809,3.432
		c-0.138,0.927-0.295,1.903-0.475,2.932c-0.181,1.031-0.37,2.014-0.568,2.951l-0.076,1.554c0.135,0.038,0.222-0.011,0.259-0.148
		c0.036-0.135,0.05-0.234,0.037-0.296l1.652-4.753c0.334-0.899,0.66-1.766,0.975-2.598c0.316-0.832,0.646-1.668,0.993-2.506
		c0.556-1.073,0.983-2.151,1.28-3.237c0.383-0.653,0.705-1.294,0.965-1.922c0.26-0.629,0.556-1.232,0.89-1.813
		c0.049-0.072,0.143-0.252,0.279-0.536c0.136-0.282,0.28-0.6,0.436-0.952c0.154-0.351,0.327-0.691,0.519-1.017
		c0.19-0.327,0.367-0.569,0.528-0.73c-0.087,0.531-0.313,1.168-0.677,1.914c-0.366,0.746-0.597,1.193-0.696,1.341l-0.446,1.146
		l-0.167,0.61c0.259-0.307,0.445-0.585,0.556-0.832c0.111-0.246,0.21-0.474,0.297-0.684c0.542-0.492,0.883-1.041,1.02-1.646
		c0.321-0.64,0.636-1.312,0.946-2.015c0.308-0.701,0.692-1.355,1.149-1.959c0.061-0.013,0.055-0.043-0.018-0.093
		c0.828-1.319,1.569-2.588,2.225-3.809c0.655-1.219,1.396-2.49,2.225-3.809l1.797-2.57c0.333-0.578,0.658-1.204,0.975-1.876
		c0.314-0.671,0.75-1.222,1.306-1.655c0.074-0.269,0.166-0.449,0.278-0.536c0.79-1.182,1.519-2.192,2.187-3.031
		c0.666-0.838,1.432-1.823,2.297-2.958c0.162-0.159,0.371-0.474,0.631-0.943c0.259-0.468,0.291-0.714,0.093-0.74
		c-0.309,0.383-0.676,0.793-1.102,1.229c-0.427,0.438-0.85,0.89-1.269,1.358l-2.187,3.032c-0.1,0.149-0.31,0.463-0.63,0.944
		c-0.323,0.481-0.696,1.019-1.121,1.617c-0.427,0.599-0.829,1.159-1.206,1.682c-0.376,0.524-0.677,0.873-0.898,1.043
		c0.211-0.874,0.612-1.595,1.205-2.162c0.061-0.012,0.189-0.181,0.38-0.508s0.411-0.674,0.658-1.045
		c0.247-0.369,0.482-0.721,0.704-1.054c0.223-0.332,0.358-0.535,0.408-0.61c0.643-0.96,1.298-1.86,1.965-2.699
		c0.666-0.838,1.364-1.68,2.094-2.532l1.205-1.682c0.369-0.394,0.727-0.53,1.073-0.406c0.468,0.1,0.876,0.051,1.222-0.146
		c0.259-0.308,0.677-0.294,1.257,0.038c0.444,0.297,0.906,0.685,1.387,1.167c0.271,0.396,0.393,0.852,0.368,1.37l0.037,0.185
		l-1.543,5.789c-0.149,0.544-0.307,1.04-0.474,1.489c-0.167,0.451-0.293,0.941-0.381,1.471c-0.075,0.272-0.152,0.527-0.232,0.767
		c-0.081,0.242-0.152,0.527-0.213,0.86c-0.348,1.161-0.691,2.334-1.032,3.524c-0.34,1.19-0.653,2.358-0.939,3.505
		c-0.062,0.334-0.149,0.623-0.259,0.869c-0.112,0.248-0.235,0.513-0.371,0.795c-0.311,1.023-0.617,2.063-0.92,3.117
		c-0.304,1.055-0.536,2.143-0.698,3.265l-0.446,1.627l-0.019,0.87c-0.062,0.012-0.056,0.044,0.018,0.092l0.259-0.147l0.89-1.332
		c0.605-1.144,1.251-2.252,1.937-3.318c0.686-1.066,1.406-2.122,2.16-3.171c0.581-0.947,1.334-1.996,2.261-3.143l2.668-3.03
		c0.432-0.406,0.765-0.826,1-1.258c0.198-0.295,0.587-0.436,1.166-0.424c0.246-0.049,0.444-0.023,0.592,0.074
		c0.174-0.096,0.481-0.079,0.925,0.058c0.444,0.137,0.913,0.316,1.406,0.538c0.492,0.224,0.946,0.485,1.359,0.788
		c0.412,0.303,0.674,0.573,0.786,0.806L52.419,37.537z M9.648,62.87c0.086-0.85,0.177-1.685,0.271-2.507
		c0.093-0.818,0.252-1.636,0.475-2.45c0.024-0.197,0.04-0.36,0.047-0.49c0.006-0.129-0.053-0.342-0.175-0.639
		c-0.112,0.406-0.218,0.765-0.316,1.072c-0.1,0.309-0.216,0.606-0.353,0.888c-0.135,0.284-0.214,0.54-0.232,0.768
		c-0.019,0.229-0.029,0.504-0.028,0.823c0.072,1.333-0.14,2.528-0.634,3.589c-0.236,0.431-0.385,0.893-0.446,1.388
		c-0.063,0.493-0.044,0.986,0.054,1.479c0.037,0.186,0.098,0.334,0.185,0.444c0.024,0.124,0.067,0.18,0.129,0.167l0.148-0.221
		L9.648,62.87z M10.694,54.583c-0.136-0.036-0.201,0.04-0.194,0.23c0.004,0.192,0.021,0.35,0.045,0.472l0.019,0.093
		c0.012,0.062,0.048,0.087,0.11,0.074l0.075-0.11c-0.025-0.123-0.009-0.287,0.047-0.49C10.851,54.646,10.817,54.559,10.694,54.583
		 M11.867,48.386c-0.037,0.136-0.102,0.454-0.196,0.953c-0.092,0.499-0.208,1.051-0.344,1.655c-0.136,0.605-0.248,1.172-0.334,1.702
		c-0.088,0.532-0.125,0.827-0.113,0.888c0.049-0.072,0.155-0.351,0.315-0.832c0.161-0.48,0.294-1.021,0.4-1.618
		c0.106-0.599,0.22-1.151,0.345-1.656c0.123-0.506,0.173-0.82,0.149-0.944c-0.012-0.06-0.056-0.116-0.129-0.167L11.867,48.386z
		 M21.679,43.549c-0.062,0.012-0.086,0.051-0.074,0.111c0.012,0.063-0.013,0.099-0.074,0.111c-0.025-0.123-0.041-0.281-0.046-0.471
		c-0.006-0.192,0.04-0.36,0.14-0.509c0.37-0.714,0.75-1.383,1.14-2.006c0.389-0.622,0.762-1.321,1.122-2.099
		c0.06-0.012,0.216-0.284,0.463-0.813c0.247-0.53,0.482-0.881,0.705-1.055c-0.001,0.323-0.137,0.766-0.409,1.332
		c-0.271,0.569-0.427,0.919-0.464,1.055L21.679,43.549z M27.761,32.53c-0.099,0.469-0.403,1.041-0.908,1.719
		c-0.508,0.678-0.816,1.062-0.927,1.145c0.049-0.072,0.142-0.251,0.278-0.535c0.136-0.283,0.287-0.57,0.454-0.86
		c0.167-0.289,0.349-0.581,0.548-0.878C27.402,32.827,27.588,32.629,27.761,32.53 M31.607,49.944
		c0.149-0.862,0.273-1.528,0.373-1.997c0.099-0.468,0.222-1.134,0.372-1.998l1.227-4.957c0.037-0.135,0.12-0.44,0.251-0.916
		c0.13-0.473,0.195-0.871,0.196-1.192c-0.012-0.062-0.034-0.09-0.065-0.084c-0.032,0.007-0.052-0.022-0.064-0.083l-0.093,0.018
		c-0.136,0.285-0.334,0.74-0.594,1.368c-0.26,0.629-0.391,1.105-0.39,1.424c-0.014,0.58-0.174,1.062-0.483,1.444
		c-0.1,0.148-0.17,0.434-0.213,0.859c-0.045,0.427-0.16,0.817-0.345,1.175c-0.099,0.149-0.194,0.472-0.288,0.971
		c-0.092,0.5-0.179,1.031-0.26,1.59c-0.081,0.563-0.119,1.099-0.113,1.611c0.005,0.512,0.075,0.787,0.212,0.823L31.607,49.944z
		 M44.592,37.842c0.246-0.369,0.518-0.696,0.815-0.98c0.295-0.283,0.568-0.608,0.815-0.979c0.061-0.013,0.08-0.08,0.056-0.204
		c-0.024-0.122-0.149-0.098-0.37,0.073l-1.018,0.684c-0.73,0.851-1.446,1.682-2.15,2.495c-0.704,0.813-1.359,1.633-1.964,2.459
		l-0.019,0.388c0.073,0.05,0.117,0.106,0.129,0.167c0.161-0.16,0.306-0.317,0.435-0.471c0.13-0.154,0.244-0.304,0.344-0.454
		c0.457-0.603,0.907-1.157,1.352-1.664C43.461,38.854,43.986,38.348,44.592,37.842 M47.138,59.363
		c-0.012-0.061-0.081-0.081-0.204-0.056l-0.185,0.037c-0.026,0.519,0.059,0.95,0.257,1.295l0.111,0.074
		c0.061-0.012,0.117-0.054,0.167-0.129l0.093-0.5L47.138,59.363z M48.264,45.673c-0.185,0.036-0.284,0.104-0.296,0.203
		c-0.013,0.099-0.038,0.217-0.075,0.352c-0.148,0.221-0.269,0.502-0.361,0.84c-0.093,0.341-0.172,0.676-0.233,1.008
		c0.013,0.063-0.012,0.421-0.075,1.074c-0.063,0.654-0.087,1.012-0.075,1.073c-0.051,0.716-0.098,1.286-0.142,1.711
		c-0.044,0.427-0.077,0.818-0.103,1.174c-0.025,0.359-0.063,0.575-0.111,0.648c-0.1,0.149-0.158,0.416-0.177,0.805
		c-0.019,0.388-0.048,0.812-0.085,1.267c-0.039,0.457-0.048,0.892-0.029,1.304c0.018,0.415,0.045,0.713,0.082,0.898
		c0.024,0.124,0.098,0.173,0.222,0.149c0.06-0.013,0.116-0.056,0.167-0.13l0.073-0.111l0.001-0.481
		c-0.048-0.888-0.023-1.727,0.077-2.517c0.099-0.789,0.193-1.608,0.281-2.46c0.049-0.394,0.099-0.628,0.148-0.703
		c0.2-0.936,0.313-1.889,0.347-2.858c0.031-0.968,0.171-1.958,0.419-2.969L48.264,45.673z M48.525,44.083
		c0.099-0.147,0.13-0.314,0.093-0.5c0.061-0.012,0.055-0.042-0.018-0.093c-0.075-0.048-0.143-0.067-0.204-0.054l-0.184,0.036
		c-0.076,0.271-0.094,0.5-0.057,0.684l0.111,0.074C48.388,44.206,48.475,44.157,48.525,44.083"/>
	<path d="M61.812,41.249c0.148,0.1,0.472,0.195,0.971,0.288s0.822,0.19,0.971,0.288c0.358,0.186,0.425,0.444,0.203,0.778
		c-0.222,0.332-0.366,0.666-0.428,0.998c-0.024,0.197-0.115,0.552-0.269,1.063c-0.155,0.512-0.318,1.058-0.492,1.637
		c-0.173,0.58-0.339,1.125-0.492,1.638c-0.156,0.512-0.24,0.897-0.251,1.155c-0.063,0.335-0.141,0.67-0.233,1.008
		c-0.094,0.341-0.233,0.688-0.418,1.046c-0.223,0.493-0.383,0.973-0.482,1.441c-0.099,0.47-0.261,0.951-0.483,1.444
		c-0.1,0.148-0.13,0.314-0.093,0.499c-0.063,0.334-0.141,0.67-0.233,1.008c-0.093,0.339-0.2,0.682-0.325,1.026l-0.13,0.315
		c0.036,0.506-0.044,0.987-0.242,1.443c-0.197,0.457-0.34,0.95-0.427,1.479c-0.311,1.664-0.331,3.176-0.061,4.533
		c0.147,0.741,0.443,1.259,0.886,1.556l0.259,0.333c0.012,0.061-0.002,0.159-0.038,0.296c-0.038,0.135-0.118,0.216-0.241,0.24
		c-0.185,0.036-0.352,0.005-0.499-0.094c-1.061-0.173-1.808-0.698-2.237-1.575c-0.457-0.679-0.745-1.327-0.867-1.943l-0.276-1.388
		l-0.313-1.573l0.149-0.703c0.111-0.085,0.136-0.283,0.075-0.592c-0.099-0.173-0.099-0.332,0.001-0.482
		c0.098-0.146,0.142-0.251,0.129-0.314c-0.147-0.418-0.159-0.801-0.035-1.146c0.086-0.21,0.115-0.392,0.084-0.546
		c-0.031-0.154-0.004-0.336,0.084-0.546c0.024-0.518,0.112-0.888,0.26-1.111c0.086-0.209,0.099-0.387,0.038-0.536
		c-0.063-0.146-0.05-0.326,0.037-0.536c0.099-0.147,0.176-0.324,0.232-0.527c0.056-0.203,0.132-0.378,0.232-0.527
		c0.099-0.147,0.13-0.315,0.093-0.5c-0.111-0.233-0.091-0.622,0.057-1.166c0.161-0.479,0.276-0.951,0.345-1.414
		c0.067-0.462,0.182-0.934,0.343-1.415l0.669-2.923l0.763-2.941c0.124-0.345,0.389-0.621,0.797-0.831
		c0.531-0.233,0.955-0.35,1.276-0.351L61.812,41.249z M60.105,45.725c0.023-0.197,0.011-0.258-0.037-0.186
		c-0.05,0.075-0.124,0.186-0.223,0.333c-0.099,0.149-0.173,0.26-0.222,0.332c-0.05,0.076-0.032,0.007,0.055-0.203
		c0.062-0.332,0.205-0.665,0.427-0.998c0.223-0.333,0.358-0.696,0.408-1.092l-0.5,0.388c-0.049,0.075-0.25,0.676-0.603,1.804
		s-0.724,2.404-1.115,3.829c-0.39,1.424-0.716,2.852-0.976,4.281c-0.261,1.432-0.324,2.487-0.189,3.164
		c0.148,0.1,0.246,0.112,0.296,0.037c0.049-0.072,0.068-0.14,0.056-0.203c0.064-1.615,0.371-3.455,0.922-5.521
		C58.956,49.624,59.522,47.636,60.105,45.725 M62.263,34.811c-0.136-0.036-0.168-0.366-0.1-0.99
		c0.069-0.622,0.196-1.112,0.381-1.471l0.112-0.406c0.048-0.073,0.08-0.241,0.093-0.5c0.012-0.257,0.068-0.461,0.167-0.611
		c0.198-0.616,0.381-1.229,0.549-1.839c0.167-0.611,0.348-1.224,0.547-1.84c0.198-0.617,0.341-1.19,0.428-1.721
		c0.024-0.197,0.222-0.333,0.593-0.406l0.74-0.148c0.061-0.011,0.126-0.008,0.194,0.01c0.067,0.02,0.163,0.016,0.287-0.009
		c0.283,0.136,0.564,0.257,0.841,0.363c0.277,0.105,0.534,0.262,0.767,0.472l0.592,0.556c0.32,0.321,0.425,0.684,0.313,1.092
		c-0.149,0.543-0.353,0.968-0.612,1.275c-0.148,0.222-0.216,0.365-0.204,0.426c-0.112,0.406-0.278,0.776-0.501,1.109
		c-0.222,0.333-0.427,0.679-0.611,1.035c-0.124,0.347-0.229,0.543-0.316,0.592c-0.086,0.05-0.229,0.223-0.426,0.518
		c-0.1,0.148-0.22,0.269-0.361,0.36c-0.143,0.093-0.263,0.213-0.361,0.36c-0.186,0.359-0.385,0.654-0.594,0.888
		c-0.211,0.235-0.544,0.492-1,0.776c0.272-0.567,0.353-0.888,0.242-0.961c-0.111-0.075-0.296-0.039-0.556,0.11
		c-0.258,0.146-0.509,0.341-0.749,0.581C62.477,34.672,62.324,34.798,62.263,34.811 M65.195,28.265
		c0.124-0.345,0.229-0.702,0.316-1.073c0.086-0.368,0.161-0.72,0.224-1.054l-0.278,0.055c-0.148,0.221-0.298,0.604-0.446,1.146
		c-0.063,0.334-0.143,0.655-0.241,0.962c-0.1,0.309-0.211,0.636-0.335,0.981c-0.099,0.148-0.074,0.271,0.074,0.37l-0.074,0.11
		l0.093-0.018l-0.019-0.092c0.086-0.21,0.204-0.426,0.352-0.648C65.009,28.783,65.12,28.536,65.195,28.265"/>
	<path d="M82.519,38c-0.124,0.346-0.239,0.658-0.343,0.934c-0.106,0.278-0.184,0.614-0.233,1.008
		c-0.026,0.198-0.069,0.463-0.131,0.795c-0.062,0.334-0.173,0.58-0.333,0.741c-0.05,0.074-0.143,0.333-0.279,0.776
		c-0.137,0.445-0.279,0.937-0.427,1.479c-0.149,0.544-0.273,1.049-0.372,1.517c-0.099,0.469-0.131,0.796-0.094,0.981
		c0.036,0.506-0.058,1.086-0.28,1.739c-0.222,0.654-0.316,1.233-0.279,1.739c-0.422,2.072-0.678,4.015-0.766,5.826
		c-0.026,0.52-0.087,1.013-0.187,1.481c-0.099,0.467-0.192,0.967-0.279,1.499l0.2,2.941c-0.026,0.518,0.048,0.968,0.22,1.351
		c0.173,0.382,0.362,0.778,0.572,1.185c0.344,0.444,0.697,0.598,1.055,0.464c0.245-0.049,0.517,0.025,0.814,0.223
		c0.084,0.111,0.103,0.203,0.055,0.277c-0.148,0.223-0.254,0.339-0.315,0.352c-0.333,0.258-0.766,0.344-1.296,0.257
		c-0.469-0.099-0.898-0.239-1.286-0.417c-0.388-0.18-0.78-0.456-1.173-0.826c-0.247-0.272-0.482-0.562-0.702-0.87
		c-0.223-0.309-0.401-0.641-0.535-1c-0.062-0.309-0.173-0.624-0.332-0.943c-0.16-0.322-0.21-0.65-0.147-0.982
		c-0.148-0.419-0.181-1.151-0.099-2.192c0.081-1.042,0.14-1.791,0.178-2.248c0.024-0.197,0.054-0.458,0.084-0.786
		c0.032-0.326,0.023-0.613-0.026-0.86l0.15-1.666c-0.012-0.061-0.01-0.126,0.009-0.194c0.018-0.066,0.016-0.162-0.009-0.287
		c0.051-0.715,0.091-1.396,0.123-2.044c0.031-0.646,0.14-1.31,0.326-1.989c0.111-0.406,0.143-0.733,0.094-0.98
		c0.037-0.456,0.096-0.885,0.177-1.286c0.08-0.4,0.145-0.799,0.196-1.193c-0.012-0.061-0.093-0.141-0.24-0.241l-0.093,0.018
		c-0.099,0.15-0.214,0.3-0.342,0.453c-0.13,0.156-0.245,0.306-0.344,0.453c-0.334,0.581-0.63,1.183-0.89,1.812
		c-0.26,0.629-0.525,1.227-0.798,1.795c-0.359,0.777-0.668,1.56-0.927,2.348c-0.262,0.79-0.54,1.567-0.836,2.331l-1.281,3.716
		l-0.668,1.48c-0.087,0.21-0.368,0.65-0.843,1.322c-0.477,0.672-0.764,1.08-0.862,1.229c-0.101,0.147-0.322,0.319-0.667,0.517
		c-0.345,0.197-0.623,0.252-0.833,0.165c-0.346-0.123-0.678-0.265-0.998-0.426c-0.321-0.162-0.61-0.408-0.869-0.741
		c-0.259-0.334-0.5-0.655-0.72-0.963c-0.221-0.308-0.43-0.636-0.628-0.982c-0.098-0.172-0.178-0.412-0.24-0.721
		c-0.331-1.666-0.217-3.355,0.34-5.069c0.098-0.148,0.184-0.357,0.259-0.629c0.199-0.937,0.483-1.843,0.854-2.719
		c0.371-0.875,0.755-1.768,1.151-2.681c0.358-0.777,0.708-1.519,1.048-2.229c0.341-0.708,0.7-1.39,1.085-2.043l1.612-2.533
		c0.395-0.591,0.815-0.898,1.26-0.923c0.185-0.037,0.45-0.153,0.796-0.35l0.666-0.518c0.444-0.344,0.922-0.52,1.435-0.525
		c0.512-0.006,1.045,0.097,1.6,0.307c0.136,0.037,0.286,0.152,0.453,0.343c0.166,0.192,0.317,0.307,0.453,0.342
		c0.135,0.038,0.239,0.162,0.314,0.371c0.073,0.211,0.135,0.278,0.185,0.203c0.234-0.431,0.399-1.056,0.492-1.877
		c0.093-0.819,0.257-1.445,0.493-1.877c0.197-0.295,0.278-0.536,0.242-0.722c0.086-0.53,0.213-1.019,0.381-1.469
		c0.166-0.45,0.262-0.934,0.288-1.453c0.049-0.394,0.124-0.666,0.223-0.814c0.124-0.345,0.238-0.656,0.343-0.934
		c0.104-0.276,0.122-0.601,0.048-0.971c0.123-0.345,0.204-0.666,0.242-0.962c0.037-0.296,0.086-0.61,0.148-0.944
		c0.124-0.344,0.219-0.668,0.289-0.97c0.067-0.303,0.132-0.619,0.195-0.953l0.428-1.72l0.966-3.366l0.724-2.164
		c0.172-0.419,0.377-0.684,0.612-0.795c0.11-0.085,0.372-0.137,0.786-0.157c0.413-0.017,0.864-0.01,1.351,0.021
		c0.487,0.032,0.931,0.088,1.332,0.168c0.4,0.081,0.68,0.201,0.841,0.362l0.61,0.648c0.209,0.408,0.198,0.682-0.029,0.823
		c-0.229,0.143-0.436,0.393-0.621,0.749c-0.185,0.358-0.356,0.712-0.509,1.062c-0.156,0.353-0.258,0.725-0.307,1.121l0.037,0.184
		c-0.36,0.779-0.653,1.558-0.882,2.34c-0.229,0.783-0.455,1.581-0.678,2.395c-0.124,0.346-0.248,0.691-0.372,1.036
		c-0.123,0.345-0.205,0.747-0.242,1.202c-0.001,0.321-0.057,0.605-0.167,0.85c-0.112,0.248-0.199,0.538-0.26,0.871
		c-0.088,0.209-0.214,0.619-0.381,1.229s-0.354,1.289-0.558,2.035c-0.204,0.746-0.386,1.44-0.548,2.08
		C82.637,37.384,82.543,37.802,82.519,38 M65.476,55.333c0.223-1.134,0.52-2.219,0.891-3.255c0.372-1.035,0.774-2.077,1.207-3.125
		c0.928-2.429,2.269-4.716,4.023-6.86c-0.642,0.32-1.185,0.734-1.628,1.238c-0.446,0.506-0.866,1.054-1.261,1.645
		c-1.225,2.232-2.121,4.254-2.69,6.065c-0.57,1.814-0.942,3.25-1.116,4.31l0.074,0.371c0.012,0.061,0.039,0.121,0.083,0.175
		c0.043,0.056,0.071,0.116,0.083,0.176l0.148-0.222L65.476,55.333z M74.315,44.15c0.148-0.221,0.291-0.473,0.427-0.757
		c0.136-0.284,0.24-0.561,0.315-0.833l-0.407-0.111c-0.124,0.025-0.235,0.111-0.333,0.258c-0.333,0.259-0.683,0.521-1.047,0.785
		c-0.365,0.265-0.67,0.583-0.917,0.952c-0.494,0.74-0.943,1.471-1.343,2.191c-0.403,0.721-0.783,1.471-1.141,2.246l-1.985,4.531
		c-0.52,1.258-0.892,2.615-1.115,4.07c-0.089,0.209-0.01,0.434,0.23,0.675c0.24,0.241,0.347,0.46,0.323,0.658
		c0.037,0.184,0.086,0.27,0.148,0.258c0.122-0.024,0.209-0.073,0.258-0.147c0.248-0.369,0.448-0.73,0.603-1.082
		c0.155-0.351,0.318-0.737,0.492-1.155c0.482-1.122,0.946-2.175,1.392-3.163c0.444-0.986,0.908-2.04,1.391-3.163l0.798-1.793
		c0.308-0.701,0.609-1.451,0.9-2.247C73.594,45.529,73.931,44.804,74.315,44.15 M79.801,36.423c0.383-0.653,0.661-1.349,0.835-2.09
		c0.173-0.739,0.31-1.504,0.41-2.293c-0.037-0.185-0.142-0.389-0.314-0.611l-0.669,2.922c-0.063,0.335-0.106,0.679-0.132,1.037
		C79.907,35.746,79.863,36.091,79.801,36.423 M82.722,23.05c-0.78,2.208-1.381,4.507-1.803,6.898
		c0.098-0.146,0.216-0.282,0.352-0.406c0.135-0.123,0.252-0.257,0.352-0.406c0.321-0.961,0.61-1.933,0.864-2.913
		c0.254-0.98,0.505-1.977,0.753-2.988c0.098-0.147,0.129-0.314,0.093-0.499c-0.037-0.185-0.043-0.377-0.018-0.574
		C83.042,22.409,82.846,22.706,82.722,23.05 M83.909,20.794c-0.458,0.283-0.63,0.702-0.52,1.258
		C83.711,21.731,83.883,21.313,83.909,20.794"/>
	<path d="M106.078,32.644c0.629,0.582,1.022,1.273,1.182,2.074c0.049,0.248,0.107,0.782,0.174,1.601
		c0.067,0.82,0.093,1.361,0.081,1.619l0.037,0.185c-0.075,0.272-0.159,0.577-0.251,0.915c-0.093,0.341-0.201,0.682-0.325,1.027
		c-0.075,0.273-0.136,0.525-0.186,0.759c-0.049,0.234-0.112,0.487-0.186,0.758l-1.355,3.346l-1.057,2.423
		c-0.186,0.36-0.337,0.726-0.455,1.101c-0.118,0.377-0.306,0.719-0.565,1.025c-0.36,0.779-0.743,1.511-1.15,2.201
		c-0.408,0.692-0.829,1.399-1.261,2.126l-0.853,1.517c-0.445,0.665-1.019,1.164-1.722,1.496c-0.285,0.185-0.563,0.24-0.833,0.166
		c-0.444,0.024-0.908-0.046-1.388-0.205l-0.314-0.131c-0.309-0.26-0.632-0.515-0.97-0.768c-0.339-0.254-0.607-0.553-0.804-0.899
		c-0.258-0.333-0.484-0.658-0.675-0.972s-0.354-0.651-0.488-1.009c-0.025-0.123-0.137-0.358-0.332-0.703
		c-0.086-0.432-0.123-0.777-0.11-1.036c0.037-0.456,0.062-0.894,0.075-1.314c0.013-0.419,0.031-0.887,0.058-1.406l-0.111-0.074
		l-0.093,0.018c-0.174,0.419-0.371,0.795-0.594,1.128c-0.221,0.333-0.389,0.702-0.501,1.109c-0.135,0.285-0.414,0.66-0.833,1.128
		c-0.248,0.371-0.384,0.654-0.408,0.851c-0.087,0.531-0.305,1.055-0.65,1.571c-0.248,0.371-0.426,0.758-0.538,1.165
		c-0.087,0.531-0.232,1.009-0.436,1.434c-0.204,0.425-0.356,0.872-0.455,1.341c-0.199,0.295-0.316,0.51-0.353,0.647
		c-0.1,0.148-0.333,0.259-0.703,0.332c-0.075-0.05-0.157-0.065-0.25-0.047c-0.092,0.019-0.176,0.003-0.25-0.047
		c-0.359-0.185-0.693-0.342-1.007-0.472c-0.315-0.13-0.565-0.337-0.749-0.621l-0.037-0.185c-0.702-0.63-1.078-1.069-1.127-1.315
		c-0.049-0.247-0.108-0.715-0.183-1.407c-0.012-0.06-0.002-0.336,0.029-0.823c0.03-0.486,0.068-1.023,0.113-1.609
		c0.042-0.585,0.099-1.11,0.168-1.572c0.068-0.462,0.127-0.731,0.177-0.805c0.048-0.073,0.076,0.066,0.083,0.416
		c0.005,0.352,0.002,0.738-0.011,1.156c-0.013,0.421-0.021,0.791-0.02,1.11c-0.001,0.323,0.048,0.409,0.148,0.26
		c0.086-0.21,0.127-0.49,0.121-0.842c-0.006-0.35,0.022-0.692,0.084-1.027c0.051-0.715,0.154-1.408,0.309-2.081
		c0.155-0.671,0.324-1.347,0.511-2.025c0.048-0.073,0.027-0.02-0.065,0.157c-0.093,0.18-0.183,0.373-0.269,0.583
		c-0.088,0.21-0.193,0.407-0.316,0.591c-0.124,0.185-0.229,0.223-0.314,0.111c-0.012-0.061,0.049-0.313,0.185-0.759
		c0.137-0.443,0.199-0.695,0.187-0.758c0.222-0.492,0.362-1.001,0.417-1.526c0.056-0.523,0.135-1.019,0.234-1.489
		c0.086-0.209,0.185-0.518,0.297-0.925c0.112-0.407,0.149-0.702,0.112-0.888c-0.024-0.123,0.025-0.356,0.149-0.703
		c0.124-0.345,0.198-0.616,0.223-0.813c0.062-0.333,0.123-0.665,0.187-0.999c0.061-0.332,0.123-0.664,0.186-0.999l0.613-2.239
		l0.315-0.831c0.136-0.604,0.556-0.912,1.26-0.924c0.703-0.01,1.318,0.027,1.85,0.114c0.135,0.037,0.351,0.155,0.647,0.351
		c0.16,0.161,0.215,0.28,0.166,0.353c0.011,0.382-0.035,0.632-0.14,0.749c-0.106,0.117-0.182,0.373-0.232,0.767
		c-0.162,0.802-0.369,1.613-0.622,2.432c-0.255,0.82-0.525,1.644-0.809,2.469c-0.173,0.42-0.273,0.728-0.296,0.926l-0.243,1.202
		c-0.099,0.469-0.236,0.913-0.408,1.331c-0.174,0.419-0.304,0.894-0.39,1.425c0.024,0.124-0.014,0.259-0.112,0.406
		c-0.236,0.432-0.39,0.864-0.465,1.295c-0.074,0.432-0.13,0.877-0.168,1.332c-0.149,0.543-0.252,1.076-0.307,1.599
		c-0.056,0.526-0.159,1.059-0.307,1.601c-0.099,0.149-0.043,0.266,0.166,0.352c0.149-0.222,0.278-0.455,0.39-0.704
		c0.11-0.245,0.235-0.51,0.37-0.794c0.223-0.492,0.448-0.97,0.678-1.433c0.228-0.462,0.491-0.915,0.788-1.358
		c0.16-0.161,0.283-0.346,0.37-0.556c0.087-0.209,0.173-0.419,0.26-0.629c0.285-0.504,0.593-0.967,0.927-1.386
		c0.333-0.418,0.605-0.905,0.816-1.461c0.297-0.443,0.561-0.719,0.797-0.831c0.172-0.42,0.352-0.806,0.538-1.166
		c0.184-0.356,0.439-0.695,0.76-1.015c0.098-0.149,0.196-0.295,0.295-0.445c0.1-0.147,0.198-0.295,0.298-0.443l0.333-0.74
		c0.272-0.887,0.693-1.516,1.261-1.886c0.061-0.012,0.267,0.06,0.619,0.214c0.352,0.155,0.703,0.389,1.054,0.704
		s0.64,0.724,0.869,1.223c0.226,0.5,0.211,1.064-0.049,1.693c-0.359,1.097-0.719,2.354-1.078,3.772l-0.668,1.961l-0.185,0.518
		c-0.04,0.457-0.11,0.903-0.215,1.341c-0.105,0.439-0.171,0.917-0.197,1.433c-0.012,0.902,0.165,1.795,0.534,2.684
		c0.012,0.06,0.079,0.081,0.204,0.056c0.308-0.383,0.604-0.746,0.889-1.091c0.283-0.345,0.543-0.734,0.778-1.164
		c0.383-0.654,0.755-1.288,1.113-1.905c0.358-0.615,0.686-1.305,0.983-2.071c0.395-0.591,0.747-1.238,1.057-1.941
		c0.308-0.702,0.654-1.381,1.039-2.034c0.272-0.567,0.528-1.13,0.77-1.693c0.24-0.559,0.465-1.117,0.677-1.673l0.352-1.128
		l-0.074,0.111c0.074-0.271,0.152-0.526,0.233-0.768c0.08-0.24,0.157-0.495,0.232-0.767c0.062-0.332,0.106-0.678,0.131-1.037
		c0.025-0.356,0.1-0.708,0.223-1.054c0.025-0.518,0.053-1.02,0.085-1.507c0.031-0.487-0.063-0.965-0.285-1.435
		c-0.235-0.53-0.517-0.826-0.85-0.889c-0.271-0.074-0.499-0.093-0.684-0.056c-0.113,0.087-0.26,0.147-0.445,0.185
		c-0.247,0.048-0.4-0.08-0.462-0.39c-0.037-0.185,0.019-0.388,0.167-0.61c0.605-0.505,1.296-0.578,2.073-0.219
		C104.92,31.497,105.499,31.99,106.078,32.644 M84.755,55.061c-0.012-0.06-0.004-0.095,0.028-0.101
		c0.03-0.006,0.04-0.039,0.028-0.102l-0.074-0.37l-0.111,0.407L84.755,55.061z M85.204,51.51c0.099-0.468,0.204-0.907,0.316-1.314
		c0.111-0.406,0.185-0.837,0.224-1.295l0.334-1.701c0.223-0.492,0.365-0.986,0.428-1.48c0.061-0.493,0.197-1.016,0.408-1.572
		l0.057-0.684c-0.012-0.061-0.034-0.09-0.064-0.083c-0.032,0.005-0.053-0.022-0.065-0.084l-0.093,0.018l-0.148,0.222
		c-0.174,0.419-0.301,0.83-0.38,1.23c-0.082,0.401-0.215,0.781-0.4,1.137l-0.167,0.61l-0.355,2.091l-0.186,0.999
		c-0.422,1.431-0.521,3.023-0.302,4.773c-0.011-0.061,0.018-0.228,0.094-0.499L85.204,51.51z M86.936,42.316
		c0.024,0.125,0.066,0.179,0.128,0.167l0.093-0.018l0.279-1.018c0.049-0.072,0.049-0.154,0-0.24
		c-0.05-0.086-0.106-0.123-0.166-0.112l-0.149,0.222l-0.148,0.703l0.018,0.093c0.012,0.062,0.003,0.096-0.027,0.102
		C86.932,42.221,86.924,42.256,86.936,42.316 M88.664,51.014c0.049,0.247,0.11,0.236,0.185-0.036l0.223-0.333
		c-0.112,0.086-0.229,0.142-0.352,0.166c0.012,0.062,0.002,0.096-0.028,0.102C88.66,50.919,88.652,50.954,88.664,51.014
		 M89.072,50.645c0.419-0.468,0.623-0.893,0.611-1.276c-0.172,0.099-0.346,0.357-0.519,0.776c-0.049,0.075-0.067,0.143-0.055,0.204
		C89.121,50.411,89.108,50.51,89.072,50.645 M89.665,49.276c0.234-0.109,0.388-0.301,0.463-0.572
		C89.882,48.753,89.727,48.944,89.665,49.276 M90.48,48.056c0.06-0.011,0.089-0.033,0.083-0.064
		c-0.006-0.031-0.041-0.04-0.101-0.028c-0.025-0.122-0.087-0.111-0.185,0.037c-0.1,0.148-0.124,0.345-0.076,0.592
		C90.375,48.495,90.468,48.316,90.48,48.056 M93.133,43.49c-0.137-0.037-0.229-0.019-0.279,0.055
		c-0.099,0.149-0.157,0.256-0.175,0.323c-0.02,0.068-0.084,0.145-0.195,0.231c-0.099,0.149-0.273,0.247-0.518,0.296
		c0.036,0.185,0.017,0.413-0.057,0.685l-0.371,0.554c-0.099,0.149-0.208,0.33-0.324,0.545c-0.118,0.216-0.214,0.46-0.288,0.731
		c-0.099,0.149-0.087,0.209,0.037,0.184l0.278-0.054l1.816-2.958c-0.012-0.062,0.031-0.166,0.13-0.315L93.133,43.49z M93.771,50.577
		c-0.012-0.062-0.037-0.105-0.074-0.13c-0.037-0.024-0.061-0.067-0.074-0.13c-0.049,0.074-0.065,0.157-0.046,0.25
		c0.018,0.093,0.058,0.133,0.12,0.121L93.771,50.577z M104.81,41.265c0.247-0.37,0.328-0.77,0.242-1.202
		c-0.396,0.271-0.735,0.659-1.019,1.164c-0.26,0.629-0.536,1.261-0.826,1.896c-0.292,0.635-0.56,1.298-0.807,1.987l-0.149,0.223
		c-0.272,0.246-0.457,0.523-0.556,0.831c-0.099,0.308-0.18,0.63-0.241,0.962c-0.063,0.335-0.167,0.61-0.315,0.833l-0.576,0.979
		c-0.087,0.21-0.16,0.402-0.222,0.573c-0.062,0.173-0.143,0.333-0.242,0.482c0.148,0.1,0.247,0.111,0.297,0.036l0.723-1.201
		c0.444-0.666,0.846-1.386,1.205-2.163c0.333-0.579,0.633-1.168,0.899-1.766c0.267-0.598,0.536-1.18,0.807-1.748L104.81,41.265z
		 M105.515,39.489c0.074-0.592,0.198-1.256,0.372-1.997l0.28-1.98l-0.037-0.184l-0.276-0.427c-0.026,0.52-0.11,1.145-0.252,1.878
		c-0.143,0.734-0.32,1.379-0.53,1.934c-0.075,0.271-0.125,0.505-0.149,0.702c-0.025,0.197,0.018,0.414,0.129,0.648
		c0.11-0.086,0.191-0.166,0.24-0.24L105.515,39.489z"/>
	<path d="M122.42,43.247c-0.308,0.383-0.596,0.792-0.861,1.23c-0.266,0.437-0.51,0.903-0.732,1.395l-0.205,0.426
		c-0.457,0.605-0.89,1.172-1.297,1.7c-0.408,0.531-0.89,1.011-1.445,1.442c-0.482,0.48-1.013,0.875-1.593,1.181
		c-0.285,0.186-0.703,0.333-1.258,0.444c-0.642-0.002-1.16-0.027-1.554-0.076l-0.407-0.112c-0.359-0.185-0.691-0.329-0.999-0.426
		c-0.308-0.098-0.635-0.211-0.98-0.334c-0.629-0.261-1.183-0.791-1.663-1.594l-0.462-0.87c-0.258-0.333-0.43-0.716-0.516-1.148
		c-0.259-0.653-0.385-1.285-0.377-1.897c0.006-0.61,0.066-1.279,0.178-2.007c0.024-0.197,0.062-0.412,0.111-0.648
		c0.051-0.233,0.087-0.45,0.113-0.647c0.011-0.258,0.031-0.487,0.056-0.685c0.198-0.936,0.532-1.837,1.002-2.7
		c0.469-0.862,0.976-1.7,1.521-2.514c0.172-0.419,0.486-0.77,0.944-1.053c0.197-0.295,0.565-0.705,1.103-1.23
		c0.536-0.523,1.107-1.037,1.713-1.543c0.605-0.505,1.188-0.957,1.75-1.357c0.561-0.399,0.941-0.587,1.139-0.563
		c0.185-0.037,0.314-0.03,0.388,0.019c0.271,0.075,0.576,0.159,0.916,0.251c0.339,0.094,0.614,0.183,0.823,0.27l0.702,0.629
		l0.517,1.148c0.073,0.05,0.117,0.105,0.129,0.166c0.012,0.062,0.061,0.149,0.148,0.26c0.246,0.272,0.375,0.598,0.387,0.981
		c0.012,0.062-0.019,0.229-0.093,0.499c-0.076,0.272-0.146,0.558-0.214,0.86c-0.069,0.302-0.153,0.608-0.251,0.916
		c-0.099,0.308-0.142,0.494-0.13,0.555c-0.099,0.469-0.282,0.842-0.547,1.118c-0.266,0.279-0.498,0.566-0.695,0.86
		c-0.421,0.468-0.742,0.789-0.963,0.961c-0.112,0.087-0.309,0.222-0.593,0.406c-0.285,0.185-0.565,0.386-0.842,0.6
		c-0.279,0.216-0.556,0.432-0.834,0.647c-0.279,0.216-0.503,0.373-0.676,0.471c-0.234,0.111-0.638,0.256-1.212,0.433
		c-0.575,0.179-0.929,0.249-1.064,0.212c-0.334-0.061-0.556-0.131-0.666-0.205c-0.111-0.074-0.321-0.08-0.629-0.019
		c-0.062,0.012-0.204,0.105-0.426,0.277c0.012,0.062-0.013,0.1-0.074,0.111c-0.26,0.629-0.505,1.255-0.733,1.877
		c-0.23,0.623-0.339,1.286-0.326,1.988c-0.051,0.395-0.041,0.763,0.026,1.102c0.067,0.34,0.175,0.72,0.323,1.138
		c0.195,0.345,0.466,0.581,0.813,0.704c0.27,0.076,0.527,0.073,0.767-0.008c0.24-0.079,0.467-0.077,0.676,0.01
		c0.135,0.038,0.215,0.038,0.24,0c0.025-0.036,0.098-0.068,0.223-0.092c0.579-0.308,1.137-0.643,1.675-1.007
		c0.537-0.361,1.046-0.785,1.528-1.265c0.58-0.627,1.152-1.222,1.713-1.784c0.563-0.559,1.133-1.153,1.715-1.783
		c0.197-0.295,0.42-0.548,0.666-0.758c0.247-0.208,0.439-0.455,0.575-0.739l0.426-0.758l0.686-1.386
		c0.099-0.148,0.242-0.241,0.427-0.278c0.184-0.037,0.332-0.097,0.444-0.184l0.092-0.019c0.086,0.113,0.104,0.205,0.055,0.278
		l-0.426,0.758l-0.223,0.332l0.037,0.186c0.025,0.124,0.086,0.112,0.186-0.037c0.048-0.073,0.166-0.129,0.351-0.166
		s0.204,0.055,0.055,0.278C123.422,41.509,122.964,42.434,122.42,43.247 M109.603,40.697c0.061-0.332,0.176-0.644,0.343-0.934
		c0.167-0.289,0.313-0.606,0.436-0.952c0.222-0.492,0.464-0.973,0.723-1.443c0.259-0.467,0.532-0.955,0.816-1.46
		c0.037-0.135,0.155-0.351,0.353-0.648c-0.012-0.06,0.033-0.15,0.139-0.267c0.104-0.118,0.145-0.237,0.121-0.362
		c-0.05,0.075-0.137,0.124-0.26,0.149c-0.124,0.024-0.178,0.068-0.166,0.129c-0.939,1.085-1.674,2.225-2.206,3.42
		c-0.532,1.197-0.966,2.565-1.301,4.106c0.062-0.013,0.074,0.129,0.037,0.426c-0.038,0.296-0.026,0.437,0.036,0.425
		c0.013,0.062,0.055-0.043,0.131-0.315c0.036-0.135,0.08-0.239,0.129-0.313L109.603,40.697z M114.825,36.965
		c-0.273,0.247-0.504,0.534-0.695,0.861c-0.192,0.326-0.417,0.644-0.676,0.952c-0.075,0.271-0.186,0.517-0.334,0.739
		c-0.148,0.222-0.267,0.437-0.353,0.647l0.019,0.093c0.024,0.124,0.097,0.172,0.222,0.148c0.615-0.122,1.221-0.466,1.814-1.035
		c0.209-0.233,0.423-0.452,0.639-0.655c0.216-0.202,0.465-0.396,0.75-0.582l1.02-1.645c0.16-0.16,0.278-0.296,0.352-0.407
		c0.074-0.111,0.227-0.381,0.463-0.814c0.371-0.713,0.624-1.374,0.762-1.979l-0.074-0.37c-0.149-0.098-0.302-0.067-0.463,0.092
		c-0.112,0.087-0.198,0.136-0.259,0.149c-0.062,0.011-0.118,0.055-0.166,0.128c-0.199,0.296-0.406,0.547-0.621,0.749
		c-0.217,0.204-0.461,0.428-0.732,0.674c-0.272,0.246-0.526,0.586-0.76,1.017C115.521,36.284,115.219,36.695,114.825,36.965
		 M119.735,45.224c-0.149-0.099-0.247-0.11-0.296-0.038l-0.611,0.795l0.018,0.093c0.013,0.062,0.049,0.086,0.111,0.074
		L119.735,45.224z M120.273,44.539c0.346-0.196,0.493-0.418,0.445-0.665l-0.593,0.407c-0.1,0.149-0.081,0.242,0.056,0.277
		L120.273,44.539z M120.811,43.856c0.296-0.122,0.519-0.296,0.667-0.517c0.148-0.222,0.265-0.438,0.352-0.647l-0.037-0.186
		l-0.092,0.019c-0.16,0.161-0.318,0.337-0.473,0.526c-0.153,0.191-0.281,0.361-0.379,0.509
		C120.799,43.634,120.787,43.733,120.811,43.856 M122.517,41.305c-0.223,0.173-0.315,0.351-0.279,0.536l0.112,0.074
		c0.185-0.037,0.313-0.19,0.388-0.463l-0.111-0.073C122.615,41.318,122.577,41.292,122.517,41.305"/>
	<path d="M135.727,25.502c0.728,0.112,1.017,0.6,0.868,1.463c-0.037,0.136-0.069,0.222-0.093,0.258
		c-0.026,0.038-0.057,0.124-0.092,0.259c-0.199,0.297-0.351,0.584-0.455,0.861c-0.105,0.277-0.226,0.558-0.361,0.84
		c-0.1,0.47-0.237,0.913-0.41,1.331c-0.173,0.42-0.347,0.839-0.519,1.259c-0.31,0.703-0.483,1.443-0.521,2.219
		c-0.037,0.137-0.049,0.235-0.037,0.297c0.013,0.061-0.007,0.13-0.056,0.203c-0.125,0.987,0.083,2.036,0.625,3.146
		c0.037,0.185,0.148,0.259,0.333,0.222c0.271,0.075,0.438,0.106,0.5,0.094c0.332,0.062,0.425,0.203,0.277,0.426
		c0.048,0.247-0.051,0.394-0.297,0.443c-0.555,0.11-0.976,0.098-1.258-0.038c-0.149-0.099-0.29-0.166-0.425-0.205
		c-0.137-0.035-0.278-0.104-0.426-0.203c-0.346-0.124-0.617-0.278-0.813-0.464c-0.197-0.185-0.388-0.419-0.573-0.704
		c-0.185-0.283-0.4-0.721-0.646-1.315c-0.247-0.591-0.375-1.079-0.387-1.462c0.024-0.197-0.009-0.366-0.101-0.508
		c-0.093-0.141-0.158-0.145-0.195-0.01c-0.333,0.581-0.661,1.11-0.981,1.59c-0.323,0.482-0.588,0.999-0.798,1.553
		c-0.123,0.346-0.236,0.672-0.334,0.981c-0.1,0.308-0.211,0.635-0.335,0.98c0.013,0.062,0.009,0.127-0.009,0.194
		c-0.02,0.068-0.022,0.133-0.01,0.194l0.239,1.203c0.086,0.432,0.283,0.778,0.592,1.037c0.209,0.087,0.425,0.203,0.647,0.352
		c0.221,0.148,0.443,0.297,0.665,0.445c1.085,0.618,1.959,1.311,2.625,2.075c0.085,0.113,0.153,0.21,0.203,0.296
		c0.049,0.087,0.147,0.181,0.295,0.279c0.53,0.409,0.887,1.074,1.071,2c0.11,0.554,0.018,1.053-0.279,1.498
		c-0.222,0.171-0.359,0.294-0.407,0.369c-0.446,0.343-0.883,0.639-1.315,0.886c-0.433,0.247-0.89,0.45-1.37,0.61
		c-0.47,0.221-0.964,0.398-1.481,0.534c-0.519,0.135-1.049,0.288-1.591,0.461c-0.174,0.098-0.371,0.153-0.593,0.166
		c-0.223,0.012-0.426,0.036-0.61,0.073l-0.741,0.147c-0.605,0.183-1.214,0.256-1.832,0.219c-0.616-0.038-1.215-0.062-1.795-0.075
		c-0.332-0.063-0.618-0.135-0.859-0.214c-0.241-0.082-0.497-0.159-0.768-0.232c-0.073-0.051-0.123-0.137-0.148-0.26l0.075-0.11
		c0.506-0.038,0.952-0.127,1.341-0.267c0.39-0.142,0.842-0.2,1.36-0.174c0.247-0.049,0.475-0.111,0.685-0.184
		c0.211-0.075,0.427-0.197,0.648-0.369c0.173-0.1,0.358-0.136,0.556-0.111c0.567-0.05,1.19-0.301,1.869-0.757
		c0.283-0.185,0.524-0.344,0.722-0.48c0.197-0.135,0.443-0.265,0.74-0.387c0.186-0.037,0.377-0.204,0.574-0.499
		c-0.074-0.05-0.202-0.055-0.388-0.018c-0.568,0.368-1.068,0.596-1.499,0.681l-0.278,0.056l-0.222-0.148l0.056-0.204
		c0.173-0.099,0.369-0.234,0.593-0.406c0.406-0.21,0.685-0.425,0.833-0.646l-0.185,0.036c-0.408,0.209-0.819,0.403-1.231,0.581
		c-0.414,0.179-0.819,0.403-1.213,0.675l-0.463,0.091l-0.203-0.055c-0.075-0.05-0.036-0.186,0.111-0.407
		c0.061-0.013,0.104-0.038,0.13-0.075c0.024-0.038,0.068-0.06,0.13-0.073c0.493-0.098,0.94-0.268,1.342-0.508
		c0.4-0.238,0.835-0.468,1.305-0.691c0.161-0.16,0.345-0.276,0.555-0.352c0.21-0.073,0.401-0.159,0.575-0.258
		c0.456-0.283,0.894-0.659,1.314-1.126c0.099-0.148,0.105-0.277,0.019-0.389c-0.296-0.197-0.573-0.382-0.832-0.556
		c-0.26-0.173-0.53-0.328-0.813-0.464c-0.234-0.21-0.462-0.389-0.685-0.537c-0.221-0.149-0.449-0.327-0.683-0.538
		c-0.321-0.321-0.592-0.636-0.813-0.944c-0.222-0.308-0.407-0.672-0.554-1.093c-0.024-0.123-0.136-0.357-0.332-0.703
		c-0.48-0.802-0.683-1.82-0.607-3.054c0.062-0.332,0.115-0.632,0.159-0.896c0.043-0.265,0.101-0.533,0.176-0.806
		c0.533-1.837,1.331-3.47,2.393-4.9c0.358-0.455,0.689-0.889,0.992-1.303c0.303-0.412,0.632-0.847,0.991-1.303
		c0.098-0.147,0.229-0.301,0.389-0.462c0.16-0.16,0.321-0.32,0.482-0.481c0.395-0.591,0.962-0.8,1.703-0.626
		c0.135,0.037,0.317,0.065,0.545,0.083c0.228,0.02,0.367-0.008,0.417-0.083c0.098-0.147,0.238-0.254,0.416-0.322
		c0.18-0.068,0.356-0.151,0.528-0.249c0.346-0.198,0.598-0.216,0.759-0.055C135.413,25.372,135.579,25.403,135.727,25.502
		 M122.506,49.483c-0.06,0.012-0.099-0.014-0.111-0.074l-0.019-0.093c0.471-0.222,0.93-0.41,1.38-0.562
		c0.45-0.155,0.738-0.244,0.86-0.268c0.271,0.074,0.204,0.215-0.203,0.426c-0.124,0.024-0.441,0.119-0.954,0.285
		C122.948,49.362,122.63,49.458,122.506,49.483 M124.745,49.615c-0.371,0.073-0.562,0.079-0.574,0.018
		c-0.012-0.062,0.136-0.123,0.445-0.185c0.308-0.062,0.486-0.13,0.536-0.202c-0.012-0.063,0.042-0.105,0.167-0.13
		c0.061-0.012,0.095-0.004,0.101,0.028c0.006,0.031,0.04,0.04,0.102,0.029l0.037,0.184c-0.062,0.012-0.105,0.036-0.13,0.073
		c-0.025,0.038-0.068,0.063-0.129,0.075L124.745,49.615z M129.728,29.677c-0.137-0.038-0.229-0.019-0.278,0.054
		c-0.1,0.15-0.158,0.257-0.177,0.323c-0.019,0.069-0.083,0.146-0.194,0.232c-0.099,0.148-0.272,0.247-0.518,0.296
		c0.037,0.184,0.018,0.413-0.057,0.683l-0.37,0.555c-0.1,0.149-0.208,0.33-0.325,0.546c-0.118,0.215-0.213,0.46-0.288,0.73
		c-0.099,0.149-0.087,0.209,0.037,0.185l0.278-0.056c0.284-0.504,0.583-1.012,0.899-1.524c0.315-0.511,0.615-1.02,0.899-1.525
		l0.149-0.222L129.728,29.677z M132.163,35.156c-0.208-1.049-0.282-1.82-0.219-2.313c0.061-0.494,0.112-0.807,0.149-0.944
		c-0.025-0.123-0.104-0.042-0.241,0.24c-0.136,0.285-0.223,0.494-0.259,0.629c-0.038,0.137-0.033,0.488,0.017,1.055
		c0.048,0.567,0.17,1.023,0.368,1.369l0.111,0.074L132.163,35.156z"/>
	<path d="M164.81,12.122c0.024,0.125,0.079,0.241,0.166,0.353c0.085,0.112,0.049,0.247-0.111,0.406
		c-0.1,0.149-0.322,0.16-0.667,0.036c-0.678-0.184-1.422-0.294-2.229-0.326c-0.809-0.031-1.587-0.005-2.34,0.08
		c-0.371,0.074-0.686,0.105-0.944,0.092c-0.125,0.024-0.226-0.003-0.305-0.084c-0.081-0.08-0.195-0.169-0.343-0.269
		c-0.246,0.049-0.481,0.081-0.702,0.092c-0.223,0.013-0.458,0.043-0.703,0.092c-0.31,0.061-0.738,0.163-1.287,0.304
		s-1.098,0.282-1.647,0.423c-0.549,0.142-1.041,0.255-1.472,0.34c-0.432,0.086-0.679,0.136-0.739,0.148
		c-0.433,0.086-0.735,0.178-0.908,0.276c-0.284,0.186-0.59,0.343-0.916,0.471c-0.328,0.13-0.651,0.193-0.971,0.193
		c-0.322,0.001-0.627,0.076-0.917,0.23c-0.291,0.154-0.596,0.231-0.916,0.23c-0.124,0.025-0.21,0.075-0.26,0.148
		c-0.099,0.149-0.25,0.275-0.453,0.378c-0.205,0.106-0.355,0.232-0.454,0.379c0.222,0.149,0.414,0.144,0.574-0.017
		c0.469-0.222,0.949-0.381,1.444-0.48c0.493-0.098,0.974-0.257,1.443-0.479c0.469-0.221,0.916-0.39,1.342-0.507
		c0.426-0.116,0.842-0.279,1.249-0.489c0.186-0.037,0.352-0.084,0.501-0.148c0.147-0.06,0.327-0.049,0.537,0.038l-0.149,0.222
		c-0.42,0.148-0.824,0.293-1.213,0.434c-0.389,0.141-0.8,0.255-1.231,0.34c-0.297,0.124-0.562,0.241-0.795,0.351
		c-0.235,0.111-0.501,0.229-0.797,0.351c-0.469,0.222-0.857,0.362-1.166,0.423c-0.172,0.099-0.367,0.169-0.583,0.212
		c-0.217,0.043-0.41,0.115-0.583,0.212c-0.592,0.247-0.922,0.441-0.99,0.582c-0.068,0.143-0.178,0.485-0.325,1.027
		c-0.076,0.271-0.156,0.511-0.242,0.721c-0.087,0.209-0.099,0.469-0.038,0.777c-0.037,0.136-0.078,0.257-0.12,0.361
		c-0.044,0.105-0.085,0.226-0.121,0.36c-0.087,0.21-0.161,0.402-0.223,0.574c-0.062,0.173-0.1,0.389-0.111,0.647
		c0.037,0.185-0.058,0.364-0.279,0.536c-0.148,0.222-0.179,0.389-0.093,0.5c0.062,0.31,0.024,0.605-0.112,0.888
		c-0.124,0.346-0.25,0.675-0.38,0.989c-0.131,0.315-0.164,0.626-0.103,0.934c-0.026,0.198-0.072,0.447-0.14,0.75
		c-0.069,0.302-0.152,0.527-0.25,0.675c-0.1,0.468-0.205,0.906-0.316,1.313c-0.112,0.406-0.224,0.814-0.335,1.221
		c-0.063,0.334-0.11,0.583-0.14,0.749c-0.031,0.167-0.115,0.392-0.25,0.675c-0.112,0.087-0.208,0.49-0.289,1.212
		c-0.082,0.722-0.183,1.254-0.307,1.599c-0.173,0.42-0.205,0.747-0.094,0.981c-0.087,0.531-0.138,1.086-0.15,1.665
		c-0.013,0.58-0.119,1.177-0.317,1.794c-0.074,0.272-0.118,0.538-0.13,0.795c-0.013,0.26-0.02,0.55-0.02,0.87
		c0.024,0.445-0.081,0.882-0.315,1.313c-0.1,0.15-0.137,0.284-0.112,0.407c0.086,0.113,0.11,0.235,0.073,0.37
		c-0.037,0.137-0.075,0.273-0.111,0.407c-0.05,0.075-0.049,0.235,0,0.481c0.171,0.223,0.098,0.494-0.224,0.814l0.054,1.72
		c-0.026,0.199,0.053,0.438,0.239,0.723c0.147,0.099,0.212,0.182,0.194,0.25c-0.019,0.066-0.066,0.237-0.139,0.509l0.553,1.332
		c0.197,0.346,0.32,0.641,0.369,0.888c0.098,0.173,0.166,0.352,0.204,0.538c0.036,0.185,0.103,0.364,0.202,0.537
		c0.11,0.233,0.205,0.471,0.286,0.713c0.079,0.239,0.199,0.441,0.36,0.6c0.172,0.223,0.36,0.362,0.564,0.418
		c0.203,0.056,0.416,0.157,0.638,0.306l0.037,0.185c0.012,0.061-0.008,0.129-0.056,0.203c-0.063,0.013-0.119,0.055-0.167,0.129
		c-0.049,0.074-0.112,0.086-0.185,0.037c-0.617,0.124-1.141,0.067-1.572-0.167c-0.21-0.088-0.423-0.19-0.639-0.307
		c-0.215-0.117-0.41-0.288-0.582-0.509l-0.72-0.723c-0.222-0.148-0.345-0.285-0.37-0.408c-0.357-0.506-0.668-1.02-0.932-1.546
		c-0.264-0.524-0.489-1.09-0.673-1.693l-0.479-2.406c-0.037-0.185-0.076-0.385-0.119-0.602c-0.043-0.215-0.045-0.39-0.009-0.527
		c0.074-0.27,0.09-0.514,0.047-0.731c-0.043-0.214-0.082-0.416-0.119-0.601c-0.013-0.382,0.093-0.658,0.315-0.832
		c0.209-0.234,0.247-0.531,0.113-0.888c-0.075-0.049-0.095-0.236-0.065-0.564c0.032-0.327,0.09-0.675,0.177-1.046
		c0.086-0.368,0.164-0.705,0.233-1.008c0.068-0.302,0.096-0.484,0.084-0.546c0.049-0.394,0.084-0.786,0.103-1.174
		c0.019-0.389,0.084-0.787,0.196-1.193c0.023-0.197,0.037-0.455,0.038-0.778c0-0.32,0.025-0.517,0.074-0.591
		c0.223-1.134,0.391-2.387,0.505-3.756c0.062-0.653,0.211-1.356,0.446-2.109c0.112-0.407,0.208-0.81,0.288-1.211
		s0.146-0.798,0.196-1.194c0.099-0.146,0.135-0.363,0.112-0.647c-0.025-0.284,0.024-0.438,0.149-0.462
		c0.023-0.197,0.073-0.431,0.148-0.703c0.05-0.394,0.131-0.795,0.243-1.203c0.111-0.406,0.191-0.807,0.241-1.202
		c0.086-0.21,0.115-0.39,0.084-0.546c-0.03-0.153-0.034-0.33-0.008-0.527c0.111-0.085,0.203-0.265,0.278-0.536
		c-0.037-0.185-0.117-0.266-0.24-0.24c-0.248,0.049-0.39,0.141-0.426,0.276c-0.05,0.075-0.106,0.117-0.167,0.13
		c-0.062,0.013-0.118,0.057-0.167,0.129c-0.542,0.173-1.049,0.369-1.518,0.59c-0.469,0.222-0.919,0.537-1.351,0.942l-0.167,0.13
		c-0.235,0.111-0.473,0.206-0.713,0.285c-0.24,0.081-0.479,0.177-0.712,0.286c-0.223,0.173-0.619,0.445-1.185,0.813
		c-0.173,0.098-0.346,0.198-0.519,0.296c-0.173,0.098-0.371,0.234-0.592,0.405c-0.099,0.149-0.222,0.254-0.371,0.314
		c-0.147,0.063-0.27,0.167-0.371,0.315c-0.703,0.332-1.295,0.738-1.777,1.219c-0.161,0.161-0.341,0.293-0.546,0.397
		c-0.203,0.106-0.392,0.207-0.565,0.305c-0.283,0.185-0.543,0.172-0.777-0.038c-0.468-0.42-0.787-0.742-0.961-0.963
		c-0.073-0.049-0.117-0.106-0.129-0.167c-0.012-0.062-0.055-0.117-0.129-0.167c-0.025-0.123-0.036-0.265-0.037-0.426
		c0.002-0.159-0.012-0.301-0.036-0.425c-0.025-0.123-0.083-0.256-0.176-0.398c-0.091-0.142-0.118-0.28-0.082-0.417
		c0.729-0.53,1.444-1.039,2.148-1.532c0.705-0.493,1.426-0.972,2.166-1.441c0.618-0.443,1.2-0.815,1.75-1.117
		c0.548-0.302,1.144-0.612,1.786-0.933c1.259-0.762,2.512-1.396,3.759-1.901c0.346-0.196,0.681-0.359,1.008-0.489
		c0.326-0.127,0.664-0.291,1.01-0.489c0.468-0.221,0.845-0.423,1.129-0.609c0.074-0.27,0.173-0.739,0.297-1.406
		c0.025-0.197,0.066-0.398,0.122-0.601c0.056-0.204,0.059-0.428,0.01-0.676c-0.025-0.123,0.011-0.257,0.111-0.407
		c0.173-0.419,0.27-0.822,0.289-1.211c0.018-0.388,0.046-0.81,0.084-1.267c0.037-0.135,0.049-0.314,0.038-0.536
		c-0.012-0.222,0.03-0.407,0.13-0.556c0.174-0.738,0.286-1.466,0.336-2.183c0.05-0.715,0.131-1.435,0.243-2.164
		c0.049-0.394,0.05-0.715,0.002-0.962c-0.086-0.431,0.104-0.758,0.574-0.98c0.394-0.271,0.85-0.393,1.369-0.368
		c0.246-0.049,0.481,0.001,0.704,0.149c0.147,0.1,0.31,0.195,0.489,0.287c0.179,0.094,0.342,0.19,0.49,0.287
		c0.172,0.223,0.292,0.423,0.36,0.603c0.068,0.178,0.145,0.323,0.231,0.434c0.11,0.235,0.159,0.483,0.147,0.741
		c-0.049,0.074-0.055,0.203-0.019,0.388c0.011,0.704-0.043,1.403-0.159,2.1c-0.119,0.696-0.27,1.386-0.456,2.062
		c-0.099,0.469-0.187,0.919-0.261,1.351c-0.075,0.433-0.161,0.882-0.261,1.35c-0.075,0.272-0.136,0.524-0.185,0.758
		c-0.05,0.236-0.112,0.489-0.186,0.758c0.048,0.247,0.134,0.359,0.258,0.334c0.296-0.122,0.567-0.209,0.814-0.258
		c0.246-0.049,0.493-0.098,0.741-0.147c0.468-0.221,0.856-0.363,1.166-0.425c0.308-0.06,0.759-0.213,1.352-0.46
		c0.418-0.146,0.844-0.264,1.276-0.35c0.431-0.085,0.894-0.178,1.388-0.276c0.863-0.172,1.702-0.305,2.517-0.404
		c0.813-0.097,1.659-0.2,2.535-0.312c1.073-0.084,2.14-0.04,3.201,0.134c1.059,0.174,2.065,0.551,3.015,1.132
		C164.513,11.765,164.637,11.902,164.81,12.122 M137.909,40.842c0.062-0.012,0.112-0.085,0.149-0.222
		c0.075-0.27,0.1-0.468,0.075-0.592c0.048-0.073,0.012-0.098-0.111-0.074c-0.012-0.06-0.044-0.054-0.093,0.019
		c-0.111,0.087-0.142,0.254-0.093,0.499l-0.074,0.111C137.786,40.708,137.836,40.794,137.909,40.842 M138.599,37.05
		c0.036-0.135,0.031-0.246-0.018-0.333c-0.05-0.086-0.086-0.19-0.11-0.315l-0.149,0.222c-0.063,0.334-0.102,0.694-0.122,1.082
		c-0.019,0.389-0.06,0.75-0.121,1.083c0.037,0.185,0.122,0.297,0.259,0.333c0.062-0.332,0.106-0.678,0.13-1.036
		C138.493,37.73,138.536,37.384,138.599,37.05 M138.582,35.515c-0.16,0.16-0.197,0.457-0.111,0.887
		c0.16-0.16,0.225-0.317,0.194-0.471C138.635,35.777,138.606,35.639,138.582,35.515 M140.872,24.286
		c0.112-0.406,0.13-0.795,0.057-1.165c-0.31,0.062-0.47,0.223-0.482,0.481c0.049,0.247-0.014,0.579-0.186,0.999
		c-0.323,0.962-0.521,1.899-0.596,2.81c-0.087,0.21-0.127,0.41-0.121,0.602c0.006,0.191-0.041,0.361-0.139,0.509
		c-0.235,0.753-0.369,1.532-0.401,2.339c-0.032,0.81-0.165,1.589-0.4,2.34c-0.05,0.076-0.062,0.174-0.037,0.296
		c-0.027,0.52-0.07,0.945-0.132,1.277c-0.088,0.21-0.044,0.427,0.129,0.648c0.161-0.159,0.253-0.339,0.279-0.536
		c0.023-0.197,0.073-0.431,0.148-0.703c0.062-0.332,0.106-0.678,0.131-1.036c0.025-0.357,0.068-0.703,0.131-1.037
		c0.123-0.664,0.235-1.311,0.335-1.941c0.099-0.629,0.241-1.282,0.428-1.961c0.198-0.616,0.34-1.269,0.428-1.961
		C140.531,25.557,140.673,24.903,140.872,24.286 M139.376,36.126c0.136-0.282,0.162-0.641,0.075-1.073
		c-0.21,0.234-0.334,0.58-0.371,1.036l0.037,0.185C139.191,36.324,139.278,36.276,139.376,36.126 M139.434,34.96
		c0.222-0.172,0.228-0.461,0.019-0.869c-0.099,0.148-0.132,0.3-0.102,0.453C139.382,34.698,139.41,34.837,139.434,34.96
		 M139.62,33.961c0.223-0.492,0.375-1.019,0.456-1.581c0.081-0.561,0.133-1.1,0.159-1.619l-0.018-0.092l-0.075,0.11
		c-0.334,0.581-0.519,1.258-0.557,2.036c-0.112,0.407-0.125,0.827-0.039,1.257L139.62,33.961z M140.643,29.43
		c0.062-0.333,0.146-0.638,0.251-0.916c0.105-0.276,0.096-0.563-0.026-0.861c-0.1,0.15-0.165,0.307-0.195,0.473
		c-0.032,0.167-0.09,0.354-0.177,0.564c-0.075,0.271-0.093,0.499-0.056,0.684l0.111,0.073L140.643,29.43z M140.397,18.514
		l0.148-0.223c-0.062,0.013-0.127,0.01-0.194-0.01c-0.068-0.017-0.133-0.021-0.194-0.008c-0.235,0.111-0.454,0.218-0.658,0.323
		c-0.204,0.104-0.423,0.213-0.657,0.323l0.018,0.092c0.012,0.061,0.049,0.086,0.111,0.074
		C139.54,19.036,140.014,18.846,140.397,18.514 M140.942,27.542c0.247-0.368,0.328-0.769,0.242-1.202c-0.025-0.122-0.025-0.122,0,0
		c0.025,0.125-0.007,0.132-0.093,0.019c-0.099,0.149-0.167,0.291-0.204,0.425c0.025,0.124,0.034,0.251,0.028,0.379
		C140.907,27.294,140.917,27.42,140.942,27.542 M141.822,19.385c0.06-0.013,0.086-0.049,0.074-0.111
		c-0.075-0.049-0.123-0.135-0.148-0.26c-0.05,0.075-0.09,0.114-0.121,0.12c-0.031,0.007-0.071,0.048-0.12,0.121l-0.148,0.222
		c-0.299,1.085-0.478,2.114-0.541,3.089l0.111,0.555c0.036-0.135,0.083-0.223,0.139-0.268c0.055-0.043,0.071-0.125,0.047-0.249
		C141.461,21.444,141.696,20.371,141.822,19.385 M139.992,16.958l0.186-0.037c0.061-0.012,0.086-0.048,0.074-0.11l-0.278,0.055
		L139.992,16.958z M157.928,11.375c0.246-0.049,0.394-0.11,0.444-0.184c-0.062,0.012-0.111,0.006-0.148-0.019
		c-0.038-0.024-0.087-0.03-0.148-0.019c-2.048,0.344-4.053,0.743-6.015,1.196c-0.184,0.036-0.385,0.076-0.601,0.119
		c-0.217,0.043-0.442,0.121-0.675,0.23c-0.593,0.247-1.074,0.407-1.444,0.48c-0.495,0.099-0.965,0.225-1.416,0.377
		c-0.451,0.155-0.911,0.342-1.379,0.563l0.111,0.075c0.382-0.012,0.739-0.067,1.073-0.165c0.332-0.098,0.679-0.215,1.036-0.351
		c0.469-0.221,0.966-0.385,1.491-0.489c0.523-0.104,1.052-0.272,1.582-0.506c0.098-0.148,0.284-0.185,0.555-0.111
		c0.926-0.183,1.848-0.382,2.767-0.597C156.08,11.758,157.003,11.558,157.928,11.375 M153.337,13.922
		c0.233-0.109,0.591-0.246,1.073-0.406c0.481-0.158,0.953-0.285,1.416-0.377c0.463-0.092,0.879-0.175,1.249-0.248
		c0.371-0.074,0.616-0.123,0.74-0.148c-0.309,0.062-0.673,0.167-1.092,0.313c-0.42,0.148-0.857,0.283-1.314,0.406
		c-0.456,0.123-0.866,0.236-1.231,0.341C153.814,13.907,153.533,13.947,153.337,13.922 M159.908,11.173l-0.111-0.074l-0.093,0.018
		c-0.062,0.013-0.086,0.05-0.074,0.111c0.061-0.012,0.111-0.005,0.148,0.019c0.037,0.026,0.086,0.03,0.149,0.019L159.908,11.173z"/>
	<path d="M154.725,63.161V8.44c0-0.532,0.186-0.986,0.56-1.359c0.372-0.373,0.826-0.561,1.36-0.561h21.84
		c8.372,0,15.226,2.454,20.56,7.361c2.881,2.666,5.066,5.839,6.561,9.519c1.492,3.681,2.24,7.814,2.24,12.4
		c0,4.588-0.748,8.734-2.24,12.441c-1.494,3.707-3.68,6.893-6.561,9.559c-2.668,2.401-5.72,4.214-9.159,5.441
		c-3.44,1.227-7.24,1.84-11.4,1.84h-21.84c-0.534,0-0.988-0.187-1.36-0.561C154.91,64.148,154.725,63.694,154.725,63.161
		 M172.484,50.36h6c1.492,0,3.04-0.186,4.64-0.56c1.601-0.372,3.04-1.08,4.32-2.12c1.28-1.04,2.332-2.506,3.16-4.399
		c0.826-1.893,1.24-4.36,1.24-7.4c0-3.041-0.414-5.506-1.24-7.401c-0.828-1.892-1.895-3.359-3.2-4.399
		c-1.308-1.04-2.748-1.746-4.32-2.12c-1.573-0.373-3.107-0.561-4.6-0.561h-6c-0.534,0-0.988,0.188-1.36,0.561
		c-0.374,0.374-0.56,0.827-0.56,1.36V48.44c0,0.534,0.186,0.988,0.56,1.36C171.497,50.174,171.95,50.36,172.484,50.36"/>
	<path d="M231.215,65.081h-12.021c-0.584,0-1.048-0.187-1.393-0.561c-0.346-0.372-0.518-0.826-0.518-1.359V8.52
		c0-0.532,0.172-0.986,0.518-1.359c0.345-0.373,0.809-0.56,1.393-0.56h12.021c0.529,0,0.98,0.187,1.353,0.56
		c0.371,0.373,0.557,0.827,0.557,1.359v54.641c0,0.533-0.186,0.987-0.557,1.359C232.195,64.894,231.744,65.081,231.215,65.081"/>
	<path d="M257.834,65.081h-11.98c-0.536,0-0.992-0.187-1.367-0.561c-0.375-0.372-0.562-0.826-0.562-1.359V8.44
		c0-0.532,0.187-0.986,0.56-1.359c0.373-0.374,0.826-0.561,1.36-0.561h24.88c3.093,0,5.947,0.52,8.561,1.561
		c2.612,1.04,4.84,2.493,6.68,4.359c1.84,1.868,3.28,4.08,4.32,6.641c1.04,2.559,1.56,5.387,1.56,8.479c0,1.708-0.2,3.4-0.6,5.08
		c-0.4,1.681-0.975,3.268-1.721,4.76c-0.747,1.494-1.627,2.841-2.64,4.04c-1.014,1.2-2.16,2.2-3.44,3
		c-0.427,0.32-0.708,0.708-0.84,1.16c-0.134,0.454-0.04,0.894,0.28,1.32c2.026,2.667,4.16,5.414,6.4,8.241
		c2.239,2.827,4.239,5.413,6,7.759c0.319,0.428,0.399,0.894,0.239,1.401c-0.159,0.507-0.507,0.76-1.04,0.76h-14.88
		c-0.534,0-1.106-0.147-1.72-0.441c-0.614-0.292-1.08-0.652-1.4-1.08c-1.698-2.239-3.384-4.506-5.056-6.8
		c-1.672-2.292-3.332-4.612-4.976-6.96c-0.319-0.426-0.771-0.786-1.354-1.08c-0.584-0.292-1.141-0.439-1.672-0.439h-1.751
		c-0.531,0-0.982,0.187-1.354,0.559c-0.371,0.374-0.557,0.827-0.557,1.361v12.96c0,0.533-0.188,0.987-0.563,1.359
		C258.825,64.894,258.369,65.081,257.834,65.081 M261.674,33.56h8.438c0.637,0,1.301-0.12,1.99-0.359
		c0.69-0.241,1.326-0.614,1.91-1.12c0.583-0.507,1.062-1.133,1.433-1.88c0.372-0.747,0.559-1.627,0.559-2.641
		c0-0.532-0.094-1.16-0.279-1.88c-0.186-0.72-0.505-1.412-0.955-2.08c-0.451-0.666-1.061-1.226-1.831-1.68
		c-0.77-0.452-1.711-0.679-2.826-0.679h-8.438c-0.53,0-0.981,0.187-1.354,0.559c-0.371,0.374-0.557,0.827-0.557,1.361v8.479
		c0,0.534,0.186,0.987,0.557,1.36C260.692,33.374,261.144,33.56,261.674,33.56"/>
	<path d="M339.764,21.241h-11.2c-0.534,0-0.988,0.187-1.359,0.56c-0.374,0.374-0.561,0.827-0.561,1.36v40
		c0,0.533-0.174,0.987-0.52,1.359c-0.348,0.374-0.814,0.561-1.4,0.561h-12c-0.534,0-0.987-0.187-1.36-0.561
		c-0.374-0.372-0.56-0.826-0.56-1.359v-40c0-0.533-0.174-0.986-0.52-1.36c-0.349-0.373-0.814-0.56-1.4-0.56h-11.36
		c-0.534,0-0.987-0.187-1.359-0.561c-0.374-0.372-0.561-0.826-0.561-1.359V8.439c0-0.532,0.187-0.986,0.561-1.359
		c0.372-0.373,0.825-0.561,1.359-0.561h42.24c0.586,0,1.053,0.188,1.4,0.561c0.346,0.373,0.52,0.827,0.52,1.359v10.881
		c0,0.533-0.174,0.987-0.52,1.359C340.816,21.054,340.35,21.241,339.764,21.241"/>
	<path d="M68.016,122.761v10.88c0,0.533-0.187,0.986-0.56,1.359c-0.374,0.374-0.828,0.561-1.36,0.561h-39.92
		c-0.588,0-1.054-0.187-1.4-0.561c-0.347-0.373-0.52-0.826-0.52-1.359V78.92c0-0.531,0.173-0.985,0.52-1.36
		c0.346-0.372,0.812-0.56,1.4-0.56h12c0.532,0,0.986,0.188,1.36,0.56c0.373,0.375,0.56,0.829,0.56,1.36v40
		c0,0.533,0.172,0.987,0.52,1.361c0.346,0.373,0.813,0.559,1.4,0.559h24.08c0.532,0,0.986,0.188,1.36,0.561
		C67.829,121.775,68.016,122.229,68.016,122.761"/>
	<path d="M89.295,93.64V97c0,0.534,0.186,0.988,0.56,1.36c0.373,0.374,0.826,0.56,1.36,0.56h21.68c0.532,0,0.986,0.188,1.36,0.561
		c0.373,0.374,0.56,0.827,0.56,1.359v11.04c0,0.533-0.187,0.988-0.56,1.361c-0.374,0.373-0.828,0.559-1.36,0.559h-21.68
		c-0.534,0-0.987,0.188-1.36,0.561c-0.374,0.374-0.56,0.828-0.56,1.359v3.04c0,0.534,0.186,0.987,0.56,1.36
		c0.373,0.374,0.826,0.56,1.36,0.56h24.88c0.533,0,0.986,0.188,1.36,0.562c0.372,0.373,0.56,0.827,0.56,1.359v11.039
		c0,0.534-0.188,0.987-0.56,1.36c-0.374,0.374-0.827,0.561-1.36,0.561h-40.72c-0.534,0-0.988-0.187-1.36-0.561
		c-0.374-0.373-0.56-0.826-0.56-1.36V78.92c0-0.532,0.186-0.985,0.56-1.36c0.372-0.372,0.826-0.56,1.36-0.56h40.72
		c0.533,0,0.986,0.188,1.36,0.56c0.372,0.375,0.56,0.828,0.56,1.36V89.8c0,0.534-0.188,0.987-0.56,1.361
		c-0.374,0.373-0.827,0.559-1.36,0.559h-24.88c-0.534,0-0.987,0.188-1.36,0.562C89.481,92.655,89.295,93.109,89.295,93.64"/>
	<path d="M155.695,136.601c-4.268,0-8.268-0.801-12-2.399c-3.734-1.601-7-3.761-9.801-6.481c-2.8-2.72-5.013-5.92-6.639-9.599
		c-1.628-3.681-2.44-7.601-2.44-11.761c0-4.159,0.812-8.079,2.44-11.76c1.626-3.681,3.839-6.894,6.639-9.641
		c2.801-2.746,6.067-4.92,9.801-6.52c3.732-1.601,7.732-2.401,12-2.401c5.866,0,10.972,1.201,15.319,3.6
		c4.347,2.4,7.88,5.708,10.601,9.921c0.266,0.428,0.332,0.92,0.199,1.479c-0.134,0.561-0.413,0.974-0.84,1.241l-9.599,6.159
		c-0.428,0.267-0.908,0.359-1.441,0.279c-0.533-0.08-0.987-0.332-1.359-0.76c-1.654-2.025-3.508-3.652-5.561-4.88
		c-2.053-1.226-4.493-1.839-7.319-1.839c-2.028,0-3.935,0.413-5.721,1.239c-1.787,0.827-3.347,1.933-4.679,3.319
		c-1.334,1.389-2.388,3-3.161,4.84c-0.773,1.841-1.16,3.748-1.16,5.721c0,2.027,0.387,3.947,1.16,5.761s1.827,3.399,3.161,4.759
		c1.332,1.361,2.892,2.454,4.679,3.281c1.786,0.827,3.693,1.239,5.721,1.239c2.025,0,4.025-0.372,6-1.119
		c1.972-0.747,3.546-1.974,4.72-3.681c0.265-0.427,0.292-0.812,0.08-1.16c-0.214-0.347-0.588-0.521-1.12-0.521h-9.201
		c-0.534,0-0.987-0.186-1.36-0.56c-0.373-0.372-0.559-0.826-0.559-1.36v-9.52c0-0.532,0.186-0.986,0.559-1.359
		c0.373-0.374,0.826-0.561,1.36-0.561h27.521c0.532,0,1,0.174,1.399,0.52c0.4,0.348,0.626,0.814,0.68,1.4
		c0.106,0.907,0.16,2.014,0.16,3.319c0,1.309-0.08,2.654-0.239,4.04c-0.374,3.681-1.414,7.095-3.12,10.24
		c-1.708,3.148-3.908,5.868-6.601,8.161s-5.773,4.093-9.24,5.398C163.267,135.948,159.587,136.601,155.695,136.601"/>
	<path d="M208.185,135.561h-12.02c-0.584,0-1.048-0.187-1.393-0.561c-0.345-0.373-0.518-0.826-0.518-1.36V79
		c0-0.532,0.173-0.986,0.518-1.36c0.345-0.372,0.809-0.559,1.393-0.559h12.02c0.53,0,0.981,0.187,1.354,0.559
		c0.37,0.374,0.557,0.828,0.557,1.36v54.64c0,0.534-0.187,0.987-0.557,1.36C209.166,135.375,208.715,135.561,208.185,135.561"/>
	<path d="M218.255,106.282c0-4.16,0.8-8.08,2.4-11.762c1.6-3.679,3.76-6.892,6.479-9.639c2.721-2.746,5.92-4.92,9.601-6.521
		c3.68-1.6,7.6-2.399,11.76-2.399s8.079,0.799,11.76,2.399c3.681,1.602,6.893,3.775,9.641,6.521c2.746,2.747,4.92,5.96,6.52,9.639
		c1.6,3.682,2.4,7.602,2.4,11.762c0,4.158-0.801,8.078-2.4,11.76c-1.6,3.679-3.773,6.893-6.52,9.639
		c-2.748,2.748-5.96,4.92-9.641,6.521c-3.681,1.6-7.6,2.398-11.76,2.398s-8.08-0.799-11.76-2.398
		c-3.681-1.602-6.88-3.773-9.601-6.521c-2.72-2.746-4.88-5.96-6.479-9.639C219.055,114.36,218.255,110.44,218.255,106.282
		 M234.095,106.282c0,2.026,0.373,3.946,1.12,5.76c0.746,1.812,1.772,3.413,3.08,4.8c1.307,1.387,2.84,2.494,4.601,3.32
		c1.76,0.826,3.626,1.238,5.6,1.238c1.973,0,3.84-0.412,5.6-1.238c1.761-0.826,3.307-1.934,4.641-3.32
		c1.332-1.387,2.372-2.987,3.12-4.8c0.746-1.813,1.12-3.733,1.12-5.76c0-1.974-0.374-3.882-1.12-5.722
		c-0.748-1.84-1.788-3.438-3.12-4.8c-1.334-1.36-2.88-2.452-4.641-3.28c-1.76-0.826-3.627-1.238-5.6-1.238
		c-1.974,0-3.84,0.412-5.6,1.238c-1.761,0.828-3.294,1.92-4.601,3.28c-1.308,1.361-2.334,2.96-3.08,4.8
		C234.468,102.4,234.095,104.308,234.095,106.282"/>
	<path d="M342.095,78.92v54.721c0,0.534-0.188,0.986-0.561,1.359c-0.371,0.374-0.823,0.561-1.356,0.561h-11.815
		c-0.533,0-1.092-0.161-1.677-0.48s-1.037-0.691-1.357-1.12l-20.837-29.359c-0.319-0.426-0.653-0.601-0.998-0.521
		c-0.347,0.08-0.519,0.389-0.519,0.92v28.641c0,0.534-0.19,0.986-0.565,1.359c-0.375,0.374-0.83,0.561-1.365,0.561h-11.979
		c-0.536,0-0.992-0.187-1.367-0.561c-0.375-0.373-0.562-0.825-0.562-1.359V78.92c0-0.531,0.186-0.985,0.56-1.36
		c0.372-0.372,0.826-0.56,1.36-0.56h12c0.532,0,1.092,0.148,1.68,0.44c0.586,0.293,1.04,0.655,1.36,1.081l20.8,29.36
		c0.32,0.428,0.652,0.612,1,0.56c0.346-0.052,0.52-0.346,0.52-0.88V78.92c0-0.531,0.187-0.985,0.561-1.36
		c0.372-0.372,0.826-0.56,1.359-0.56h11.841c0.532,0,0.984,0.188,1.359,0.56C341.907,77.935,342.095,78.389,342.095,78.92"/>
</g>
</svg>
