<?xml version="1.0" encoding="utf-8"?>
<svg version="1.1" id="tire" xmlns="http://www.w3.org/2000/svg" xmlns:xlink="http://www.w3.org/1999/xlink" x="0px" y="0px"
	 viewBox="0 0 407 67" style="enable-background:new 0 0 407 67;" xml:space="preserve">
	<g>
		<path fill="#514737" d="M281.4,34c0.4,0,0.6,0.2,0.6,0.5s-0.2,0.5-0.5,0.5s-0.5-0.2-0.5-0.5S281.2,34.1,281.4,34z M44,54.5
			c-0.1,0.4-0.3,0.5-0.6,0.5c-0.3-0.1-0.5-0.3-0.4-0.6c0-0.3,0.2-0.4,0.4-0.4C43.8,54,44,54.2,44,54.5z M127.6,33
			c-0.4,0-0.5-0.2-0.6-0.5c0-0.3,0.1-0.5,0.3-0.5c0.4,0,0.6,0.2,0.7,0.5C128.1,32.9,127.8,32.9,127.6,33z M315,17.4
			c0,0.3-0.2,0.6-0.5,0.6s-0.5-0.1-0.5-0.5c0-0.3,0.2-0.5,0.5-0.5S314.9,17.1,315,17.4z M146.6,37c-0.3,0-0.6-0.3-0.6-0.6
			s0.2-0.4,0.5-0.4s0.5,0.2,0.5,0.5S146.8,37,146.6,37z M201.5,39c0.2,0,0.5,0.1,0.5,0.5s-0.2,0.5-0.5,0.5s-0.5-0.1-0.5-0.5
			S201.3,39,201.5,39z M276,40.5c0,0.3-0.3,0.5-0.6,0.5c-0.2,0-0.4-0.2-0.4-0.5s0.3-0.5,0.6-0.5C275.9,40,276,40.3,276,40.5z
			 M269.6,38c0.3,0,0.4,0.2,0.4,0.5s-0.1,0.5-0.5,0.5c-0.3,0-0.5-0.1-0.5-0.4C269,38.4,269.4,38,269.6,38z M293.4,10
			c-0.2,0-0.4-0.1-0.4-0.4c0-0.4,0.2-0.4,0.4-0.5c0.2-0.1,0.4-0.1,0.6,0.1c0.1,0.1,0.1,0.2,0.1,0.4C293.9,9.9,293.6,10,293.4,10z
			 M343,34c-0.1,0.6-0.4,0.8-0.8,0.9c-0.2,0.1-0.2-0.1-0.2-0.3C342.1,34.1,342.5,33.9,343,34z M279,43.4c0,0.3-0.4,0.6-0.6,0.6
			c-0.3-0.1-0.4-0.3-0.4-0.6s0.2-0.5,0.5-0.4C278.8,43,279,43.1,279,43.4z M149,43.6c0,0.3-0.2,0.4-0.4,0.4c-0.3,0-0.6-0.3-0.6-0.6
			s0.2-0.4,0.5-0.4S149,43.4,149,43.6z M159.6,35c0.1,0,0.2,0,0.3,0c0.2,0,0.2,0.2,0.2,0.5c0,0.1-0.1,0.2-0.1,0.2
			c-0.2,0.3-0.4,0.3-0.7,0.1c-0.1-0.1-0.2-0.3-0.2-0.5C159.1,34.9,159.4,35.1,159.6,35z M367.5,14c0.3,0,0.5,0.2,0.5,0.6
			c0,0.3-0.1,0.5-0.4,0.4c-0.3,0-0.6-0.2-0.6-0.5C367,14.1,367.2,14,367.5,14z M310.3,35c-0.2,0-0.3-0.1-0.3-0.4
			c0-0.3,0.3-0.6,0.7-0.6c0.2,0,0.3,0.1,0.3,0.3C311,34.6,310.7,35,310.3,35z M351.4,10c-0.3,0-0.4-0.2-0.4-0.4
			c0-0.3,0.2-0.6,0.6-0.6c0.3,0,0.5,0.2,0.4,0.5C352,9.8,351.7,10,351.4,10z M217.3,19c-0.3,0-0.4-0.2-0.2-0.4
			c0.1-0.2,0.2-0.4,0.4-0.5s0.3-0.2,0.5,0.1c0.1,0.2,0.1,0.4-0.1,0.6C217.7,18.9,217.5,19,217.3,19z M105.3,31
			c-0.2,0-0.3-0.1-0.3-0.3c0-0.3,0.3-0.7,0.6-0.7c0.2,0,0.3,0.1,0.4,0.3C106,30.6,105.7,31,105.3,31z M371.5,32
			c0.3,0,0.6,0.2,0.5,0.5c0,0.3-0.2,0.5-0.5,0.5s-0.5-0.3-0.5-0.6C371,32.1,371.2,32,371.5,32z M160,50.5c0,0.3-0.2,0.5-0.5,0.5
			s-0.5-0.2-0.5-0.5c0-0.2,0.4-0.5,0.6-0.5C159.9,50,160,50.2,160,50.5z M141.5,52c0.3,0,0.5,0.3,0.5,0.6s-0.2,0.4-0.4,0.4
			c-0.3,0-0.6-0.4-0.6-0.7C141,51.9,141.3,52.1,141.5,52z M247.6,44c-0.2-0.1-0.4-0.3-0.5-0.5s0-0.4,0.1-0.4
			c0.2-0.1,0.5-0.1,0.7,0.2c0.1,0.1,0.2,0.3,0.2,0.5C247.9,44,247.8,44,247.6,44z M140.3,27c-0.2,0-0.3-0.1-0.3-0.3
			c0-0.3,0.4-0.7,0.7-0.7c0.2,0,0.3,0.1,0.3,0.4C141,26.7,140.7,27,140.3,27z M91,27.5c0,0.2-0.6,0.5-1.1,0.5
			c-0.6,0-1.1-0.2-1.6-0.4c-0.4-0.1-0.3-0.4,0.1-0.5c0.5-0.2,2-0.1,2.5,0.2C90.9,27.4,91,27.4,91,27.5z M117.6,39
			c-0.3,0-0.6-0.3-0.6-0.6c0-0.2,0.2-0.4,0.3-0.4c0.3,0,0.7,0.4,0.7,0.6C118,38.8,117.8,39,117.6,39z M166.5,24
			c-0.1,0-0.2,0-0.3-0.1s-0.2-0.2-0.2-0.4c0-0.2,0.1-0.3,0.2-0.4c0.2-0.1,0.4-0.2,0.6,0c0.1,0.1,0.2,0.2,0.2,0.5s-0.2,0.4-0.3,0.4
			C166.6,24,166.6,24,166.5,24z M125.5,26c-0.5,0-0.9,0-1.2-0.2c-0.6-0.3-0.4-0.7,0.4-0.8c0.5,0,1.1-0.1,1.6,0
			c0.6,0,0.8,0.2,0.5,0.5C126.6,25.8,126.2,26,125.5,26z M151.2,40c-0.3,0-0.5-0.1-0.8-0.1c-0.2,0-0.3-0.1-0.4-0.2
			c-0.1-0.2,0.1-0.3,0.2-0.4c0.8-0.3,1.6-0.4,2.4-0.3c0.2,0,0.3,0.2,0.3,0.3c0,0.2-0.1,0.3-0.3,0.4C152.3,39.9,151.8,39.9,151.2,40z
			 M367.7,13c0.1,0,0.2,0.1,0.2,0.2c0.1,0.2,0,0.4-0.1,0.5c-0.2,0.2-0.3,0.3-0.6,0.2c-0.2,0-0.3-0.2-0.3-0.4
			C367,13.4,367.5,13,367.7,13z M266.7,39c1,0,1.3,0.1,1.3,0.5c0,0.3-0.4,0.5-1.3,0.5c-0.3,0-0.7,0-1,0c-0.4,0-0.7-0.2-0.7-0.5
			s0.3-0.4,0.7-0.4C266,39,266.3,39,266.7,39z M84.3,27c0.6,0,1.1,0,1.5,0.2c0.3,0.1,0.4,0.2,0.1,0.4c-0.4,0.3-2,0.5-2.5,0.3
			c-0.2-0.1-0.4-0.2-0.3-0.4c0-0.2,0.2-0.4,0.5-0.5C83.8,27,84.1,27,84.3,27z M371.7,28c-0.8,0-1.3-0.2-1.6-0.5
			c-0.3-0.3,0-0.5,0.7-0.5s1.3,0.1,1.9,0.3c0.5,0.1,0.3,0.5-0.3,0.6C372.2,28,371.9,28,371.7,28z M1.7,35c0.3,0,0.6,0,0.9,0.1
			C3,35.3,3.1,35.8,2.8,36c-0.6,0.5-0.9,1.2-1.4,1.7c-0.4,0.5-1,0.4-1.3-0.2c0-0.2,0-0.5-0.1-0.7C-0.1,35.3,0.1,35,1.7,35z M136,25
			c0.1,0,0.4,0,0.6,0c0.3,0,0.5,0.2,0.4,0.3c-0.2,0.5-1.7,0.8-2.4,0.6c-0.3-0.1-0.6-0.2-0.5-0.4c0-0.2,0.3-0.3,0.7-0.4
			C135.1,25,135.5,25,136,25z M290.9,39c-0.4,0-0.7,0-0.9-0.2c-0.1-0.2,0.1-0.3,0.4-0.3c0.6-0.1,1.1-0.3,1.7-0.4
			c0.3-0.1,0.6,0,0.8,0.1c0.2,0.1,0.2,0.3-0.1,0.4C292.1,38.7,291.6,39,290.9,39z M380,18.2c0,0.1-0.1,0.2-0.3,0.2
			c-0.5,0.3-1.2,0.4-1.9,0.5c-0.3,0.1-0.5,0-0.7-0.1s-0.2-0.2,0-0.4c0.3-0.3,1.9-0.6,2.5-0.5C379.8,18,380,18.1,380,18.2z M43.3,35
			c-0.3,0-0.5,0-0.7,0c-0.4,0-0.6-0.2-0.5-0.3c0.1-0.3,0.6-0.5,1.1-0.6s0.9-0.1,1.4,0.1c0.4,0.1,0.5,0.3,0.5,0.5
			C45,34.9,44.7,35,44.2,35C43.8,35,43.5,35,43.3,35z M65.9,28c0.5,0,1,0,1.1,0.3c0.1,0.2-0.2,0.4-0.7,0.5s-1,0.2-1.5,0.3
			c-0.6,0.1-0.9-0.1-0.8-0.4c0.1-0.2,0.3-0.4,0.8-0.5C65.2,28,65.6,28,65.9,28z M84.2,31c-0.4,0-0.6,0-0.9-0.2
			c-0.2-0.1-0.4-0.3-0.3-0.5s0.3-0.2,0.6-0.3c0.6,0,1.2-0.1,1.8-0.1c0.3,0,0.5,0.1,0.6,0.3c0.1,0.2,0,0.4-0.3,0.5
			C85.2,31,84.6,30.9,84.2,31z M348.3,36c0.3,0,0.6,0,0.9,0c0.4,0,0.7,0.2,0.7,0.4c0,0.3-0.3,0.4-0.7,0.4c-0.9,0.1-1.7,0.1-2.6,0.1
			c-0.4,0-0.7-0.2-0.7-0.4c-0.1-0.2,0.1-0.4,0.5-0.5C347.1,36,347.7,36,348.3,36z M163,38c0,0.1,0,0.3,0,0.4
			c-0.1,0.2-0.4,0.4-0.7,0.3c-0.6-0.1-1,0-1.4,0.2c-0.4,0.1-0.8,0.1-1.3,0.1c-0.4-0.1-0.5-0.3-0.5-0.5c0-0.3,0.3-0.3,0.7-0.3
			c0.3,0,0.6,0,0.8,0.1C161.4,38.4,162.2,38.3,163,38L163,38z M398,13.6c0,0.3-0.3,0.5-0.5,0.8c-0.7,0.8-1.8,1.1-2.8,1.6
			c-0.3,0.1-0.6,0-0.7-0.3s-0.2-0.7,0.2-0.9c0.9-0.5,1.7-1.2,2.6-1.6C397.5,12.8,398,13.1,398,13.6z M111.5,35
			c-0.6,0-1.4-0.9-1.5-1.7c-0.1-0.6,0.1-0.9,0.4-1.1c0.8-0.4,1.6,0,2.2,0.6c0.4,0.4,0.4,1.1,0,1.7C112.3,34.9,111.9,34.9,111.5,35z
			 M136,49.1c0,0.7-0.3,1-0.9,0.9c-0.6-0.1-1.1-0.4-1.7-0.5c-0.4-0.1-0.6-0.8-0.3-1.3s0.7-0.8,1.1-1.1c0.3-0.1,0.6-0.1,0.8,0.1
			C135.5,47.7,135.9,48.4,136,49.1z M3,60.1c0-1.1,0.3-1.3,1.2-1c0.5,0.2,0.9,0.3,1.3,0.6c0.6,0.4,0.6,0.9,0,1.2
			c-0.5,0.3-0.9,0.7-1.4,0.9c-0.6,0.3-0.9,0.2-1-0.5C3,61,3,60.8,3,60.5C3,60.4,3,60.2,3,60.1z M141,22c0.1,0,0.2,0,0.3,0
			c0.3,0.1,0.5,0.3,0.6,0.7c0.1,0.4-0.1,0.6-0.3,0.9c-0.6,0.7-1.3,1.1-2.1,1.2c-0.4,0-0.8,0-1.1,0.2c-0.3,0.1-0.4,0-0.4-0.4
			c-0.1-1.2,0.5-2.2,1.4-2.3C139.9,22.1,140.5,22.1,141,22z M305.9,14c-0.4,0-0.7-0.1-0.8-0.5c-0.1-0.4,0.1-0.6,0.4-0.8
			c0.1,0,0.1-0.1,0.2-0.1c0.9-0.1,1.5-0.6,2-1.3c0.3-0.4,0.7-0.3,1,0c0.3,0.2,0.5,0.9,0.3,1.1c-0.1,0.1-0.2,0.2-0.4,0.2
			c-0.6,0.1-1.1,0.4-1.5,0.9C306.7,13.8,306.3,14,305.9,14z M207.6,29c-0.5-0.1-1.2-0.1-1.8-0.1c-0.2,0-0.3,0-0.4-0.1
			c-0.3-0.1-0.4-0.3-0.1-0.5c0.4-0.2,0.8-0.4,1.3-0.3s1.1,0.1,1.7,0c0.4,0,0.7,0.1,0.8,0.3c0.1,0.2,0,0.4-0.4,0.5
			C208.3,29,208,29,207.6,29z M122,35.1c0,0.5-0.2,1-0.6,1.3c-0.2,0.2-0.5,0.3-0.7,0.4c-0.7,0.3-0.8,0.3-1.2-0.5
			c-0.1-0.3-0.2-0.5-0.4-0.8c-0.1-0.3-0.1-0.7,0.1-1c0.4-0.6,0.9-1.1,1.5-1.4c0.5-0.3,1.1,0,1.2,0.8C121.9,34.2,122,34.6,122,35.1z
			 M274,39.5c0,0.1,0,0.2-0.1,0.2c-0.1,0.2-0.2,0.4-0.4,0.6c-0.8,0.8-1.6,1.7-2.5,2.4c-0.3,0.2-0.6,0.5-0.9,0.1s0-0.7,0.2-1
			c0.8-1.3,1.8-2.1,3-2.7c0.2-0.1,0.4-0.1,0.6,0.1C273.9,39.2,274,39.3,274,39.5z M146,28c-0.4,0-0.8,0-1-0.4
			c-0.1-0.3,0.4-1,0.9-1.1c0.7-0.1,1.2-0.4,1.8-0.6c0.2-0.1,0.4-0.2,0.6-0.3c0.2-0.2,0.4-0.3,0.3-0.7c-0.1-0.1-0.1-0.2-0.1-0.3
			c0-0.3,0.1-0.5,0.4-0.5c0.3,0,0.5,0.1,0.6,0.4c0.1,0.5,0.2,0.9,0.5,1.3c0.2,0.2,0,0.4-0.2,0.5c-0.9,0.2-1.5,0.7-2.2,1.3
			C147.2,27.8,146.6,28,146,28z M141.6,46c0.3,0.1,0.7,0.1,1,0.3c0.9,0.6,1.8,1.1,2.7,1.6c0.1,0.1,0.3,0.2,0.4,0.3
			c0.2,0.2,0.3,0.6,0.3,1c-0.1,0.4-0.3,0.6-0.5,0.6c-0.3,0.1-0.6,0-0.9-0.1c-1.1-0.6-2-1.6-3-2.3c-0.1-0.1-0.2-0.3-0.4-0.4
			c-0.1-0.2-0.3-0.4-0.2-0.8C141.2,45.9,141.4,46,141.6,46z M363,34.2c0-0.7,0-1.2,0.2-1.6c0.2-0.6,0.4-0.7,1-0.4
			c0.2,0.1,0.3,0.2,0.5,0.3c0.6,0.5,1.1,1,1.7,1.6c0.2,0.2,0.4,0.4,0.5,0.6c0.3,0.6,0.1,1-0.5,1.1c-0.7,0.1-1.3,0.2-2,0.2
			c-1,0-1.3-0.3-1.4-1.4C363,34.4,363,34.2,363,34.2z M157,20.2c0.4,0,0.9,0,1.3-0.1c0.1,0,0.3-0.1,0.4,0c0.8,0.5,1.6,0.2,2.4,0.2
			c0.1,0,0.3,0,0.4,0.1c0.3,0.1,0.4,0.4,0.5,0.8c0,0.4-0.1,0.7-0.4,0.8c-0.5,0.3-1.1,0.4-1.6,0.1c-0.6-0.3-1.3-0.3-1.8-0.6
			c-0.3-0.2-0.6-0.1-0.9-0.1c-0.5,0.1-0.9,0.3-1.4,0.3c-0.7,0-1.4,0.1-1.8,1c0,0.1-0.1,0.1-0.2,0.2c-0.2,0.1-0.5,0.5-0.7,0.1
			c-0.2-0.3-0.2-0.7,0-1.1s0.5-0.7,0.9-0.7s0.7-0.1,1-0.4C155.6,20.1,156.3,20.2,157,20.2z M241.1,17c-0.6,0-1-0.3-1.1-1
			c-0.1-0.5,0-0.9,0.4-1c0.6-0.3,1.2-0.7,1.7-1.2c0.7-0.7,1.4-0.7,2.2-0.7c0.3,0,0.6,0.2,0.6,0.7c0.1,0.6,0,1.2-0.3,1.3
			c-0.5,0.3-1,0.9-1.6,0.8c-0.3,0-0.5,0.2-0.6,0.4C242,16.8,241.5,17,241.1,17z M246,19c-0.6,0.1-1.1-0.2-1.6-0.4
			c-0.4-0.2-0.5-0.5-0.2-0.9c0.2-0.3,0.4-0.6,0.5-0.9c0-0.3,0.3-0.4,0.6-0.4c0.8,0,1.3-0.4,1.7-0.9c0.3-0.4,0.8-0.5,1.2-0.5
			c0.7,0,1,0.5,0.7,1c-0.3,0.6-0.7,1.2-1.3,1.6c-0.2,0.2-0.5,0.3-0.5,0.6C246.9,18.9,246.5,19,246,19z M227.7,17.6
			c-0.3,0-0.6-0.1-0.8-0.2c-0.4-0.2-0.8-0.1-1,0.3c-0.3,0.4-0.6,0.8-1,1.1c-0.6,0.5-1.8-0.1-1.9-0.8c0-0.2,0-0.3,0.2-0.4
			c0.7-0.3,1.2-0.9,2-0.9c0.1,0,0.3-0.1,0.4-0.2c0.4-0.4,0.7-0.5,1.2-0.2c0.3,0.2,0.6,0,0.8-0.3c0.4-0.6,0.9-0.8,1.6-0.8
			c0.4,0,0.8-0.2,1.2-0.1c0.5,0.1,0.7,0.3,0.4,0.8c-0.2,0.4-0.5,0.7-0.9,0.8c-0.6,0.3-1.3,0.5-1.9,0.9
			C227.9,17.6,227.8,17.6,227.7,17.6z M355,32c-0.3,0-0.6-0.1-0.9-0.4c-0.8-0.8-1.1-1.7-1.1-2.8c0-0.7,0.3-1,1-0.8
			c1.1,0.4,2.2,0.9,3.3,1.4c0.1,0.1,0.3,0.2,0.4,0.3c0.5,0.4,0.5,0.8,0,1.2C356.8,31.6,355.9,31.8,355,32z M345,30.6
			c0-0.4,0.2-0.7,0.5-0.9c1.4-1,2.9-1.7,4.6-1.7c0.4,0,0.7,0.1,0.8,0.4c0.1,0.4,0,0.7-0.3,0.9c-0.7,0.5-1.3,1-2,1.5
			c-0.6,0.4-1.1,0.9-1.7,1.2C346,32.2,345,31.6,345,30.6z M157.1,46.4c0,1,0.2,1.9,0.7,2.8c0.1,0.2,0.3,0.4,0.1,0.6
			c-0.2,0.2-0.4,0.2-0.6,0.2c-0.1,0-0.2-0.1-0.4-0.1c-0.6-0.3-1.2-0.6-1.8-0.9c-0.5-0.2-0.8-0.6-0.8-1.2c0-0.4-0.1-0.8-0.2-1.1
			c-0.2-0.5-0.1-0.7,0.3-1c0.6-0.5,1.4-0.7,2.2-0.6c0.4,0,0.6,0.2,0.6,0.6C157.1,45.9,157.1,46.1,157.1,46.4z M151.6,54
			c-0.2,0-0.5,0-0.7-0.4c-0.1-0.4,0-0.7,0.3-0.9c0.2-0.2,0.4-0.3,0.6-0.5c0.3-0.3,0.2-0.5-0.1-0.6c-0.6-0.2-1.2-0.4-1.9-0.7
			c-0.1-0.1-0.3-0.1-0.4-0.2c-0.5-0.3-0.6-0.7-0.1-1c0.6-0.4,1.2-0.7,1.9-0.7c0.4,0,0.7,0.3,1,0.6c0.7,1.1,1.5,2,2.4,2.9
			c0.2,0.2,0.4,0.4,0.3,0.7c-0.1,0.4-0.4,0.5-0.7,0.5C153.4,53.8,152.5,53.9,151.6,54z M256.3,42.6c-0.1,0.2,0.1,0.3,0.2,0.4
			c0.4,0.7,0.3,1.1-0.6,1.4c-0.5,0.2-0.7,0.6-1,0.9c-0.4,0.5-0.8,0.8-1.5,0.7c-0.7,0-1.2-0.3-1.3-0.9c-0.2-0.7,0-1.3,0.6-1.6
			c0.2-0.1,0.4-0.2,0.6-0.3c0.2-0.1,0.4-0.4,0.4-0.6c0-0.9,0.7-1.2,1.4-1.4c0.7-0.3,1.5-0.2,2.3-0.2c0.3,0,0.5,0.2,0.6,0.5
			s-0.2,0.4-0.4,0.5C257.1,42.2,256.7,42.4,256.3,42.6z M326.8,34c1-0.1,1.6,0.5,2.1,1.1c0.3,0.3,0.1,0.8-0.3,1
			c-0.3,0.2-0.7,0.4-1.1,0.4c-1.4,0.3-2.7,0.8-3.8,1.7c-0.3,0.2-0.6,0.4-1,0.6c-0.5,0.2-1,0.1-1.4-0.2s-0.4-0.7-0.2-1.1
			c0.7-1.1,1.6-2.1,3-2.7c0.4-0.2,0.8-0.4,1.2-0.6C325.8,34.1,326.3,34,326.8,34z M288.7,43c-0.3,0-0.6,0-0.8,0
			c-0.5-0.1-0.8-0.4-0.9-1.1c-0.1-0.9,0.2-1.4,1-1.2s1.6,0.1,2.4,0c0.9-0.1,1.7-0.5,2.5-1.1c0.9-0.8,1.1-0.8,2,0.2
			c0.3,0.3,0.7,0.6,0.9,1c0.5,0.7,0.3,1.3-0.4,1.4c-1.6,0.2-3.1,0.5-4.7,0.6C290,42.9,289.4,43.1,288.7,43z M385.2,28
			c0.2,0,0.4,0,0.5,0c0.7,0.3,1.5,0.1,2.2,0.2c0.8,0.1,1.5,0.1,2.3,0.1c0.4,0,0.7,0.1,0.8,0.5c0.1,0.4-0.1,0.7-0.4,0.9
			c-0.6,0.5-1.2,1.1-1.7,1.8c-0.4,0.5-0.7,0.5-1.2,0.2s-0.9-0.6-1.4-0.8c-0.2-0.1-0.4-0.2-0.5-0.4c-0.3-0.6-0.7-0.7-1.3-0.7
			c-0.5,0-0.9-0.3-1.3-0.6c-0.4-0.4-0.3-0.9,0.3-1C384.1,28.1,384.7,28.1,385.2,28z M130.5,30.8c-0.6,0.2-1.3,0.1-2,0.4
			c-0.4,0.2-0.8,0-1.1-0.1c-0.4-0.1-0.5-0.4-0.2-0.6c0.3-0.3,0.3-0.7,0.4-1c0.1-0.9,0.8-1.2,1.5-1.5c0.5-0.2,0.9-0.4,1.3-0.7
			c0.1-0.1,0.2-0.1,0.3-0.2c0.3-0.1,0.6-0.1,0.8,0.1c0.2,0.3,0.1,0.5-0.1,0.7c-0.1,0.1-0.1,0.2-0.2,0.3c-0.2,0.4-0.2,0.5,0.2,0.6
			c0.4,0.2,0.7,0.4,0.9,0.9c0.2,0.4,0.4,0.8,0.6,1.2c0.3,0.6,0.1,1.1-0.3,1.4c-0.4,0.4-0.9,0.7-1.5,0.7c-0.4,0-0.6-0.2-0.4-0.6
			c0.1-0.2,0.2-0.4,0.4-0.5c0.2-0.2,0.5-0.3,0.3-0.6C131.2,30.9,131,30.8,130.5,30.8z M104.4,44c0.5,0,0.8,0.1,1.1,0.2
			c0.9,0.5,1.8,0.7,2.8,1c0.3,0.1,0.6,0.2,1,0.2c1.2,0,2.3,0.4,3.4,0.4c0.6,0,0.8,0.2,1,0.7c0.1,0.5,0.2,1,0.4,1.5
			c0.1,0.3,0,0.6-0.2,0.8c-0.3,0.2-0.6,0.1-0.8,0c-1.3-0.6-2.7-1.1-4.1-1.6c-1-0.4-2.1-0.5-3.1-0.8c-0.8-0.2-1.5-0.4-2.3-0.5
			c-0.5,0-0.9-0.2-1.2-0.6c-0.3-0.3-0.3-0.6,0.1-0.7C103,44.4,103.8,44.4,104.4,44z M148.5,31.9c-0.2,0-0.5-0.2-0.7-0.4
			c-0.7-0.6-0.9-0.6-1.5,0c-0.5,0.5-1,0.6-1.6,0.2c-0.4-0.3-0.8-0.5-1.2-0.8c-0.3-0.2-0.5-0.5-0.4-0.9s0.3-0.5,0.6-0.5
			c0.5-0.1,1.1-0.2,1.6-0.2c1.3,0,2.6-0.2,3.9-0.3c0.6,0,1.2-0.1,1.6-0.8c0.1-0.2,0.3-0.3,0.5-0.2c0.4,0.2,0.8,0.2,1.2,0.3
			c0.5,0.1,0.7,0.6,0.4,1.2c-0.1,0.2-0.2,0.4-0.5,0.6c-0.9,0.5-1.8,1-2.8,1.5C149.3,31.8,149,31.9,148.5,31.9z M47,32.5
			c0-0.9,0.4-1.4,1.4-1.5c1.2-0.1,2.2,0.2,2.8,1.2c0.2,0.3,0.5,0.4,0.8,0.5c0.5,0.1,1,0.2,1.5,0.2c0.3,0,0.6,0,0.8,0.1
			c0.6,0.2,0.7,0.5,0.5,1c-0.2,0.4-0.4,0.8-0.9,0.9c-0.4,0.1-0.7,0.4-0.9,0.6c-0.6,0.5-1,0.6-1.6,0.2c-0.4-0.2-0.7-0.5-0.5-1
			c0.1-0.3,0.1-0.6-0.2-0.9c-0.3-0.2-0.6-0.2-0.9,0c-0.3,0.1-0.6,0.2-1,0.3c-1,0.1-1.6-0.3-1.7-1.2C47,32.7,47,32.6,47,32.5z
			 M404,3.9c0,0.1,0,0.3,0,0.4c0,0.6-0.2,0.8-0.7,0.7c-1.5-0.1-2.8-0.8-3.8-2c-0.5-0.6-0.6-1.4-0.4-2.2c0.1-0.3,0.3-0.5,0.6-0.6
			c0.6-0.1,1.2-0.2,1.8-0.2c0.1,0,0.3,0,0.4,0.1c0.4,0.4,0.9,0.5,1.4,0.4c0.4-0.1,0.5,0.4,0.5,0.7C403.9,2.2,403.9,3,404,3.9
			L404,3.9z M174.8,22.8c-0.3,0-0.7-0.1-1.1-0.2c-0.6-0.2-1.2-0.2-1.8,0.2c-0.6,0.4-1,0.4-1.6-0.1c-0.5-0.4-1-0.7-1.3-1.3
			c-0.2-0.6-0.1-1.1,0.4-1.4c0.3-0.2,0.6-0.4,0.9-0.6c0.6-0.4,1-0.4,1.6,0c0.3,0.2,0.6,0.3,0.9,0.3c0.8-0.1,1.5-0.1,2.3-0.4
			c0.9-0.5,1.8,0.2,2.5,0.6c0.3,0.2,0.3,0.6,0.1,0.9c-0.2,0.4-0.5,0.8-0.7,1.2c-0.2,0.4-0.6,0.7-1.1,0.7
			C175.7,22.7,175.3,22.7,174.8,22.8z M175.6,20.2c-0.3,0-0.6,0.1-0.8,0.2s-0.4,0.3-0.3,0.5c0.1,0.2,0.3,0.4,0.5,0.4
			c0.3,0.1,1-0.3,1.2-0.6c0.1-0.2,0-0.3-0.1-0.4C175.9,20.3,175.7,20.3,175.6,20.2z M376,34.5c0-0.8,0.2-1.1,1.1-1.2
			c0.4,0,0.9,0,1.3,0.3c0.3,0.2,0.6,0.2,0.9,0.2c0.5,0,0.9,0,1.4,0.1c0.6,0.2,0.9-0.1,0.7-0.7c-0.1-0.3-0.2-0.5-0.3-0.7
			c-0.1-0.4-0.1-0.7-0.1-1.1c0.1-0.5,0.4-0.6,0.8-0.3c0.3,0.2,0.6,0.4,0.7,0.7c0.4,0.8,1.1,1.2,1.7,1.8c0.1,0.1,0.3,0.2,0.5,0.3
			c0.3,0.2,0.3,0.5,0.2,0.8c-0.1,0.3-0.4,0.4-0.7,0.4c-1.1,0-2.2,0.2-3.2,0.3c-0.4,0-0.8,0.1-1.1,0.3c-0.9,0.3-1.9,0.2-2.9,0.4
			c-0.4,0.1-0.7-0.2-0.9-0.5C376,35.2,376,34.9,376,34.5z M115,31.5c-0.1,0-0.3,0-0.4-0.1c-0.4-0.2-0.8-0.2-1.2-0.2
			c-0.5,0-1-0.1-1.4-0.4c-0.7-0.5-1-0.4-1.7,0.1c-0.4,0.3-0.9,0.5-1.1,1c-0.1,0.2-0.3,0.2-0.5,0.2c-0.5,0-0.9-0.2-1.3-0.4
			c-0.3-0.1-0.3-0.3,0-0.5c0.2-0.1,0.4-0.2,0.7-0.2c0.3,0,0.5-0.1,0.6-0.4c0.1-0.2,0.2-0.3,0.4-0.4c1-0.4,1.8-1,2.7-1.6
			c0.4-0.3,0.8-0.4,1.3-0.4c0.3,0,0.5,0,0.8,0c0.4-0.1,0.7-0.1,0.9,0.3c0.1,0.2,0.3,0.2,0.5,0.3c0.5,0.2,1,0.3,1.5,0.6
			c0.5,0.3,0.6,0.6,0.3,1.1c-0.2,0.4-0.6,0.7-0.9,1C115.7,31.4,115.4,31.5,115,31.5z M164.4,38c-0.4-0.8-0.4-0.8-1-0.5
			c-0.3,0.1-0.7,0.2-1,0.1c-0.2-0.1-0.3-0.2-0.4-0.5c0-0.3,0.1-0.5,0.3-0.5c0.6-0.2,1.1-0.8,1.7-0.1c0.2,0.2,0.4,0.1,0.5-0.1
			c0.6-1.2,1.5-1.8,2.6-2.1c0.1,0,0.1,0,0.2,0c1-0.7,2-1,3.2-1.1c0.3,0,0.4-0.2,0.5-0.5s0.3-0.6,0.5-0.7c0.6-0.2,1-0.6,1.6-0.8
			c0.5-0.2,1-0.3,1.3-0.9c0-0.1,0.1-0.1,0.2-0.1c0.1,0.1,0.2,0.2,0.1,0.3c-0.3,0.5-0.1,0.9,0.1,1.3c0.2,0.3,0.2,0.6,0.2,0.9
			c0,0.8-0.1,0.9-0.8,1.1c-1.1,0.3-2.2,0.6-3.3,0.9c-0.2,0.1-0.4,0.1-0.7,0.1c-1,0.1-1.9,0.5-2.8,0.9c-0.7,0.3-1.3,0.9-1.9,1.5
			C165.2,37.6,164.9,37.9,164.4,38L164.4,38z M34.2,37c-1,0.1-1.8-0.5-2.7-0.6c-0.1,0-0.2-0.1-0.3-0.2c-0.4-0.7-1-1.1-1.6-1.5
			c-0.1-0.1-0.2-0.2-0.3-0.3c-0.4-0.5-0.3-0.8,0.2-1.2c0.1,0,0.1-0.1,0.2-0.1c0.9-0.1,1.8-0.5,2.8-0.4c1.3,0.1,2.6-0.1,3.8-0.5
			c0.5-0.1,1-0.2,1.4-0.2c0.3,0,0.5,0.2,0.3,0.5c-0.2,0.5-0.5,1-0.9,1.5c-0.6,0.6-1,0.7-1.7,0.4s-1.4-0.1-2.1,0
			c-0.1,0-0.2,0.1-0.2,0.2c0,0.2,0,0.3,0.2,0.3c0.3,0.1,0.7,0.3,1,0.4c0.4,0.1,0.7,0.3,0.9,0.6c0.2,0.2,0.3,0.3,0.2,0.6
			s-0.3,0.3-0.5,0.4C34.6,37,34.4,37,34.2,37z M69.8,35c-1.5-0.1-3-0.2-4.2-1.4c-0.3-0.3-0.5-0.5-0.6-0.9c-0.1-0.5,0.2-0.7,0.6-0.6
			c0.1,0,0.2,0.1,0.3,0.2c0.6,0.3,0.6,0.3,1.1-0.2c0.2-0.2,0.4-0.2,0.7-0.2c0.4-0.1,0.7-0.2,0.7-0.7c0-0.4,0.3-0.5,0.6-0.6
			c0.5-0.1,0.9-0.2,1.4-0.2c0.9-0.1,1.8-0.2,2.6-0.3c0.3,0,0.7-0.1,0.9,0.3c0.1,0.3-0.1,0.7-0.5,1c-0.1,0.1-0.3,0.2-0.5,0.2
			c-0.2,0.1-0.3,0.2-0.3,0.4c0.1,0.9-0.7,1.4-1,2.2C71.4,35,70.6,35,69.8,35z M129.7,56c-1,0.1-1.4-0.3-1.6-0.9
			c-0.3-0.8,0.2-1.6,1-1.5c0.1,0,0.3,0,0.4,0.1c0.8,0.5,1.6,0.4,2.5,0.4c0.4,0,0.6-0.1,0.5-0.6s-0.1-1.1-0.4-1.5
			c-0.1-0.1-0.1-0.2-0.1-0.3c-0.2-0.7-0.1-1.3,0.3-1.5c0.5-0.3,1.2-0.2,1.6,0.2c0.3,0.3,0.6,0.7,0.9,1.1c0.6,0.8,1.2,1.5,1.8,2.2
			c0.1,0.1,0.2,0.3,0.3,0.4c0.2,0.3,0.1,0.6-0.2,0.7c-0.2,0.1-0.5,0.1-0.7,0.2c-0.9,0.1-1.7,0.2-2.6,0.2c-0.2,0-0.5,0-0.7,0.1
			C131.7,56,130.5,55.8,129.7,56z M297.9,14c-0.3,0-0.6-0.1-0.9-0.1c-0.6-0.1-1-0.2-1.1-0.9c-0.1-0.6-0.7-0.8-1.3-0.8
			c-0.3-0.1-0.7,0-1.1-0.1c-0.6-0.2-0.7-0.6-0.3-1c0.6-0.6,1.6-0.8,2.4-0.3c0.5,0.2,0.8,0.2,1.1-0.2c0.4-0.5,1-0.7,1.3-1.2
			c0.2-0.4,0.6-0.4,1-0.4c0.9-0.1,1.7,0.1,2.6,0.2c0.4,0,0.5,0.3,0.4,0.7c0,0.1-0.1,0.2-0.2,0.3c-1,1-1.7,2.2-2.4,3.3
			C299,14,298.4,14,297.9,14z M264.2,37.5c-0.2,0-0.3,0-0.4,0c-1.1,0-1.3,0.2-1.2,1.2c0,0.1,0,0.3,0,0.4c0.1,0.8-0.1,1.1-0.9,0.7
			c-0.9-0.4-1.8-0.5-2.6-1.1c-0.3-0.2-0.8-0.1-1.2-0.1c-0.3,0-0.7,0-0.8-0.4c-0.1-0.4,0-0.7,0.3-1c0.6-0.7,1.3-1.1,2.3-1
			c0.7,0.1,1.2-0.2,1.6-0.8c0.2-0.3,0.4-0.5,0.7-0.1c0.3,0.4,0.8,0.4,1.2,0.3c1-0.2,2-0.2,3-0.3c0.9-0.1,1.7,0.3,2.5,0.6
			c0.3,0.1,0.5,0.3,0.5,0.6s-0.3,0.5-0.5,0.6c-0.1,0.1-0.3,0.1-0.4,0.1C266.7,37.2,265.5,37.6,264.2,37.5z M189.2,18
			c0.6-0.1,1.2,0,1.9,0.1c0.4,0.1,0.9,0.1,1.3,0c0.3,0,0.6-0.1,0.8,0c0.5,0.2,1.3,0.2,1.4,0.9c0.2,0.8,0.7,1.7-0.2,2.5
			c-0.2,0.2-0.4,0.5-0.6,0.8c-0.5,0.8-1.5,0.9-2.2,0.3c-0.3-0.2-0.6-0.3-1-0.2c-0.4,0.1-0.8,0.1-1.1,0s-0.6-0.2-0.6-0.5
			c-0.1-0.3,0.1-0.5,0.3-0.6c0.3-0.1,0.6-0.3,0.8-0.4c0.7-0.2,1.1-0.9,1-1.5c-0.1-0.3-0.3-0.4-0.6-0.3c-0.5,0.1-0.8,0.3-0.9,0.7
			c-0.1,0.3-0.1,0.7-0.6,0.8c-0.6,0.1-1.1,0.2-1.7,0.1c-0.2-0.1-0.3-0.2-0.4-0.4c0-0.1-0.1-0.2-0.1-0.3
			C186.9,18.2,186.9,18,189.2,18z M158.8,40.1c0.3,0,0.7,0,1-0.2c0.9-0.5,1.9-0.5,2.8-0.3c0.3,0.1,0.5,0,0.8-0.1
			c0.4-0.2,0.9-0.1,1.2,0.2c0.1,0.1,0.3,0.3,0.5,0.4c0.7,0.4,0.9,0.8,0.7,1.6c-0.1,0.4-0.1,0.7,0.1,1.1c0.1,0.1,0.1,0.2,0.1,0.3
			c0,0.3,0.1,0.6-0.2,0.7c-0.2,0.2-0.5,0.1-0.7-0.1c-1.4-0.9-3-1.2-4.5-1.8c-1.4-0.5-2.9-0.6-4.3-1.2c-0.2-0.1-0.5,0-0.8-0.1
			c-0.5-0.1-0.6-0.3-0.3-0.7c0.3-0.6,0.2-0.6-0.4-0.7c-0.3,0-0.7,0-0.7-0.4s0.3-0.6,0.6-0.8c0.3-0.1,0.7-0.2,1-0.2
			c0.7-0.1,1.1,0.3,1,1.1c0,0.1-0.1,0.3,0.1,0.4C157.5,39.6,158,40.2,158.8,40.1z M349.8,10c-1-0.5-2.1-0.6-2.9-1.5
			c-0.4-0.5-0.7-1-0.9-1.7c-0.2-0.9,0.4-1.7,1.3-1.8c0.7,0,1.4-0.3,2.1,0.1c0.2,0.1,0.4,0,0.6,0c1-0.1,2.1-0.1,3.1,0
			c0.4,0.1,0.8,0,1.3,0c0.7,0,0.9,0.3,0.5,0.8c-0.4,0.6-0.8,1.1-1.2,1.6c-0.2,0.2-0.5,0.3-0.8,0.3c-0.4,0-0.8,0.1-1.2,0
			c-0.6,0-1,0.2-1.4,0.6C349.8,8.9,349.4,9.3,349.8,10z M397.1,28.5c0-0.5,0.1-0.6,0.6-0.5s0.8,0.5,1.1,0.9c0.4,0.7,1,1.2,1.6,1.7
			c0.3,0.3,0.7,0.5,0.6,1c-0.1,0.5-0.7,0.7-1.2,0.7c-0.9,0-1.7,0.2-2.6,0.3c-0.1,0-0.3,0-0.4,0.1c-1,0.4-1.9,0.4-2.8-0.1
			c-0.2-0.1-0.5-0.1-0.7-0.1c-1.2-0.1-1.7-1-1-2c0.4-0.5,0.8-1.1,1.3-1.5s1.1-0.6,1.7-0.3c0.4,0.2,0.8,0.2,1.3,0.3
			C397.1,29.1,397.1,29,397.1,28.5z M306.2,41c-0.5,0-0.8-0.2-0.9-0.6c-0.2-0.7-0.4-1.4,0.2-2c0.3-0.3,0.6-0.7,0.8-1
			c0.3-0.3,0.6-0.5,1-0.5c1-0.1,2-0.4,3-0.8c0.4-0.2,0.8-0.1,1,0.3c0.4,0.6,0.9,1,1.4,1.5s0.5,1-0.1,1.4c-0.8,0.5-1.5,1.1-2.6,1
			c-0.4,0-0.7,0.2-1.1,0.3C308,40.9,307.1,40.8,306.2,41z M15,39c-1.4-0.3-2.7-1.1-3.6-2.4c-0.5-0.7-0.4-1.3,0-2
			c0.1-0.2,0.3-0.4,0.6-0.5c0.6-0.1,1.3-0.2,1.9-0.1c0.7,0.2,1.4,0.1,2,0c0.7,0,1.3,0,1.7,0.7c0.3,0.5,0.6,0.5,1.2,0.2
			c0.4-0.2,0.9-0.5,1.2,0c0.3,0.4-0.1,0.8-0.3,1.1c-0.4,0.4-0.6,0.9-0.9,1.4c-0.4,0.6-0.9,1-1.6,1.1c-0.3,0-0.6,0.2-0.8,0.3
			C15.9,39,15.5,39,15,39z M407,28.9c0,0.4-0.2,0.6-0.6,0.8c-1,0.5-1.7,0.2-2.5-0.2c-1.1-0.6-2.4-1-3.6-1.3
			c-0.5-0.1-0.9-0.2-1.4-0.4c-0.9-0.3-1.1-0.9-0.5-1.6c0.6-0.8,1.6-1.1,2.6-1.2c1.6-0.1,3.2-0.1,4.8,0c0.6,0,0.9,0.2,0.9,0.7
			C406.8,26.8,406.9,27.9,407,28.9z M162,31c-1.5,0-2.6-0.8-3.7-1.8c-0.5-0.5-0.4-1.1,0.3-1.4c0.8-0.4,1.8-0.5,2.7-0.6
			c0.2,0,0.4,0,0.6-0.1c0.9-0.1,0.9-0.1,1.3,0.7c0.2,0.4,0.5,0.3,0.7,0.2c0.4-0.1,0.7-0.2,1-0.4c1.3-0.6,2.8-0.5,3.9-1.5
			c0.3-0.2,0.8-0.3,1.2-0.3c0.3,0,0.7,0,0.9,0.4s-0.1,0.7-0.3,0.9c-0.8,1-1.9,1.7-3.1,2c-0.9,0.2-1.8,0.5-2.6,0.9
			C164.1,30.7,163,31,162,31z M304,19c-0.2,0-0.5,0-0.6-0.1c-1-0.7-2.3-0.8-3.1-1.8c-0.4-0.5-0.4-1,0.2-1.3s1.1-0.5,1.9-0.3
			c0.7,0.2,1.4,0.2,2.1,0.3c0.3,0.1,0.6,0,0.9-0.2c0.2-0.2,0.5-0.4,0.8-0.2c0.6,0.3,1,0.1,1.5-0.1c0.1,0,0.1,0,0.2,0
			c1.4,0.1,2.7-0.7,4-1.1c0.2-0.1,0.4-0.1,0.7,0c0.5,0.2,0.6,0.6,0.3,1c-0.1,0.1-0.2,0.2-0.3,0.3c-0.7,0.5-1.3,1.1-2,1.5
			s-1.5,0.8-2.2,1.2C306.9,18.9,305.4,18.8,304,19z M41,62.3c0-1.4,0.8-2.3,1.9-2.5c0.6-0.1,1.3-0.1,1.9-0.2
			c0.5-0.1,0.5-0.2,0.2-0.6c-0.3-0.4-0.3-0.7,0.2-0.9c0.4-0.2,0.9-0.1,1.2,0.4c0.2,0.3,0.4,0.5,0.8,0.7c0.2,0.1,0.4,0.3,0.5,0.5
			c0.4,0.7,1,1.2,1.6,1.8c0.1,0.1,0.2,0.2,0.3,0.3c0.3,0.3,0.4,0.6,0.3,1C49.8,63,49.5,63,49.2,63c-1.2,0-2.3,0.2-3.5,0.4
			c-1.1,0.3-2.2,0.4-3.3,0.6c-0.9,0.1-1.2-0.1-1.4-1C41.1,62.7,41,62.4,41,62.3z M263.3,18c-2-0.1-3.6-0.8-4.9-2.1
			c-0.2-0.2-0.3-0.4-0.3-0.6c0-0.4-0.1-0.8-0.1-1.2c0-0.5,0.3-0.7,0.8-0.5s0.9,0.2,1.3-0.2c0.2-0.2,0.6-0.3,0.9-0.3
			c1.5,0,2.9-0.3,4.4,0c0.3,0.1,0.7,0,1,0c0.2,0,0.4,0,0.5,0.2s0.1,0.5-0.2,0.7c-0.6,0.5-1,1.2-1.4,1.9c-0.3,0.4-0.6,0.8-0.8,1.3
			C264.3,17.8,263.8,18.1,263.3,18z M238.7,41c0.5,0,0.9,0.2,1.2,0.6c0.8,1.1,1.7,2,2.7,2.9c0.3,0.3,0.5,0.6,0.4,1s-0.5,0.5-0.9,0.5
			s-0.8-0.1-1.2-0.3c-0.5-0.3-0.9-0.3-1.2,0.2c-0.5,0.6-1.2,0.5-1.8,0.7c-0.9,0.3-1.9,0.3-2.9,0.4c-0.7,0.1-1.1-0.6-0.8-1.2
			c0.3-0.6,0.6-1.3,0.4-2c-0.1-0.3,0-0.5,0.2-0.7c1-0.8,2.2-1.5,3.4-2C238.3,41,238.5,41,238.7,41z M311,9.6c0-0.4,0.1-0.7,0.3-1
			c0.1-0.3,0.4-0.5,0.7-0.5c0.8,0,1.5-0.3,2.3,0.1c0,0,0.1,0,0.2,0c1.6-0.3,3.2,0,4.7,0c0.3,0,0.6,0,0.8,0.2c0.2,0.3,0,0.6-0.2,0.8
			c-0.8,0.8-1.3,1.7-1.9,2.6c-0.2,0.3-0.3,0.5-0.5,0.7c-0.6,0.6-1.1,0.6-1.7,0.1c-0.3-0.2-0.5-0.3-0.8-0.3c-1.2-0.1-2.3-0.4-3.1-1.3
			C311.3,10.6,311,10.2,311,9.6z M276.9,12c1.9,0.3,3.8-0.2,5.6,0.1c0.2,0,0.5,0,0.8,0c0.2,0,0.5,0,0.6,0.2c0.2,0.3,0.2,0.6-0.1,0.8
			c-0.4,0.4-0.7,1-1,1.5c-0.4,0.5-0.8,1-1,1.6c-0.3,0.8-1.1,1-2.2,0.8c-0.6-0.2-1.2-0.2-1.6-0.7c-0.1-0.1-0.3-0.2-0.5-0.2
			c-1-0.1-1.6-0.7-2-1.5c-0.1-0.2-0.2-0.4-0.3-0.6c-0.5-1,0-1.9,1.2-1.9C276.5,12,276.7,12,276.9,12z M281.1,15c0-0.1,0-0.2-0.2-0.3
			s-0.5-0.1-0.7,0c-0.1,0-0.2,0.1-0.2,0.2c0,0.3,0.2,0.4,0.5,0.4C280.8,15.3,281,15.3,281.1,15z M283.4,37.5c0.2,0,0.3,0,0.5,0
			c0.7,0.2,1.2-0.1,1.6-0.7c0.4-0.6,1-1,1.8-0.9c0.3,0,0.6,0.1,0.7,0.4c0.1,0.3,0,0.6-0.3,0.8c-0.5,0.4-1.1,0.5-1.5,0.9
			c-0.8,0.7-1.7,1.2-2.7,1.6c-0.8,0.3-1.8,0.4-2.6-0.1c-1.7-1-3.6-1.5-5.5-2c-0.2,0-0.4-0.1-0.5-0.1c-0.8-0.2-0.9-0.6-0.5-1.2
			c0.3-0.4,0.7-0.6,1.2-0.8c0.3-0.1,0.6-0.3,0.8-0.5c0.4-0.6,1.1-0.9,1.9-1s1.2,0.2,0.9,1c-0.2,0.6-0.2,0.6,0.4,1s1.2,0.9,1.9,1.2
			C282,37.5,282.7,37.6,283.4,37.5z M208.8,17c0.7,0.2,1.5,0,2.2,0.3c0.2,0.1,0.4,0.1,0.6,0c0.5-0.2,1-0.4,1.5-0.1
			c0.3,0.1,0.6,0,0.9-0.1c0.3,0,0.7-0.1,0.9,0.3c0.1,0.3-0.1,0.6-0.4,0.8c-0.8,0.7-1.1,1.7-1.7,2.5c-0.2,0.2-0.3,0.5-0.5,0.7
			c-0.5,0.6-1.2,0.8-1.9,0.6c-0.7-0.2-1.5-0.3-2.2-0.7c-0.9-0.5-1.8-1.2-2.2-2.2c-0.1-0.3-0.1-0.6-0.1-0.9c0-0.5,0.4-0.9,0.9-1
			C207.5,17.1,208.1,17.1,208.8,17z M112,56c0-0.9,0.6-1.5,1.2-2.1c0.7-0.6,1.4-1,2.2-1.5c0.5-0.3,1.1-0.4,1.6-0.5s0.9,0.3,1.1,0.7
			c0.4,0.7,1,1.2,1.5,1.8c0.1,0.1,0.3,0.2,0.2,0.3c0,0.6,0.3,0.9,0.8,1.1c0.3,0.1,0.4,0.5,0.2,0.8c-0.2,0.4-0.6,0.4-0.8,0.2
			c-0.6-0.6-1.1-0.5-1.5,0.2c-0.1,0.1-0.4,0.2-0.6,0.2c-1.5,0.2-3,0.7-4.6,0.8c-0.8,0-1.2-0.2-1.3-1.1C112.1,56.6,112,56.3,112,56z
			 M25.9,65c-1.8,0-2.2-1.1-1.6-2.7c0.4-1,1.3-1.6,2.1-2.2c0.4-0.3,0.9-0.6,1.4-0.8c1.2-0.5,1.8-0.3,2.5,0.6c0.7,1,1.4,2.1,2.4,2.8
			c0.2,0.2,0.4,0.4,0.3,0.8c-0.1,0.3-0.4,0.4-0.7,0.5c-0.6,0.1-1.1,0.1-1.7,0.2c-0.7,0.1-1.5,0.1-2.2,0.4
			C27.6,64.9,26.6,64.8,25.9,65z M382.8,1.1c0.6-0.1,1-0.1,1.5,0.1c0.2,0.1,0.5,0,0.8,0c0.6-0.1,1.1-0.1,1.7,0.1s1.3-0.1,1.9-0.1
			c0.1,0,0.3-0.1,0.4-0.1c0.3-0.1,0.6,0,0.8,0.3c0.2,0.2,0.2,0.5-0.1,0.7c-0.7,0.7-1.2,1.5-1.7,2.3c-0.1,0.2-0.2,0.4-0.3,0.6
			c-0.4,0.9-0.9,1.2-1.9,1c-1.1-0.2-2.3-0.5-3.2-1.1c-0.7-0.4-1.2-0.9-1.6-1.7c-0.3-0.6-0.1-1.2,0.2-1.8c0.1-0.2,0.4-0.3,0.6-0.3
			C382.3,1.1,382.6,1.1,382.8,1.1z M366.2,4c1.3,0.3,2.7,0,4,0.1c0.7,0,1.5,0.1,2.2,0.1c0.6,0,0.7,0.4,0.4,0.9
			c-0.3,0.4-0.8,0.7-1,1.2c-0.4,0.7-0.8,1.3-1.1,2C370.4,8.8,370,9,369.3,9c-1,0-1.9-0.2-2.8-0.6c-0.1,0-0.2-0.1-0.2-0.1
			c-0.2-0.6-0.8-0.8-1.3-1c-0.8-0.4-1.2-1.7-0.9-2.5c0.1-0.3,0.4-0.5,0.7-0.6C365.3,4.1,365.7,4,366.2,4z M99.7,58
			c-0.6-0.2-1.2,0.2-1.8,0.3c-0.2,0-0.4,0.2-0.6,0.2c-1.2,0-2.3,0.3-3.5,0.5s-2.1-1.1-1.6-2.2c0.3-0.8,0.8-1.4,1.5-2
			c0.8-0.6,1.7-1.1,2.7-1.6c0.8-0.4,1.7-0.2,2.3,0.5c0.8,0.9,1.8,1.8,2.8,2.6c0.2,0.2,0.4,0.3,0.5,0.6c0.3,0.6,0.1,0.9-0.6,1
			c-0.3,0-0.7,0.1-1,0.1C100.1,58,99.9,58,99.7,58z M60.3,63c-0.6,0-1.1-0.3-1.2-0.9c-0.2-0.9-0.1-1.7,0.5-2.4
			c0.9-1.1,2-1.9,3.3-2.5c0.9-0.4,1.5-0.2,2.1,0.5c0.9,1,1.7,2.2,2.8,3.1c0.4,0.3,0.3,0.8-0.2,1c-0.4,0.1-0.8,0.2-1.1,0.2
			c-1.2,0.1-2.4,0.2-3.5,0.6C62,62.9,61.1,62.9,60.3,63z M203.8,44c0.4,0,0.9,0.1,1.1,0.5c0.6,1,1.5,1.8,2.3,2.6
			c0.2,0.2,0.4,0.4,0.6,0.6c0.4,0.5,0.3,1-0.4,1.2c-0.2,0.1-0.4,0.1-0.6,0.1c-1.4,0.1-2.7,0.3-4,0.6c-0.8,0.2-1.7,0.3-2.6,0.4
			c-0.5,0.1-0.9-0.2-1.1-0.7c-0.3-0.9,0-2.2,0.6-3c0.8-1,1.9-1.5,3-2.1C203.1,44.1,203.4,44,203.8,44z M218.5,49
			c-0.9,0-1.2-0.3-1.4-1c-0.4-1.3,0.4-2.1,1.1-2.9c0.8-0.9,1.8-1.5,2.8-1.8c1.2-0.4,1.5-0.3,2.2,0.7c0.6,0.9,1.4,1.6,2.1,2.3
			c0.1,0.1,0.2,0.1,0.3,0.2c0.3,0.2,0.5,0.5,0.4,0.9s-0.4,0.5-0.8,0.6c-1,0.1-2,0.2-3,0.4c-0.2,0-0.4,0-0.6,0.1
			C220.6,49.1,219.4,48.7,218.5,49z M331.2,7c1.4,0.3,2.8,0,4.1,0.1c0.7,0,1.3,0.1,2,0.1c0.6,0,0.8,0.3,0.5,0.9
			c-0.3,0.5-0.7,0.8-1,1.3c-0.4,0.6-0.8,1.2-1.2,1.9c-0.3,0.5-0.7,0.7-1.3,0.7c-1.2,0-2.3-0.3-3.4-0.9c-0.9-0.5-1.5-1.2-1.9-2.1
			c-0.3-0.8,0.1-1.6,0.9-1.8C330.4,7,330.8,7,331.2,7z M6.3,67C5.6,67,5,66.3,5,65.4c0.1-1,0.5-1.7,1.2-2.4c0.9-0.9,2-1.4,3.2-1.8
			c0.9-0.3,1.2-0.2,1.8,0.6c0.3,0.5,0.7,0.9,1,1.4s0.6,0.9,1.2,1.1c0.4,0.2,0.7,0.4,0.7,0.9c-0.1,0.4-0.5,0.7-1,0.8
			c-0.4,0-0.8,0.1-1.3,0.1c-0.9,0.1-1.8,0.2-2.7,0.5C8.1,66.9,7.2,66.8,6.3,67z M181,51.2c0-0.3,0.1-0.6,0.2-0.9
			c1-1.7,2.5-2.8,4.3-3.2c0.7-0.2,1.2,0.1,1.5,0.7c0.7,1.1,1.5,2,2.5,2.8c0.3,0.2,0.6,0.4,0.4,0.9c-0.1,0.4-0.4,0.6-0.8,0.6
			c-0.9,0.1-1.9,0.2-2.8,0.3c-0.4,0-0.8,0.1-1.2,0.3c-0.3,0.2-0.7,0.2-1.1,0.2c-0.4,0-0.8,0.1-1.2,0.1C181.5,53.2,181,52.7,181,51.2
			z M165.3,54c-0.8,0-1.4-0.6-1.3-1.4c0.1-1.1,0.4-2.1,1.3-2.8c0.8-0.6,1.6-1.1,2.5-1.5c1-0.5,1.7-0.3,2.4,0.7
			c0.6,0.8,1.3,1.6,2.1,2.3c0.1,0.1,0.2,0.2,0.2,0.2c0.3,0.3,0.6,0.6,0.4,1.1c-0.1,0.4-0.6,0.4-0.9,0.4c-1.8,0-3.5,0.5-5.2,0.8
			C166.3,53.9,165.8,53.9,165.3,54z M39.9,37c0.8,0.3,1.8,0.1,2.7,0.2c0.7,0.1,1.3,0.2,2,0.1c0.3,0,0.7,0,1,0.1
			c0.4,0.1,0.8,0.2,1.2,0.1c0.1,0,0.3,0,0.5,0c0.3,0,0.5,0.1,0.6,0.4c0.1,0.3-0.1,0.5-0.3,0.6c-0.9,0.5-1.8,1.1-2.8,1.4
			c-0.5,0.2-0.9,0.4-1.4,0.6c-0.7,0.2-0.8,0.2-1.3-0.3c-0.4-0.5-0.6-0.5-1,0c-0.6,0.8-1.4,0.9-2.4,0.8c-1.3-0.2-2.4-0.7-3.4-1.4
			c-0.6-0.4-0.5-1,0.2-1.2c0.9-0.2,1.6-0.8,2.4-1C38.6,37.1,39.2,37,39.9,37z M40.5,39.4c0.2,0,0.5,0,0.5-0.2s-0.2-0.3-0.5-0.4
			c-0.2,0-0.5,0-0.5,0.2C40,39.4,40.3,39.4,40.5,39.4z M148.5,39c-1.1,0-1.5-0.2-1.5-0.6c0-0.4,0.5-1,1.1-1.1c0.5-0.1,1-0.1,1.6-0.1
			c0.2,0,0.5,0,0.6-0.2c0.1-0.3-0.2-0.4-0.3-0.5s-0.2-0.1-0.3-0.2c-0.4-0.4-0.3-0.6,0.2-0.9c0.2-0.1,0.5-0.3,0.7-0.3
			c0.5-0.2,0.9-0.4,1-1c0.2-0.7,0.9-1.1,1.5-1.4c1-0.4,1.9-0.9,2.8-1.4c0.6-0.3,1.1-0.2,1.1,0.5c0.1,1,0.2,2,0.4,3.1
			c0.1,0.4-0.1,0.7-0.3,1c-0.3,0.4-0.2,0.6,0.3,0.7c0.3,0,0.6,0,1,0.1c0.6,0.2,1,0.6,0.8,1c-0.2,0.5-0.8,0.8-1.4,0.4
			c-1.1-0.7-2.2-0.5-3.4-0.2c-0.6,0.2-1.2,0.4-1.8,0.6C151,38.8,149.6,38.7,148.5,39z M216.2,22.8c0.5,0,1-0.1,1.4-0.1
			s0.6-0.3,0.7-0.6c0.1-0.4,0.4-0.6,0.8-0.7c0.2-0.1,0.4-0.1,0.7-0.2c1.1-0.5,2.1-0.1,2.6,1.1c0.1,0.3,0.3,0.5,0.7,0.4
			c0.1,0,0.3,0,0.4-0.1c0.2,0,0.4,0.1,0.5,0.3c0.1,0.2,0,0.4-0.2,0.5c-0.7,0.4-1.4,0.7-2.2,1c-1.4,0.5-2.8,1-4,1.9
			c-1.1,0.8-2.3,0.7-3.6,0.5c-1.2-0.2-2.1-0.9-2.8-1.9c-0.4-0.4-0.2-0.9,0.3-1s1-0.2,1.4-0.5c0.4-0.2,0.7,0,1.1,0.1
			c0.3,0.1,0.7,0.4,1,0.2c0.3-0.3,0.1-0.6,0-1c-0.2-0.4,0.1-1,0.5-1.1c0.2-0.1,0.5-0.2,0.7,0c0.3,0.1,0.1,0.4,0.1,0.6
			C216.3,22.5,216.3,22.6,216.2,22.8z M181.1,29c-0.4,0-0.8,0-1-0.4c-0.2-0.5-0.6-0.5-1-0.3c-0.5,0.2-1.1,0.2-1.6-0.1
			c-0.3-0.1-0.6-0.3-0.6-0.6c0-0.3,0.4-0.4,0.7-0.5c1.8-0.2,3.6-0.7,5.5-0.8c0.5,0,0.9-0.2,1.3-0.5c0.1-0.1,0.2-0.1,0.2-0.3
			c0-0.1-0.2-0.2-0.3-0.2c-0.3,0-0.5,0-0.8,0.1c-0.2,0.1-0.5,0.2-0.8,0.1c-0.4-0.1-0.5-0.3-0.3-0.6c0.3-0.4,0.5-0.7,0.1-1.1
			c-0.2-0.3,0.1-0.6,0.5-0.7c1.2-0.3,2.4-0.3,3.4,0.5c0.8,0.6,1.7,0.9,2.6,1.1c0.3,0.1,0.6,0.2,0.7,0.5c0.1,0.3-0.2,0.5-0.4,0.7
			c-1.7,1-3.5,2-5.5,2.6C183.1,28.9,182.1,28.9,181.1,29z M296.5,31c0.3,0,0.7,0.1,1.1,0.4c1,0.8,2.3,1,3.4,1.3
			c0.4,0.1,0.9,0.1,1.3-0.2c0.9-0.5,1.6-0.1,2.3,0.5c0.4,0.3,0.4,0.7,0,1.1c-0.1,0.2-0.3,0.3-0.5,0.4c-0.3,0.3-0.6,0.6-0.6,1.1
			s-0.3,0.8-0.6,1.1c-0.5,0.5-1,1-1.4,1.6c-0.6,0.8-1,0.8-1.8,0.3c-0.6-0.4-1.1-0.8-1.7-1.1c-0.5-0.3-0.8-0.8-0.7-1.5
			c0-0.4,0-0.8-0.1-1.1c-0.1-0.6-0.3-0.8-0.8-0.5c-1.2,0.8-2.2-0.1-3.1-0.6c-0.5-0.3-0.5-0.8-0.1-1.1
			C294.2,31.8,295.2,31.1,296.5,31z M234.4,24.9c-0.5,0.1-1,0-1.4,0.1c-0.2,0-0.3,0-0.4-0.1c-0.3-0.6-0.9-0.5-1.4-0.6
			c-0.7-0.2-1.3-0.8-1.9-1.3c-0.3-0.3-0.2-0.8,0.2-1c0.3-0.2,0.6-0.2,1-0.2s0.7,0,1.1,0c0.5,0,0.9-0.3,1-0.8s0.4-0.8,0.9-1
			c1.2-0.7,2.4-1.5,3.3-2.5c0.3-0.4,0.7-0.4,1-0.1c0.4,0.4,0.9,0.6,1.4,0.9c0.1,0,0.2,0.1,0.3,0.2c0.2,0.2,0.3,0.4,0.3,0.7
			c-0.1,0.3-0.3,0.4-0.5,0.4c-0.6,0.1-1.1,0.1-1.7,0.2c-0.2,0-0.5,0-0.7,0s-0.5,0.1-0.6,0.4c0,0.3,0.3,0.3,0.5,0.3
			c0.3,0,0.5,0.2,0.7,0.4c0.1,0.2,0.3,0.3,0.5,0.4c0.4,0.1,0.7,0.3,0.9,0.6c0.3,0.4,0.6,0.6,1.1,0.3c0.2-0.1,0.3-0.1,0.5-0.2
			c0.2,0,0.4-0.1,0.6,0.1c0.1,0.2,0,0.4-0.2,0.6c-0.1,0.1-0.2,0.3-0.3,0.3c-1.8,1.1-3.5,2.1-5.7,2C234.6,24.9,234.5,24.9,234.4,24.9
			z M236.4,22.1c-0.4,0-0.8,0.3-0.7,0.6c0,0.2,0.2,0.2,0.3,0.2c0.4,0,0.7-0.3,0.7-0.6C236.6,22.2,236.5,22.1,236.4,22.1z M316.2,31
			c0.7,0.2,1.7,0.4,2.6,0.6c1.4,0.3,2.5,1.2,3.8,1.6c0.6,0.2,0.6,0.8,0.1,1.1c-0.4,0.3-0.8,0.6-1.3,0.8c-0.7,0.4-1.3,0.9-1.8,1.5
			s-1,0.5-1.4-0.2c0-0.1,0-0.2-0.1-0.2c-0.1-0.4-0.3-0.3-0.6-0.1c-0.1,0.1-0.2,0.2-0.3,0.3c-0.4,0.3-0.8,0.4-1.2,0.1
			c-0.8-0.4-1.6-0.8-2.5-1.1c-0.5-0.2-0.6-0.6-0.3-1c0.4-0.4,0.8-0.9,1.4-1.1c0.2-0.1,0.4-0.2,0.4-0.4c0-0.3-0.3-0.3-0.5-0.4
			c-0.2,0-0.3-0.1-0.5-0.1c-0.4,0-0.6-0.3-0.6-0.6c0-0.4,0.3-0.5,0.7-0.6C314.7,31.1,315.3,31.1,316.2,31z M187.8,43.3
			c0.3,0,0.6,0.1,0.9,0.1c0.5,0.1,1,0.1,1.5-0.2c0.4-0.2,0.9-0.3,1.3-0.3c0.8,0,1.5,0.2,2.2,0.4c0.3,0.1,0.7,0.2,0.8,0.5
			c0.3,0.6,0.8,0.5,1.3,0.3s1-0.4,1.5-0.6c0.8-0.3,1.9,0,2.5,0.6c0.3,0.3,0.2,0.6-0.2,0.9c-0.6,0.4-1.2,0.9-1.8,1.3
			c-0.8,0.5-1.3,1.1-1.9,1.8c-0.8,1-1.1,1-2.1,0.4c-1.5-1-3.1-1.8-4.8-2.3c-0.7-0.2-1.5-0.3-2.3-0.6c-0.7-0.3-0.9-0.8-0.4-1.4
			C186.7,43.8,187.1,43.3,187.8,43.3z M61.7,36.7c0.5,0,1-0.1,1.4-0.1c0.3,0,0.6,0.1,0.7,0.6c0.1,0.4-0.2,0.6-0.5,0.7
			c-0.9,0.2-1.6,1.2-2.7,0.9c-0.3-0.1-0.4,0.1-0.5,0.4c-0.2,0.5-0.5,0.7-0.9,0.7c-1.4,0.2-2.8,0.4-4.2-0.4c-1-0.6-1.1-0.6-1-2.1
			c0.1-0.8,0.6-1.6,1.3-1.7c0.6-0.1,1-0.4,1.4-0.8c0.4-0.4,0.9-0.7,1.3-1c0.5-0.3,0.9-0.6,1.2-1.1c0.8-1.2,2.6-0.8,2.8,0.5
			c0.1,0.5,0.4,0.7,0.8,0.7c0.1,0,0.2,0,0.3,0c0.4,0,0.7,0.1,0.8,0.6s-0.3,0.6-0.5,0.8c-0.3,0.2-0.7,0.2-1,0.5
			C62.2,35.9,61.9,36.1,61.7,36.7z M55.9,37.8c0.2-0.1,0.8,0.2,0.8-0.4c0-0.5-0.6-0.3-0.9-0.3c-0.1,0-0.1,0-0.2,0
			c-0.2,0.1-0.6,0-0.6,0.4c0,0.5,0.4,0.3,0.7,0.3C55.8,37.8,55.8,37.8,55.9,37.8z M58.9,37.6c-0.1-0.3-0.2-0.4-0.4-0.3
			c-0.3,0.1-0.5,0.2-0.5,0.6c0,0.2,0.2,0.3,0.4,0.2C58.6,38,58.9,38,58.9,37.6z M341,31.7c0,0.3-0.1,0.6-0.4,0.7
			c-0.3,0.2-0.7,0.4-1,0.6c-0.6,0.4-1.1,0.8-1.5,1.3c-0.2,0.2-0.4,0.4-0.6,0.5c-0.5,0.3-0.7,0.2-1-0.3c-0.3-0.6-0.5-1.1-0.5-1.8
			c0-0.4,0-0.9-0.4-1c-0.5-0.1-0.6,0.3-0.8,0.6c-0.5,0.7-1.3,1-1.9,1.5c-0.2,0.1-0.5,0.1-0.8,0c-1.2-0.5-2.4-0.7-3.6-1.1
			c-0.6-0.2-0.6-0.5-0.2-0.9c0.4-0.3,0.8-0.6,1.2-0.8c0.7-0.3,1.3-0.8,1.8-1.3c0.4-0.4,0.8-0.6,1.4-0.6c1.5-0.1,2.8,0.1,4.2,0.6
			c1.2,0.4,2.3,1,3.5,1.4C340.8,31.1,341,31.3,341,31.7z M2,40.5c0-0.3,0.1-0.7,0.7-0.9c1.5-0.7,2.8-1.8,4.1-2.9c0.9-0.8,2-1,3-0.1
			c0.7,0.7,1.7,0.9,2.2,1.8c0.2,0.3,0.5,0.2,0.8,0.2c0.2,0,0.5,0,0.7,0.1c0.5,0.2,0.6,0.8,0.2,1.1c-0.1,0.1-0.3,0.2-0.5,0.3
			c-0.5,0.3-1,0.5-1.3,1.2c-0.1,0.3-0.4,0.5-0.7,0.6c-0.6,0.3-1.2,0.5-1.7,0.8c-1.2,0.9-2.5,0.9-3.9,1c-0.5,0.1-1.1,0-1.6,0.2
			c-0.6,0.1-1.1-0.3-1.6-0.3c-0.2,0-0.2-0.4-0.3-0.6C2.2,42.3,2.1,41.5,2,40.5z M5.1,39.6c0.4,0.3,0.6,0.2,0.8,0
			c0.6-0.4,1.2-0.4,1.8,0c0.2,0.2,0.5,0.2,0.8,0.2c0.7,0,1.5,0,2.2,0.2c0.5,0.2,0.8-0.1,0.8-0.5c0.1-0.4-0.2-0.7-0.7-0.7
			s-1,0-1.5-0.1c-1-0.2-1.9,0.1-2.9,0.1C6.1,39,5.6,39.3,5.1,39.6z M200.7,25.1c-0.5,0.1-0.8,0.2-0.9,0.9c-0.1,0.7-0.2,0.8-0.9,1
			c-0.9,0.1-1.7,0.1-2.5-0.4c-0.5-0.3-1.1-0.3-1.6-0.6c-1-0.7-1-1.1-0.3-2c0.2-0.3,0.5-0.5,0.8-0.6c0.9-0.5,1.8-0.9,2.7-1.4
			c0.3-0.1,0.5-0.2,0.7-0.4c0.6-0.7,1.5-1.2,2.1-2c0.1-0.1,0.2-0.2,0.3-0.3c0.6-0.3,1.1,0,1.1,0.7c0,0.8,0,0.8,0.8,0.7
			c0.5-0.1,0.9,0,1.2,0.4c0.2,0.2,0.4,0.3,0.7,0.3c0.7,0,1.2,0.4,1.7,0.9s0.5,0.9,0,1.4c-0.4,0.4-0.9,0.7-1.3,1
			c-0.6,0.4-1.3,0.8-1.9,1.1c-0.4,0.2-0.9,0.5-1.4,0.5C201.1,26.4,200.8,26.2,200.7,25.1z M203.5,22.1c-0.2-0.1-0.4,0-0.6,0
			c-1.5,0.5-2.9,1.1-4.4,1.1c-0.2,0-0.4,0-0.6,0.2c-0.2,0.2-0.2,0.4,0,0.4c0.6,0.1,1.2,0.4,1.8,0.2c1.1-0.3,2.1-0.7,3.1-1.3
			C203.1,22.6,203.3,22.4,203.5,22.1z M93.1,37c-0.4,0-0.7,0-1.1,0c-0.5,0-0.9-0.2-1.2-0.5c-0.2-0.3-0.5-0.4-0.9-0.4
			c-0.6,0-1.1-0.2-1.5-0.6c-0.5-0.4-0.5-0.9,0.1-1.1c0.8-0.3,1.6-0.8,2.4-1c0.2-0.1,0.4-0.1,0.5-0.2c0.6-0.4,1.2-0.7,1.9-0.9
			c0.8-0.3,1.6-0.6,2.3-1c0.5-0.2,1.1-0.3,1.7,0c1.2,0.6,2.6,0.8,3.9,1.2c0.1,0,0.2,0,0.4,0.1c0.3,0.1,0.7,0.3,0.6,0.6
			s-0.3,0.7-0.8,0.7c-0.2,0-0.4,0-0.6,0c-0.4,0-0.7,0.2-0.8,0.5c-0.1,0.8-0.8,1.1-1.4,1.4c-0.6,0.2-1.1,0.4-1.7,0.7
			C95.5,36.9,94.3,37,93.1,37z M98.6,34.1c-1.9-0.3-3.5,0.3-5.1,0.8c1.4-0.1,2.7-0.2,4-0.3C98,34.6,98.3,34.4,98.6,34.1z M245.5,37
			c1.4,0.3,3,0.4,4.4,1c0.7,0.3,1.5,0.5,2.2,0.8c0.6,0.2,1,0.6,0.8,0.9c-0.2,0.2-0.6,0.3-1.3,0c-0.3-0.1-0.6-0.2-0.8-0.3
			s-0.5-0.1-0.7-0.1s-0.3,0.1-0.3,0.2c0,0.1,0.1,0.3,0.2,0.3c0.4,0.1,0.7,0.2,1,0.4c0.5,0.4,0.5,0.8-0.1,1c-0.3,0.1-0.6,0.2-0.9,0.2
			c-0.8,0.1-1.5,0.1-2.3,0.2c-0.3,0-0.6,0-0.9,0.2c-0.3,0.2-0.6,0.2-1,0.1c-0.1,0-0.2-0.1-0.3,0c-1.2,0.2-2.2-0.4-3.2-0.7
			c-0.6-0.2-1.2-0.3-1.8-0.4c-0.4-0.1-0.7-0.1-1.1-0.2c-0.6-0.2-0.7-0.4-0.3-0.9c0.6-0.8,1.5-1.2,2.3-1.8
			C242.7,37.1,244.1,37.2,245.5,37z M77.7,33c-0.2-0.1-0.2-0.2-0.2-0.2c-0.4,0-0.7-0.1-0.8-0.6c-0.1-0.5,0.2-0.8,0.5-1
			c0.3-0.3,0.7-0.3,1,0c0.3,0.2,0.6,0.4,0.8,0.7c0.5,0.4,1,0.8,1.5,1.1c0.5,0.2,0.9,0.4,1.2,1c0.1,0.4,0.5,0.3,0.8,0.4
			c0.5,0.1,0.5,0.4,0.3,0.8c-0.2,0.4-0.5,0.6-0.8,0.8c-0.5,0.3-0.9,0.6-1.3,0.9c-0.7,0.4-1.4,0.9-2.1,1.3c-0.5,0.3-1,0.5-1.6,0.6
			c-0.7,0.1-1.5,0.2-2.2,0.3c-1.2,0.1-2.3-0.2-3.3-0.9c-0.4-0.3-0.5-0.6-0.4-1.1c0-0.2,0.1-0.4,0.1-0.6c0-0.5,0.3-0.8,0.7-0.9
			c0.8-0.3,1.6-0.4,2.4-0.2c0.6,0.2,1.3,0,1.9,0.5c0.1,0.1,0.3,0.1,0.4,0c0.2-0.1,0.2-0.3,0.1-0.4c-0.2-0.2-0.4-0.2-0.6-0.2
			c-0.3,0-0.5,0-0.7-0.2c-0.4-0.3-0.5-0.7-0.4-1c0.2-0.4,0.5-0.5,0.9-0.4C76.5,33.7,77,33.3,77.7,33z M24.7,41.9
			c-0.7,0.1-1.4-0.2-1.9-0.7c-0.3-0.3-0.6-0.4-0.9-0.4c-0.5-0.1-0.9-0.2-1.3-0.4c-0.2-0.1-0.5-0.1-0.8-0.1c-0.2,0-0.4,0-0.5,0.3
			c0,0.3,0.2,0.3,0.4,0.3c0.6,0,1.1,0.3,1.6,0.4c0.1,0,0.2,0.1,0.2,0.1c0.3,0.2,0.7,0.3,0.7,0.8c0,0.4-0.5,0.8-0.9,0.8
			c-0.7,0.1-1.4-0.1-2.1-0.3s-1.3-0.7-1.9-1.3c-0.3-0.3-0.4-0.6-0.4-0.9c-0.1-0.3,0.1-0.6,0.4-0.6c0.6-0.1,1-0.4,1.4-0.8
			c0.1-0.1,0.3-0.2,0.4-0.2c0.8-0.1,1.3-0.6,2-1.1c1-0.8,2-1.6,2.9-2.5c0.3-0.3,0.6-0.3,0.9-0.1c0.2,0.1,0.3,0.2,0.5,0.3
			c1,0.9,2.1,1.5,3.3,2.2c0.3,0.1,0.5,0.2,0.8,0.3c0.6,0.2,0.7,0.9,0.3,1.4c-0.2,0.2-0.5,0.5-0.8,0.6c-0.6,0.4-1.2,0.9-1.9,1.4
			C26.4,41.7,25.6,41.9,24.7,41.9z M72.2,53.3c0.2,0.2,0.5,0,0.7-0.1c0.3-0.2,0.6-0.3,0.9-0.4c1.1-0.4,2,0.3,2.9,0.9
			c0.4,0.3,0.4,0.8-0.1,1.1s-0.9,0.7-1.4,1c-0.9,0.6-1.7,1.4-2.4,2.3c-0.8,1.1-1.2,1.1-2.2,0.4C69.8,58,69,57.4,68.1,57
			c-0.4-0.1-0.7-0.3-0.7-0.8s0.3-0.6,0.6-0.8c0.2-0.2,0.5-0.3,0.8-0.3c0.5-0.1,0.9-0.3,1.3-0.7c-0.5-0.5-0.9-0.6-1.5-0.4
			c-0.8,0.4-1.7,0.7-2.3,1.5c-0.3,0.4-0.9,0.4-1.4,0.2c-0.4-0.2-0.8-0.4-1.3-0.5c-0.6-0.2-0.8-0.8-0.4-1.4c0.5-0.8,1.2-1.4,2-1.9
			c1.2-0.8,2.6-1,4-1c0.9,0,1.1,0.2,1,1.2c0,0.2-0.1,0.4,0.1,0.4c0.2,0.1,0.3-0.1,0.4-0.3c0.4-1,0.7-1.2,1.6-0.7
			c0.6,0.3,0.7,0.9,0.2,1.4C72.4,53.1,72.2,53.1,72.2,53.3z M210,39c0.4,0,0.8,0,1.2,0.3c0.6,0.4,1.3,0.5,1.9,0.7
			c1.2,0.4,2.3,0.9,3.4,1.5c0.7,0.4,0.7,1.1,0,1.6c-0.4,0.3-0.8,0.4-1.2,0.5c-0.5,0.1-0.9,0.4-1.1,1c-0.2,0.5-0.5,0.9-0.9,1.2
			c-0.2,0.1-0.4,0.3-0.5,0.6c-0.5,0.7-1,0.8-1.7,0.4c-0.4-0.3-0.8-0.6-1.2-0.9c-1.4-0.9-2.8-1.5-4.4-1.9c-0.6-0.2-1.3-0.5-1.9-0.6
			c-0.3-0.1-0.5-0.4-0.5-0.7c0-0.4,0.2-0.7,0.5-0.7c0.5-0.1,1-0.2,1.5-0.2c1.2-0.2,2.2-0.7,2.9-1.8c0.2-0.3,0.4-0.5,0.7-0.6
			C209.1,39.1,209.5,39,210,39z M270.8,22c-0.2,0-0.3,0-0.4,0c-0.3,0-0.6,0-0.7-0.3c-0.1-0.4,0.1-0.6,0.4-0.8
			c0.2-0.1,0.4-0.2,0.6-0.2c0.4,0,0.8-0.2,1.2-0.4c0.1,0,0.3-0.1,0.2-0.3c0-0.2-0.1-0.2-0.3-0.3c-0.5-0.1-1.1-0.1-1.4,0.3
			c-0.6,0.6-1.3,0.9-2.2,1c-0.1,0-0.1,0-0.2,0c-0.4,0.1-0.7,0.5-1.2,0.3c-0.6-0.2-1.2-0.6-1.7-1.1c-0.4-0.4-0.3-0.7,0.2-0.9
			c0.8-0.3,1.6-0.6,2.3-1c0.9-0.4,1.8-0.9,2.5-1.5c0.9-0.8,2-0.9,3.1-0.9c0.5,0,0.9,0.2,1.2,0.5c0.8,0.5,1.6,0.9,2.5,1.2
			c0.1,0,0.3,0.1,0.4,0.2c0.7,0.3,0.7,1.1,0,1.4c-1.6,0.7-2.8,1.9-4.5,2.4C272.2,21.8,271.5,21.9,270.8,22z M226.8,37
			c1.3-0.2,2.5,0.3,3.7,0.6c1.4,0.4,2.6,1.1,3.9,1.7c0.7,0.3,0.8,1,0.2,1.5c-0.3,0.3-0.6,0.5-1.1,0.6c-0.6,0.1-1,0.4-1.2,1
			c-0.2,0.4-0.4,0.8-0.9,1c-0.4,0.2-0.5,0.6-0.8,0.9c-0.6,0.7-0.9,0.7-1.7,0.2c-0.9-0.6-1.8-1.2-2.8-1.7c-0.8-0.3-1.6-0.7-2.2-1.3
			c-0.3-0.4-0.7-0.6-1.3-0.3c-0.3,0.2-0.7,0-1,0c-0.7-0.2-0.9-0.8-0.5-1.4c0.8-1.2,1.7-1.5,3-1c0.5,0.2,1,0.6,1.6,0.6
			c0.2,0,0.4,0.2,0.5,0.4c0.1,0.1,0.2,0.3,0.3,0.3c0.3,0.2,1,0.1,1-0.2c0.1-0.5-0.3-0.5-0.6-0.6c-0.7-0.3-1.3-0.6-2.1-0.7
			c-0.5-0.1-0.6-0.4-0.6-0.9s0.3-0.5,0.6-0.6C225.7,37,226.2,37.1,226.8,37z M36.8,62c-0.3,0-0.4,0-0.6-0.1
			c-0.1-0.1-0.2-0.1-0.3-0.2c-2.2-1.7-4.7-2.6-7.2-3.4c-0.8-0.3-0.9-0.7-0.4-1.5c0.7-1.3,1.8-1.8,3.1-2c1.2-0.2,2.5-0.1,3.7-0.7
			c0.1-0.1,0.3-0.1,0.4,0c1,0.3,2.1,0.5,3,1.1c0.8,0.5,1.8,0.7,2.6,1.2c0.2,0.1,0.5,0.2,0.6,0.4c0.3,0.4,0.3,0.9-0.1,1.1
			c-1.5,0.9-2.8,2.1-3.9,3.5C37.5,61.7,37.1,62,36.8,62z M34.6,57.6c0.6,0,1.1-0.2,1.7-0.3c0.2,0,0.3-0.2,0.3-0.4
			c-0.1-0.2-0.2-0.3-0.4-0.3c-0.1,0-0.2,0-0.3,0.1c-0.3,0.2-0.7,0.2-1.1,0.1c-0.3-0.1-0.8-0.2-0.8,0.3C34,57.7,34.4,57.6,34.6,57.6z
			 M391.4,12c-0.7,0.1-1.3-0.1-1.5-1c-0.1-0.3-0.3-0.4-0.5-0.3c-0.7,0.2-1.4,0-2-0.4c-0.6-0.5-0.6-1.3,0.1-1.5
			c2.7-0.8,4.7-2.8,6.9-4.4c0.7-0.5,0.7-0.5,1.4-0.1c0.5,0.3,1,0.6,1.4,1c0.5,0.4,1,0.8,1.6,1c0.5,0.2,0.9,0.5,1,1.1
			c0.1,0.7-0.1,1.4-0.7,1.6c-0.4,0.2-0.8,0.4-1.1,0.8c-0.6,0.7-1.5,0.8-2.3,1.2s-1.5,0.9-2.5,0.8C392.7,11.8,392.1,11.9,391.4,12z
			 M250.8,23c-1.3-0.1-2.4-0.8-3.4-1.7c-0.6-0.6-0.5-1.2,0.3-1.6c1.7-1.1,3.6-1.9,5.1-3.4c0.3-0.3,0.6-0.6,0.9-0.8
			c0.7-0.6,1.2-0.6,1.9,0c0.4,0.4,0.9,0.6,1.4,0.9c0.3,0.2,0.7,0.4,0.9,0.9c0.1,0.3,0.5,0.4,0.7,0.4c0.3,0.1,0.6,0.1,0.9,0.1
			s0.5,0.1,0.6,0.4c0.1,0.4,0.1,0.7-0.2,0.9c-1.1,0.8-2.2,1.8-3.4,2.4c-0.5,0.2-1.1,0.1-1.6,0.2c-0.9,0.1-1.7,0.5-2.5,0.9
			C251.7,22.9,251.3,23,250.8,23z M360.1,7.8c0.4,0.1,0.7,0.1,0.9-0.1c0.4-0.2,0.7-0.1,1.1,0.1c0.8,0.4,1.6,0.9,2.5,1.1
			c0.5,0.1,0.6,0.9,0.1,1.4c-0.3,0.3-0.7,0.6-1.1,0.9c-1.3,0.9-2.6,1.8-4,2.3c-2.4,0.8-4.8,0.8-6.9-1c-0.2-0.1-0.4-0.3-0.5-0.5
			c-0.3-0.6-0.2-1,0.4-1.3c1.1-0.5,2.2-0.9,3.1-1.7c0.2-0.2,0.5-0.2,0.8-0.3c0.8-0.1,1.3-0.4,1.5-1.3c0.1-0.6,0.5-1,1-1.3
			c0.4-0.3,0.8-0.3,1.2,0.1c0.3,0.3,0.3,0.7,0,1.1C360.1,7.5,360.1,7.6,360.1,7.8z M51.6,53c0.4,0,0.8,0,0.9,0.5
			c0.1,0.3,0.3,0.4,0.6,0.3c1.6-0.3,3,0.5,4.5,1.1c0.3,0.1,0.6,0.2,0.8,0.4c0.4,0.2,0.6,0.5,0.6,1s-0.3,0.6-0.6,0.7
			c-0.6,0.3-1.1,0.8-1.8,0.9c-0.2,0-0.3,0.2-0.4,0.4c-0.3,1.1-1.2,1.6-1.9,2.4c-0.3,0.3-0.7,0.3-1.1,0c-0.7-0.5-1.5-0.9-1.9-1.8
			c-0.1-0.3-0.3-0.4-0.6-0.3c-0.5,0.3-1.1,0.1-1.5-0.2c-1.2-0.6-2.4-0.8-3.6-1.3C45.3,57,45,57,44.9,56.7c-0.1-0.4,0.1-0.6,0.3-0.9
			c0.1-0.1,0.3-0.2,0.5-0.3c0.3-0.2,0.6-0.4,0.8-0.8c0.5-1,1.4-1.4,2.4-1.6C49.9,53.2,50.7,53.1,51.6,53z M286.3,21
			c-1.5,0.1-2.7-0.7-3.8-1.6c-0.7-0.6-0.6-1.1,0.1-1.6c1.2-0.8,2.5-1.6,3.9-2.1c0.3-0.1,0.6-0.3,0.8-0.7c0.3-0.8,0.9-1.2,1.5-1.8
			c0.3-0.3,0.7-0.3,1-0.1c0.8,0.5,1.5,1,2.3,1.4c0.2,0.1,0.4,0.3,0.4,0.6c0.1,0.5,0.4,0.6,0.8,0.6s0.7,0,1.1,0.1
			c0.3,0,0.5,0.2,0.5,0.5c0,0.3,0,0.6-0.3,0.7c-0.1,0.1-0.2,0.1-0.3,0.2c-0.7,0.3-1.4,0.7-1.8,1.5c-0.1,0.2-0.4,0.3-0.6,0.4
			c-0.6,0.3-1.1,0.6-1.7,0.9C289.1,20.9,287.6,20.8,286.3,21z M323,18c-0.4-0.1-0.9-0.2-1.3-0.3c-1.1-0.3-2.3-0.6-3.2-1.4
			c-0.8-0.7-0.7-1.1,0.1-1.7c1.1-0.7,2.4-1,3.4-1.9c0.3-0.3,0.7-0.4,1.1-0.5c0.5,0,0.9-0.4,1-0.9c0.1-0.2,0.2-0.4,0.3-0.6
			c0.7-0.9,1-0.9,1.9-0.2c1.3,1,2.5,2,4.1,2.4c0.3,0.1,0.4,0.3,0.5,0.6c0.1,0.4-0.1,0.5-0.3,0.7c-1.4,1.2-3,2.1-4.6,2.9
			c-0.3,0.1-0.6,0.2-0.9,0.3c-0.6,0.1-1.2,0.2-1.8,0.5C323.2,18,323.1,18,323,18z M327.9,14.2c0.3,0,0.4-0.3,0.4-0.6
			s-0.2-0.4-0.5-0.4s-0.4,0.2-0.4,0.5S327.6,14.2,327.9,14.2z M140,39.8c-0.5-0.3-0.8-0.6-1-1.1c-0.1-0.3-0.4-0.4-0.8-0.4
			c-0.3,0.1-0.6,0.1-1,0.1c-0.6,0.1-1.1-0.1-1.6-0.5c-0.4-0.3-0.8-0.5-1.3-0.6c-0.1,0-0.2,0-0.3-0.1c-0.4-0.2-0.8-0.3-0.9-0.9
			c-0.1-0.6,0.4-0.8,0.8-0.9c0.8-0.3,1.5-0.7,2.2-1.2c0.7-0.4,1-0.4,1.3,0.4c0.2,0.4,0.5,0.5,0.8,0.6c0.6,0.1,0.8,0.4,1,1
			c0.1,0.4,0.3,0.7,0.5,1.1c0.2,0.5,0.4,0.6,0.8,0.4c1.2-0.6,2.5-0.7,3.8-0.9c0.8-0.2,1.8,0.9,1.7,1.7c0,0.3-0.2,0.5-0.4,0.6
			c-0.7,0.3-1,0.9-1.1,1.7c0,0.1-0.1,0.3-0.2,0.4c-0.2,0.5-0.1,1,0.3,1.4c0.3,0.3,0.6,0.6,0.8,0.9c0.2,0.4,0,0.6-0.4,0.6
			s-0.8,0-1.1-0.4c-0.5-0.7-0.5-0.6-1.3-0.4c-0.2,0.1-0.4,0.2-0.6,0.1c-1-0.4-2.1-0.5-3.2-0.7c-0.8-0.1-1-0.6-0.5-1.3
			C138.8,40.7,139.4,40.3,140,39.8z M113,51.3c0,0.4-0.2,0.5-0.5,0.7c-1.1,0.7-1.9,1.7-3,2.4c-0.2,0.2-0.3,0.5-0.5,0.7
			c-0.5,0.8-1.1,1.1-1.9,0.7c-0.6-0.3-1.2-0.7-1.8-1.1c-0.8-0.5-1.7-0.9-2.6-1.2c-1.1-0.3-2.1-0.7-3.1-1.1c-0.7-0.3-0.8-1-0.2-1.4
			c0.3-0.3,0.6-0.6,0.8-0.9c0.7-1,1.8-1.4,2.8-1.7c1.9-0.5,3.7-0.2,5.5,0.4c1.3,0.4,2.5,1,3.7,1.7C112.7,50.6,113,50.8,113,51.3z
			 M16.4,55c1.5,0.2,3,0.5,4.5,1.2c0.7,0.3,1.4,0.7,2.2,1c0.3,0.1,0.5,0.3,0.7,0.6c0.3,0.4,0.2,1-0.2,1.2c-1,0.5-1.7,1.3-2.5,2
			c-0.6,0.5-1.1,1.1-1.7,1.6s-0.8,0.5-1.3,0c-0.1-0.1-0.2-0.2-0.3-0.3c-2.1-0.9-3.9-2.2-6.2-2.7c-0.4-0.1-0.7-0.2-1-0.3
			c-0.6-0.2-0.7-0.8-0.3-1.3c1.3-1.4,2.7-2.7,4.6-2.9C15.3,55.1,15.9,54.9,16.4,55z M373.4,13c-1.6-0.3-3-0.9-4.2-2.1
			c-0.4-0.4-0.3-0.8,0.3-1.1c0.6-0.3,1.2-0.6,1.8-0.9c1-0.5,2-1.1,2.9-1.7c0.8-0.5,1.3-1.2,2-1.8s0.8-0.6,1.7-0.1
			c1.2,0.8,2.3,1.7,3.6,2.2c0.3,0.1,0.6,0.2,0.9,0.3c0.6,0.2,0.7,0.7,0.3,1.2c-0.1,0.1-0.1,0.1-0.2,0.2c-1.6,1.1-3.2,2.2-5,3
			C376.2,12.9,374.8,12.7,373.4,13z M86.2,50c2.6-0.1,4.4,0.6,6.2,1.3c0.7,0.3,1.4,0.6,2,1c0.8,0.5,0.8,1,0,1.5
			c-1.2,1-2.4,1.9-3.4,3.2c-0.2,0.2-0.4,0.4-0.6,0.6c-0.6,0.5-0.9,0.5-1.5,0s-1.4-0.8-1.7-1.7c-0.1-0.3-0.3-0.3-0.5-0.2
			c-0.3,0.2-0.7,0.1-1,0c-1.4-0.6-2.9-1-4.3-1.5C81,54,80.9,53.6,81.2,53c0.4-0.7,1-1.3,1.6-1.7C84.2,50.2,84.8,50,86.2,50z
			 M182,45.3c0,0.3-0.2,0.5-0.4,0.6c-1.5,1-2.8,2.2-4,3.6c-0.5,0.6-0.9,0.7-1.5,0.2c-1.7-1.3-3.7-2.2-5.6-2.9
			c-0.2-0.1-0.5-0.2-0.7-0.2s-0.4,0-0.6-0.1c-0.4-0.1-0.9-0.2-1.1-0.7c-0.1-0.6,0.3-0.8,0.6-1.1c0.6-0.8,1.7-1.1,2.2-2
			c0.1-0.1,0.3-0.2,0.4-0.2c1.1-0.2,2.2-0.6,3.3-0.4c1,0.1,2,0.3,2.9,0.7c1.3,0.4,2.5,1,3.7,1.6C181.6,44.5,182,44.7,182,45.3z
			 M382.9,16.6c-1.2-0.1-2.1-0.7-3.1-1c-0.1,0-0.2-0.1-0.3-0.2c-0.6-0.4-0.6-1,0.1-1.3c0.7-0.4,1.4-0.7,2.1-1.1
			c0.2-0.1,0.5-0.2,0.8-0.1c0.7,0.2,1.4,0.5,2.1,0.8c0.4,0.2,0.5,0.6,0.6,1c0,0.3,0.1,0.5,0.2,0.8c0.4,0.6,0.6,0.8,1.3,0.6
			c1-0.2,2-0.1,2.8,0.6c0.5,0.4,1.1,0.4,1.7,0.5c1.1,0.2,2.3,0.2,3.4-0.3c0.7-0.3,1.4-0.7,2.2-0.9c0.2,0,0.3-0.1,0.5-0.2
			c1-0.7,2-1.5,2.9-2.4c0.4-0.4,0.4-0.5-0.2-0.8c-0.1-0.1-0.3-0.1-0.4-0.2c-0.3-0.2-0.3-0.5,0-0.7c0.7-0.5,1.4-1,2.1-1.5
			c0.5-0.3,1.1,0,1.1,0.6c0.1,0.4,0.1,0.9-0.1,1.3c-0.5,1.1,0.5,2.3,1.4,2.8c0.4,0.2,0.6,0.5,0.7,0.9c0.1,0.6,0.2,1.3,0.1,1.9
			c0,0.2-0.1,0.4-0.3,0.5c-0.2,0.1-0.4-0.1-0.6-0.2c-0.4-0.3-0.4-0.6-0.4-1c0-0.3,0.1-0.7-0.3-0.9c-0.4-0.1-0.6,0.3-0.8,0.6
			c-0.9,1.2-2.1,1.9-3.5,2.4c-0.5,0.2-1.1,0.1-1.7,0c-0.5-0.1-1.1-0.1-1.6-0.1c-0.8,0-1.1,0.3-1.1,1.1c0,0.5-0.1,1-0.3,1.6
			c-0.2,0.5-0.5,0.8-0.9,0.9c-0.7,0.3-1.4,0.5-2.2,0.3c-0.9-0.2-1.7-0.5-2.6-0.7c-0.5-0.2-1-0.4-1.5-0.4s-0.8-0.3-1-0.8
			c0-0.1,0-0.2-0.1-0.3c-0.2-0.5-0.5-0.6-0.8-0.2c-0.6,0.7-1.2,0.6-2,0.5c-1.1-0.1-2.1-0.6-3.3-0.4c-0.3,0.1-0.7-0.1-0.8-0.5
			c-0.1-0.4,0.1-0.8,0.4-0.9c1-0.4,1.5-1.2,2.3-1.8C382.4,17.4,382.7,17.1,382.9,16.6z M103,36c0.3,0.3,0.3,0.7,0.3,1.2
			c-0.1,1.2,0.3,2.3,0.7,3.4c0.2,0.4,0.5,0.4,0.8,0.4c0.7-0.1,1.4-0.2,2.1-0.4c0.4-0.1,0.8-0.2,1.2-0.3c1.1-0.4,2.2-0.2,3.3-0.6
			c0.3-0.1,0.7-0.2,0.9-0.5c0.3-0.4,0.7-0.6,1.2-0.8c0.3-0.1,0.5-0.1,0.7,0.1c0.2,0.2,0.3,0.5,0.1,0.7c-0.3,0.5-0.2,0.7,0.3,1
			c0.4,0.2,0.4,0.7,0.4,1.1c0,0.2-0.1,0.4-0.1,0.6c0,0.3,0.2,0.6,0.5,0.5c1.1-0.3,2.1,0.3,3.1,0.2c0.5-0.1,0.9,0.2,1.4,0.3
			s0.7-0.1,0.6-0.5c-0.1-0.6-0.1-1.2-0.4-1.7c-0.4-0.8,0-1.4,0.9-1.3c0.6,0,1.3,0.2,1.9,0.2c0.2,0,0.4,0,0.5,0.2
			c0.2,0.6,0.8,0.9,1.1,1.3c0.1,0.1,0.2,0.3,0.3,0.4c0.3,0.5,0.6,0.6,0.9,0.1c0.5-0.8,1.2-1,2-0.9c0.4,0,0.6-0.2,0.9-0.5
			c0.4-0.5,0.5-0.5,1-0.1c0.8,0.5,1,1.4,1.4,2.2c0,0.1,0,0.3-0.1,0.4c-0.5,1.1-0.3,2.2-0.2,3.3c0,0.4,0.1,0.7,0.1,1.1
			c0,0.6-0.3,0.7-0.8,0.5c-0.6-0.3-1.1-0.6-1.7-0.8c-2.2-0.8-4.4-1.5-6.7-2c-1.3-0.3-2.6-0.3-3.9-0.7c-0.1,0-0.1,0-0.2,0
			c-1.2,0.1-2.4-0.3-3.7-0.1c-0.3,0-0.6,0.1-0.9,0.2c-1.4,0.6-2.7,0.3-4-0.2c-0.2-0.1-0.4-0.3-0.4-0.5c-0.2-0.7-0.7-0.8-1.3-0.9
			c-0.8-0.1-1.7,0.1-2.5-0.1c-0.3-0.1-0.4,0.1-0.6,0.3c-0.7,1.2-1.9,1.7-3.1,2.3c-0.3,0.1-0.7,0.2-1,0.4c-0.6,0.3-1.2,0.2-1.8,0.1
			c-0.5-0.1-0.9-0.1-1.4-0.1c-0.6,0-1.1,0.3-1.3,0.9c-0.2,0.7-0.6,1.4-0.2,2.2c0.3,0.5,0.2,1.2,0.2,1.9c0,0.3-0.3,0.5-0.5,0.4
			c-0.4-0.1-0.7-0.3-1-0.5c-0.8-0.5-1.8-0.8-2.6-1.3C91.3,49,91.1,49,91,49c-2.3-0.4-4.7-0.9-6.9-1.8c-0.3-0.1-0.6-0.1-1-0.1
			c-0.9,0.1-1.8,0-2.6,0c-1.6-0.1-3.2-0.4-4.8-0.4c0.3,0.2,0.5,0.3,0.7,0.4c0.4,0.3,0.6,0.6,0.4,1.1c-0.2,0.4-0.1,0.8,0.4,0.9
			c0.4,0.1,0.5,0.5,0.5,0.9c0,0.5,0,1.1,0.2,1.6s-0.2,0.8-0.7,0.7h-0.1c-1.3-0.9-2.9-1-4.2-1.9c-0.2-0.1-0.4-0.3-0.7-0.2
			c-0.7,0.2-1.3,0-1.9-0.3c-0.7-0.3-1.4-0.3-2.1-0.5c-2-0.5-4-0.6-6-0.8c-0.3,0-0.6,0-0.9,0c-0.9,0-1.5,0.7-1.4,1.6
			c0.1,0.5,0.1,0.9-0.1,1.3c-0.1,0.3,0,0.5,0.2,0.8c0.2,0.4,0.2,0.8,0.1,1.2c-0.1,0.3-0.3,0.5-0.6,0.3c-0.5-0.2-1-0.3-1.3-0.7
			c-0.4-0.4-0.9-0.6-1.5-0.6c-0.5,0-0.9-0.2-1.3-0.4s-0.6-0.5-0.4-1c0.2-0.5,0-0.7-0.5-0.7c-0.1,0-0.3,0-0.4,0c-0.6,0.2-1,0-1.4-0.5
			s-1-0.6-1.5-0.4c-0.7,0.3-1.5,0.4-2.3,0.7c-0.5,0.2-1.1,0.2-1.7,0.1c-1.3-0.3-2.6-0.4-3.9-0.2c-0.4,0.1-0.7,0.4-0.7,0.8
			c-0.1,0.9-0.6,1.4-1.4,1.7c-0.4,0.1-0.7,0.4-1,0.6c-1.3,0.7-2.5,0.3-3.7,0c-1.3-0.4-2.6-0.7-3.9-1c-1.8-0.4-3.7-0.4-5.6-0.6
			c-0.2,0-0.4,0-0.6,0c-0.9,0-1.3,0.4-1.4,1.3c0,0.5,0,1,0.1,1.5c0.1,0.6,0.2,1.3,0.1,1.9c-0.1,0.5-0.3,0.6-0.7,0.4
			c-0.2-0.1-0.3-0.1-0.5-0.2c-1.5-1-3.3-1.3-4.9-1.9c-1.8-0.6-3.6-0.9-5.4-1.2c-0.8-0.1-1.5-0.3-2.2-0.4c-1.1-0.2-2.2-0.1-3.2,0.2
			c-0.3,0.1-0.5,0.3-0.6,0.7c-0.3,1-0.3,1.9-0.1,2.9c0.2,1.4,0.1,1.5-1.2,1.1c-1.2-0.4-2.2-1-3.3-1.5c-0.2-0.1-0.4-0.3-0.4-0.5
			c-0.1-0.4-0.2-0.8-0.2-1.2c0-1.3-0.1-2.5-0.3-3.8c0-0.2,0-0.5,0-0.7c0-0.4,0.2-0.7,0.6-0.7c1.2-0.4,2.5-1,3.7-1.5
			c2.1-0.8,4.2-1.8,6.1-3c0.4-0.3,1-0.4,1.3-0.9c0.1-0.2,0.4-0.2,0.6-0.3c0.7-0.1,0.9,0.1,0.8,0.8c-0.2,1.1,0,2.1,0.5,3.1
			c0.4,0.7,0.6,0.9,1.4,0.7c1.5-0.2,2.8-0.7,4.3-1.1c1.2-0.3,2.3-1,3.6-1.3c0.8-0.2,1.5-0.7,2.3-1c1.6-0.8,3.1-1.7,4.6-2.9
			c0.5-0.4,0.9-0.3,1,0.4c0.1,0.4,0,0.8,0,1.2c0.1,1,0.1,1.9,0.6,2.8c0.2,0.4,0.5,0.5,0.9,0.5c1.5-0.3,3-0.6,4.5-1.1
			c0.9-0.3,1.9-0.6,2.8-1c1.4-0.5,2.7-1.3,4.1-1.9c0.5-0.2,1-0.4,1.6-0.4c0.4,0,0.7-0.2,0.9-0.6c0.2-0.7,0.8-1.1,1.5-1.3
			c0.5-0.2,0.7,0,0.8,0.5c0,0.3,0,0.6-0.1,0.9c-0.1,0.3-0.2,0.6-0.1,0.9c0.3,0.7,0.5,1.4,0.6,2.2c0.1,0.6,0.3,0.8,0.9,0.8
			c0.7,0,1.4,0.3,2.2,0.4c0.2,0,0.4,0.1,0.6,0.1c0.5,0,0.7-0.1,0.6-0.6c-0.1-0.7,0.2-1,0.8-1.2c1.4-0.5,2.7-1,4.1-1.4
			c0.1,0,0.2,0,0.3-0.1c1-0.7,2.2-0.8,3.4-0.9c0.8-0.1,1.5-0.4,2.3-0.6c0.3-0.1,0.4-0.2,0.2-0.5c-0.3-0.4-0.1-0.6,0.2-0.9
			c0.4-0.2,0.7-0.5,1-0.7s0.4-0.1,0.5,0.2c0,0.2,0.1,0.4,0,0.5c-0.4,1.2,0.3,2.2,0.7,3.2c0.2,0.6,0.4,0.7,1,0.6
			c1.4-0.2,2.8-0.5,4.2-1c0.4-0.1,0.7-0.1,1.1,0c0.9,0.2,1,0.2,1.5-0.7c0.2-0.3,0.4-0.5,0.7-0.5c0.6-0.1,1.1-0.4,1.6-0.7
			c0.4-0.2,0.8-0.5,1.3-0.4c0.2,0,0.4-0.1,0.5-0.2c0.6-0.7,1.4-1.1,2.3-1.3c0.4-0.1,0.7-0.4,1-0.8c0.3-0.4,0.7-0.6,1.1-0.8
			s0.6-0.1,0.7,0.4c0.1,0.3,0.1,0.6-0.1,0.9c-0.2,0.3-0.1,0.7,0.1,1c0.1,0.1,0.2,0.3,0.2,0.5c0,1.1,0.6,1.9,1.2,2.8
			c0.1,0,0.2,0,0.2,0c0.4-0.7,1-0.9,1.8-0.9c0.7,0,1.4-0.3,2-0.6c0.8-0.4,1.8-0.5,2.6-0.9c0.3-0.2,0.7-0.3,1-0.5
			c0.7-0.3,1-0.1,1.2,0.6c0.1,0.2,0.2,0.4,0.4,0.4c0.7-0.1,1.5,0.2,2.2,0.2c0.5,0,1-0.2,1.4-0.4c0.3-0.1,0.2-0.3,0-0.5
			c-0.4-0.2-0.8-0.2-1.2-0.2c-0.4,0-0.9,0.2-1-0.3c-0.2-0.5,0.3-0.7,0.6-0.9c0.2-0.1,0.4-0.3,0.5-0.5c0.5-0.7,1.3-1.1,2.1-1.3
			c0.6-0.1,0.9-0.4,1.3-0.8C102.6,36.3,102.7,36.1,103,36z M76.2,44.9c0.5,0.1,0.9,0.2,1.2,0.2c0.5,0.1,1.1,0.2,1.7,0
			c1-0.5,2.1-0.5,3.2-0.6c0.4,0,0.9-0.1,1.3-0.1c0.6-0.1,1.2-0.1,1.8-0.2c0.2,0,0.3-0.2,0.3-0.4s-0.2-0.2-0.3-0.2
			c-0.9-0.1-1.8-0.1-2.6-0.2c-0.3,0-0.7,0-0.9,0.3c-0.3,0.5-0.8,0.6-1.3,0.6s-0.9,0-1.4-0.1C78.1,43.9,77.1,44,76.2,44.9z M61.6,46
			c-0.3-0.2-0.6,0-0.9,0c-0.7,0.1-1.3,0-1.8-0.5c-0.1-0.2-0.3-0.3-0.5-0.4c-0.2-0.1-0.4-0.1-0.5,0c-0.4,0.5-0.9,0.8-1.3,1.2
			c-0.1,0.1-0.1,0.2,0,0.3s0.2,0.1,0.3,0.1c0.3-0.1,0.4-0.3,0.6-0.5c0.4-0.4,0.7-0.4,1,0c0.5,0.8,1.1,0.7,1.7,0.4
			c0.2-0.1,0.5-0.1,0.8-0.2C61.3,46.3,61.5,46.3,61.6,46z M89.8,45.2c0.5,0.9,1.4,1.2,2,0.9C91.9,46,92,46,92,45.8s-0.1-0.3-0.3-0.3
			C91.1,45.5,90.5,45.3,89.8,45.2z M271.5,33.2c0.3,0.2,0.6,0.2,0.7,0.4c0.2,0.2,0.4,0.5,0.1,0.7c-0.2,0.2-0.6,0.2-0.9,0
			c-0.7-0.6-1-0.9-1.9-1c-1.1-0.2-2-0.6-3-0.9c-1.1-0.3-2.3-0.5-3.4-0.8c-1.3-0.3-2.7-0.4-4-0.7c-1.2-0.2-2.4-0.3-3.6-0.2
			c-0.4,0-0.6,0.2-0.7,0.6c-0.3,0.9-0.2,1.7-0.2,2.6c0,0.3,0.1,0.5,0.1,0.8c0,0.7-0.5,1.1-1.2,0.8c-0.4-0.1-0.7-0.4-1-0.5
			c-1.9-0.6-3.7-1.4-5.6-1.7c-1.7-0.3-3.4-0.8-5.1-0.9c-1.2-0.1-2.4-0.3-3.6-0.2c-0.7,0.1-1,0.4-1.1,1.1c-0.2,1-0.3,2,0.2,3
			c0.2,0.4,0.1,0.7-0.2,0.9s-0.6,0.2-0.9,0c-1.3-0.8-2.7-1.2-4.1-1.7c-0.7-0.3-1.4-0.4-2.1-0.5c-0.4-0.1-0.8-0.2-1-0.7
			c-0.2-0.4-0.6-0.6-1-0.4c-1.1,0.6-2.2,0.1-3.3,0c-0.6,0-1.1-0.2-1.7-0.1c-0.6,0.1-1.2,0-1.8-0.1c-1.2-0.2-1.9,0.5-1.9,1.7
			c0,0.4,0.1,0.9,0.1,1.3c0.1,1.2-0.7,1.8-1.8,1.4c-0.7-0.3-1.4-0.7-2.2-0.7c-0.1,0-0.3-0.1-0.4-0.2c-0.4-0.3-0.4-0.6,0.1-0.8
			s1-0.4,1.6-0.5c0.4-0.1,1-0.1,1.1-0.7c-0.1-0.1-0.2-0.1-0.3-0.1c-1.1,0.5-2.4,0.5-3.4,1.2c-0.6,0.4-1.2,0.5-1.8-0.1
			c-0.1-0.1-0.1-0.1-0.2-0.2c-0.8-0.5-0.8-0.5-0.6-1.4c0-0.1,0-0.1,0-0.2c-0.4-0.1-0.9,0-1.3,0.1c-1.5,0.2-3.1,0.2-4.5,0.6
			c-0.3,0.1-0.6,0.1-1,0c-1-0.2-2.1-0.1-3,0.4c-0.3,0.1-0.6,0.2-0.9,0.2c-0.6,0.1-1.2,0.1-1.8,0.2c-0.5,0-0.9,0.1-1.3,0.5
			c-0.4,0.3-0.8,0.5-1.3,0.5c-0.9,0-1.6,0.4-2.5,0.6c-0.5,0.1-0.9,0.1-1.4-0.1c-0.4-0.2-0.9-0.2-1.3-0.2c-1.4-0.2-2.8-0.4-4.2-0.6
			c-0.6-0.1-1.2,0.1-1.8,0.1c-0.3,0-0.5,0.2-0.6,0.5c-0.5,0.9-0.7,1.9-0.3,2.9c0.1,0.3,0.3,0.7,0.3,1c0,0.6-0.2,0.8-0.7,0.7
			c-0.2,0-0.4-0.1-0.6-0.2c-1.2-0.8-2.6-1.1-3.9-1.6c-0.9-0.3-1.9-0.5-2.8-0.9c-0.2-0.1-0.4-0.1-0.6-0.1c-1.2,0-2.3-0.3-3.4-0.7
			c-0.4-0.2-0.8-0.2-1.3-0.1c-1.1,0.2-2.2-0.1-3.3-0.2c-0.8-0.1-1.2-1.2-0.9-1.9c0.1-0.2,0.3-0.3,0.6-0.4c1.2-0.4,2.4-1.1,3.6-1.4
			c0.7-0.2,1.4-0.5,2.1-0.1c0.3,0.1,0.6,0.1,0.9,0.1c0.4,0,0.8,0,1.2,0.1c0.9,0.2,1.6-0.2,2.3-0.7c0.5-0.4,1-0.6,1.6-0.7
			c0.4,0,0.7-0.2,1.1-0.3c0.3-0.1,0.6-0.2,0.8,0c0.6,0.5,1.3,0.7,1.8,1.3c0.4,0.4,0.5,0.4,0.9,0.1c0.4-0.5,0.9-0.7,1.5-0.5
			c0.3,0.1,0.5-0.1,0.6-0.2c0.4-0.3,0.7-0.7,0.7-1.3c0.1-0.5,0.3-0.8,0.8-0.9s0.7-0.3,0.8-0.8c0-0.3,0.2-0.5,0.5-0.6
			c0.4-0.3,0.8-0.5,1.1-1c0.2-0.4,1.6-0.4,2-0.1s0.4,1.1,0,1.4c-0.2,0.2-0.5,0.3-0.8,0.4c-0.3,0-0.6,0.1-0.8,0.2
			c0.3,0.2,0.6,0.1,1,0.1c0.6,0,1.1,0.1,1.3,0.7c0.3,0.7,0.8,0.8,1.4,0.7c1.4-0.2,2.8-0.5,4.2-1c0.7-0.3,1.6-0.3,2.3-0.6
			c0.2-0.1,0.4,0,0.5,0c0.3,0.1,0.5,0,0.7-0.2c0.1-0.1,0.2-0.2,0.3-0.3c0.6-0.5,1.4-0.3,1.7,0.4c0.3,0.8,0.8,0.9,1.5,0.7
			c0.2-0.1,0.4,0,0.6,0c0.5,0,1-0.1,1.4-0.4c1-0.7,2.1-0.6,3-0.1s1.8,0.4,2.7,0.7c0.1,0,0.3,0,0.4-0.2c0.4-0.6,1-0.9,1.7-1.1
			c0.7-0.3,1.3-0.4,2-0.5s1.3-0.2,2,0c0.2,0,0.4,0.1,0.5,0c0.8-0.5,1.9-0.4,2.7-1c0.2-0.1,0.3-0.2,0.4-0.5c0-0.2,0.1-0.4,0.1-0.5
			c0.2-0.3,0.4-0.6,0.8-0.4c0.2,0.1,0.4,0.1,0.6,0c0.1-0.2-0.1-0.3-0.2-0.3c-0.3-0.3-0.2-0.5,0.1-0.7c0.7-0.5,1.4-0.9,2.2-1.3
			c0.4-0.2,0.8-0.1,1,0.4c0.1,0.2,0.2,0.5,0.1,0.7c-0.1,0.8,0.2,1.6,0.3,2.5c0.1,0.6,0.3,0.8,0.9,0.8c0.7,0,1.5-0.1,2.2-0.3
			c0.4-0.1,0.8-0.2,1.2-0.3c0.9-0.1,1.7-0.6,2.6-0.8c2-0.6,3.9-1.5,5.8-2.4c1.1-0.5,2.3-1,3.1-2c0.3-0.3,0.6-0.4,0.9-0.5
			c0.4-0.2,0.6-0.1,0.6,0.3c0,0.3,0,0.5,0,0.8c0,0.5,0,1.1,0.1,1.6s0.2,1-0.2,1.4c-0.2,0.3,0,0.5,0.2,0.6c0.1,0.1,0.3,0.1,0.4,0.1
			c1.3-0.1,2.6,0,3.8-0.6c1-0.5,2.1-0.7,3.2-0.8c0.8,0,1.6,0,2.4-0.2c1-0.3,2-0.5,3.1-0.8c0.9-0.2,1.8-0.6,2.7-1.1
			c-0.4-0.1-0.8,0-1.1,0.1c-0.3,0-0.7,0.1-1.1,0.1c-0.2,0-0.6,0.1-0.7-0.2c0-0.3,0.2-0.5,0.4-0.6c0.1-0.1,0.3-0.2,0.5-0.3
			c1-0.2,1.8-1,2.6-1.6c0.1-0.1,0.2-0.1,0.3-0.2c0.5-0.3,0.8-0.1,0.8,0.4s0,1-0.2,1.5v0.1c0,0.2,0.6,2.3,0.7,2.4
			c0.3,0.3,0.6,0.3,1,0.2c1.1-0.1,2.1-0.4,3.2-0.6c0.6-0.1,1.1-0.3,1.7-0.2c0.2,0,0.4,0,0.6-0.2c0.3-0.3,0.8-0.3,1.1-0.5
			c0.8-0.5,1.6-0.7,2.4-1.1s1.6-0.8,2.4-1.2c1.2-0.6,2.3-1.2,3.3-2c0.3-0.2,0.6-0.6,1-0.4s0.4,0.6,0.4,1c0,0.6-0.2,1.1-0.6,1.6
			c-0.5,0.5-1.1,0.8-1.6,1.2c-0.2,0.1-0.5,0.1-0.8,0c-0.5-0.1-1-0.1-1.5,0.2c-0.4,0.2-0.8,0.2-1.3,0.3c-0.2,0-0.4,0-0.5,0.1
			c-0.2,0.1-0.5,0.2-0.4,0.5s0.3,0.2,0.5,0.2c0.5,0,1.1-0.1,1.6-0.3c0.5-0.2,1.1-0.3,1.6-0.4c0.7-0.1,1.3-0.2,2-0.5
			c0.5-0.2,1.2-0.2,1.5,0.4c0.2,0.4,0.7,0.6,1.1,0.5c0.7-0.1,1.4-0.1,2.1-0.5c0.2-0.1,0.4-0.1,0.6-0.2c2-0.3,3.8-1.1,5.7-1.9
			c0.9-0.4,1.7-0.7,2.6-1.1c1.3-0.7,2.6-1.4,3.8-2.3c0.3-0.2,0.6-0.6,1-0.3c0.4,0.3,0.4,0.7,0.3,1.1c-0.3,1.2,0.2,2.2,0.6,3.3
			c0.1,0.4,0.5,0.4,0.9,0.4c1.3-0.1,2.6-0.4,3.9-0.8c1.2-0.4,2.4-0.8,3.6-1.3c1-0.5,2.1-0.9,3.1-1.4c0.4-0.2,0.8-0.3,1.3-0.1
			c0.9,0.3,1.8,0.3,2.7,0.4c0.9,0,1.5,0.3,1.9,1.2c0.2,0.4,0.5,0.6,1,0.6c0.8,0,1.5-0.1,2.2-0.4c0.2-0.1,0.4-0.2,0.6-0.2
			c2.1-0.4,4-1.3,6-2c1.6-0.6,3.1-1.5,4.6-2.2c0.7-0.3,1.2-0.8,1.8-1.3c0.2-0.2,0.5-0.5,0.8-0.2c0.3,0.2,0.4,0.5,0.3,0.9
			c-0.3,1.1-0.1,2.1,0.3,3.1c0.2,0.6,0.5,0.8,1.1,0.8c0.1,0,0.2,0,0.3,0c1.5-0.4,3-0.6,4.5-1c1.2-0.4,2.3-1,3.5-1.2
			c0.3,0,0.6-0.1,0.9-0.1c0.4,0,0.7-0.1,0.9-0.5c0.3-0.5,0.8-0.8,1.4-1c1.2-0.5,2.3-1.1,3.2-1.9c0.2-0.2,0.4-0.4,0.6-0.5
			c0.4-0.2,0.8-0.1,0.8,0.3c0,1.2,0.5,2.3,0,3.5c-0.2,0.4,0,0.5,0.3,0.7c0.7,0.3,1.4,0.3,2.2,0.5c0.2,0,0.4,0,0.5,0.1
			c0.3,0,0.5,0.1,0.5,0.4s-0.2,0.4-0.4,0.5c-0.1,0-0.2,0.1-0.2,0.1c-1-0.1-2.1,0.2-3.1-0.4c-0.3-0.2-0.6-0.4-0.7-0.8
			s-0.4-0.6-0.8-0.5c-0.5,0.1-0.6,0.3-0.4,0.8c0.5,1.3,1.5,1.8,2.7,2.1c0.7,0.2,1.4,0.3,2.1,0.2c0.5,0,0.9-0.2,1.1-0.6
			c0.3-0.7,0.7-1.3,1-2c0.3-0.8,1-1,1.7-1.2c0.6-0.2,1.3-0.3,1.9-0.6c0.6-0.3,1.3-0.4,2-0.5c1.2-0.1,2.2-0.4,3-1.5
			c0.4-0.6,1.4-0.5,1.7,0.2c1.1,2.2,3.1,2.3,5.2,2.3c0.1,0,0.3,0,0.4-0.1c1.1-0.9,2.5-0.9,3.8-1.4c0.4-0.2,0.8-0.4,1.2-0.4
			c0.2,0,0.4-0.1,0.6,0.1c0.1,0.2,0.1,0.4-0.1,0.6c-0.3,0.4-0.6,0.7-1,1c-1,0.7-2,1.4-3,2.2c-0.4,0.3-0.3,0.5,0.1,0.7
			c1.2,0.6,2.5,0.7,3.9,0.6c0.8-0.1,1.1,0.1,1.1,0.9c0,0.1,0,0.1,0,0.2c-0.3,0.9-0.2,1.7,0.2,2.6c0.1,0.3,0.1,0.7-0.2,0.9
			c-0.3,0.2-0.6,0.1-0.9-0.1c-1.2-0.8-2.6-1-3.8-1.6c-0.2-0.1-0.5-0.1-0.7-0.1c-0.6-0.1-1.1-0.2-1.4-0.8c-0.2-0.4-0.7-0.5-1.1-0.5
			c-1.1,0.1-2.2-0.2-3.3-0.2c-0.3,0-0.7,0-0.8-0.4c-0.1-0.4,0-0.7,0.3-0.9c0.4-0.3,0.3-0.5-0.1-0.7c-0.8-0.3-1.7-0.6-2.5-1
			c-0.5-0.3-1-0.5-1.5-0.8c-0.5-0.4-0.6-0.3-1,0.2c-0.3,0.3-0.6,0.6-0.8,0.9c-1.2,1.6-2.7,2.7-4.4,3.7c-0.1,0.1-0.2,0.1-0.3,0.2
			c-0.4,0.3-0.4,0.6,0,0.7c0.7,0.3,1.4,0.7,2.2,0.7c0.5,0,0.9,0,1.4,0c0.7,0,1.5,1.1,1.2,1.8c-0.2,0.5-0.4,0.6-0.9,0.3
			c-1.1-0.7-2.3-1.1-3.5-1.4c-0.5-0.1-1-0.3-1.5-0.5c-1-0.5-2-0.5-3.1-0.8c-1.5-0.4-3.1-0.4-4.7-0.9c-0.6-0.2-1.2-0.6-1.7-0.8
			c-0.8-0.4-0.9-0.4-1.5,0.3c-1.2,1.5-2.5,2.7-4.1,3.7c-0.5,0.3-1,0.5-1.6,0.2c-0.2-0.1-0.4-0.1-0.6-0.1c-0.5-0.1-0.8-0.6-0.5-1.1
			c0.5-0.8,0.8-1.6,1.2-2.4c0.3-0.5,0.7-0.7,1.2-0.8c0.4,0,0.8,0,1.1-0.1c0.2,0,0.5,0,0.7-0.2c0.1,0,0.1-0.1,0.1-0.2
			s-0.1-0.2-0.2-0.2c-1,0-1.9-0.5-3-0.3c-1.4,0.2-2.8,0.5-4.2,0.6c-0.2,0-0.3,0-0.3,0.2c0,0.1,0,0.2,0.1,0.3
			c0.2,0.1,0.4,0.3,0.7,0.4c0.2,0.1,0.4,0.2,0.5,0.5c0.1,0.2,0.1,0.4-0.1,0.6c-0.1,0.2-0.3,0.2-0.5,0.1c-0.7-0.3-1.6-0.3-1.9-1.3
			c-0.1-0.4-0.4-0.5-0.8-0.3c-0.3,0.2-0.4,0.5-0.3,0.8s0.3,0.5,0.5,0.7c0.2,0.3,0.4,0.6,0.2,0.9c-0.2,0.3-0.5,0.3-0.8,0.3
			c-1-0.1-1.9-0.1-2.9-0.3c-0.7-0.1-1.4-0.1-2-0.1c-0.7,0-1,0.3-1.1,1c-0.1,0.6-0.1,1.2-0.1,1.9c0.1,1.1-1,1.9-2,1.5
			c-0.5-0.2-1-0.4-1.6-0.6c-0.9-0.3-1.1-0.7-0.7-1.6c0.2-0.4,0.3-0.7,0.6-1c0.2-0.2,0.3-0.4,0.1-0.6c-0.1-0.2-0.4-0.2-0.6-0.2
			c-1.3,0.3-2.7,0.2-4,0.6c-0.5,0.2-1.1,0.2-1.7,0.3c-0.5,0.1-1.1,0.1-1.5,0.4c-0.4,0.2-0.8,0.2-1.3,0.1c-1.4-0.2-2.7-0.4-4.1-0.2
			c-0.3,0.1-0.6,0.2-0.6,0.5c-0.2,0.9-0.6,1.9-0.3,2.9c0.1,0.3,0.2,0.5,0.3,0.8c0.1,0.3,0.1,0.5-0.1,0.7c-0.3,0.2-0.6,0.2-0.8,0
			c-0.7-0.5-1.4-0.8-2.1-1.2c-0.2-0.1-0.4-0.3-0.4-0.6c0.1-0.6-0.2-0.5-0.7-0.5c-0.6,0.1-1.3,0.2-1.9,0.2c-0.7,0-1.3-0.2-2-0.4
			c-1.2-0.3-2.5-0.6-3.7-0.7c-1.1-0.2-2.3-0.2-3.4-0.4c-0.5-0.1-1.1,0-1.7,0s-0.8,0.5-1,1c-0.1,0.4-0.2,0.8-0.1,1.2
			c0.1,0.3,0.1,0.7,0,1.1s-0.1,0.7,0.1,1c0.1,0.2,0.1,0.5,0,0.7s-0.2,0.3-0.4,0.2c-0.2,0-0.3-0.1-0.3-0.3c-0.1-0.7-0.5-0.8-1.1-0.9
			c-1.7-0.3-3.4-0.7-5-1.2c-1-0.3-2.1-0.4-3.1-0.7c-1-0.2-2-0.3-2.9-0.5c-1.2-0.2-2.4-0.3-3.6-0.2c-0.5,0-0.9,0.3-1,0.8
			s-0.3,1.1-0.3,1.7C272.2,32.3,272.1,32.8,271.5,33.2z M323.9,23.7c1.2,0.1,2.2-0.4,3.3-0.9c0.4-0.2,0.6-0.7,0.4-0.9
			c-0.2-0.3-0.6-0.1-0.8,0c-1,0.3-1.9,0.7-2.9,1c-0.3,0.1-0.7,0.2-0.6,0.5C323.4,23.8,323.8,23.7,323.9,23.7z M225.3,31.1
			c0-0.1,0-0.2-0.2-0.3c-0.6-0.4-1.6-0.1-1.8,0.6c0,0.1-0.1,0.3,0,0.4s0.3,0.1,0.4,0.1c0.5-0.2,0.9-0.4,1.4-0.5
			C225.2,31.3,225.3,31.2,225.3,31.1z M175.5,37.6c0.4,0,0.7-0.1,0.9-0.4c0-0.1,0.1-0.2,0.1-0.2c0-0.1-0.1-0.1-0.2-0.1
			c-0.3,0.1-0.6,0.1-0.9,0.2c-0.2,0.1-0.3,0.2-0.2,0.4C175.1,37.6,175.3,37.6,175.5,37.6z M340.7,13.1c0.3-0.2,0.6-0.5,0.9-0.9
			c-0.5-0.2-0.9-0.4-1.3-0.5c-1-0.4-1.2-1.2-0.5-2.1c0.3-0.4,0.7-0.9,1.1-1.2c0.4-0.4,0.8-0.5,1.2,0c0.8,0.8,1.9,1.2,2.6,2.1
			c0.2,0.2,0.4,0.3,0.7,0.3c0.4,0,0.8,0.2,1.2,0.4c0.5,0.3,0.6,0.6,0.2,1.1c-0.1,0.1-0.2,0.3-0.4,0.4c-1.5,1.1-3,2.1-4.6,2.9
			c-0.7,0.4-1.4,0.4-2.2,0.5c-0.5,0-0.7-0.1-0.7-0.6c-0.1,0.1-0.2,0.1-0.3,0.2c-0.6,0.4-1.2,0.5-1.8,0.1c-0.4-0.3-0.9-0.5-1.4-0.8
			c-0.2-0.1-0.3-0.3-0.4-0.4c-0.3-0.5-0.2-1,0.3-1.2c1.1-0.7,2.2-1.1,3.5-1.2C339.5,12,340.3,12.5,340.7,13.1z M159.8,46.6
			c0.2,0.6,0.6,1.1,1.1,1.6c0.2,0.2,0.2,0.5-0.1,0.7c-0.4,0.2-0.8,0.1-1.1-0.1c-0.4-0.3-0.7-0.8-0.9-1.2c-0.2-0.5-0.3-0.9-0.6-1.4
			c-0.2-0.3-0.2-0.6,0-0.9c0.1-0.2,0.3-0.3,0.6-0.3c0.2,0,0.3,0,0.4,0.1c0.1-0.1,0.3-0.1,0.5-0.1c0.1,0,0.2,0,0.3,0
			c1.1,0.5,2.4,0.9,3.4,1.6c0.1,0.1,0.3,0.2,0.4,0.3c0.3,0.3,0.2,0.6-0.1,0.9c-0.4,0.4-0.9,0.7-1.3,1c-0.3,0.2-0.6,0.2-0.8,0
			c-0.3-0.2-0.7-0.5-0.9-0.9C160.4,47.5,160.1,47,159.8,46.6z M122.7,49c-0.1,0-0.3,0-0.5,0c-0.9,0-1.5-0.2-2-0.5
			c-0.4-0.3-0.1-0.5,0.6-0.5c0.6,0,1.7,0.3,2.1,0.6c0.3-0.5,0.8-0.8,1.7-0.4c0.3,0.1,0.6,0.2,0.8,0.3c0.2,0.1,0.3,0.1,0.5,0.2
			c0.4,0.3,1.2,2.1,1.1,2.6c-0.1,0.2-0.2,0.4-0.4,0.6c-0.6,0.6-1.2,1.1-1.8,1.7c-0.6,0.5-1,0.6-1.7,0.1c-1.5-1-3.2-1.5-4.9-2
			c-0.8-0.2-1.6-0.4-2.5-0.6c-0.8-0.1-1-0.4-0.5-1c0.6-0.7,1.2-1.4,2.4-1.4c0.4,0,0.6,0.1,0.9,0.3c1,1,2.3,1.7,3.4,2.6
			c0.1,0,0.2,0.1,0.4,0.1c0.1-0.7,0.2-1.4,0.3-2C122.6,49.5,122.6,49.3,122.7,49C122.7,49,122.7,49,122.7,49z M78.1,56.2
			c0.1-0.2,0.3-0.2,0.5-0.2c0.3-0.2,0.4-0.5,0.5-0.9c0-0.1,0-0.2,0.1-0.3c0.3-0.8,1.1-1,1.7-0.4c0.7,0.7,1.3,1.6,1.9,2.4
			c0.2,0.3,0.3,0.6,0.7,0.7c0.1,0,0.2,0.2,0.4,0.3c0.3,0.2,0.3,0.5,0.2,0.9c-0.1,0.3-0.4,0.4-0.6,0.4c-0.8,0-1.6,0.2-2.5,0.3
			c-1.4,0.1-2.6,0.7-4,0.7c-1.5,0.1-1.9-0.2-1.9-1.8c0-0.4,0-0.9,0.5-1.3c0.2-0.2,0.4-0.4,0.7-0.3c0.6,0.1,1.1-0.2,1.7-0.3
			C77.9,56.3,78,56.2,78.1,56.2z"/>
	</g>
</svg>
